<?xml version="1.0" encoding="UTF-8"?>
<svg width="190px" height="190px" viewBox="0 0 190 190" version="1.1" xmlns="http://www.w3.org/2000/svg" xmlns:xlink="http://www.w3.org/1999/xlink">
    <!-- Generator: Sketch 47.1 (45422) - http://www.bohemiancoding.com/sketch -->
    <title>Email MArketing</title>
    <desc>Created with Sketch.</desc>
    <defs>
        <circle id="path-1" cx="95" cy="95" r="95"></circle>
        <polygon id="path-3" points="0 60 50 30 100 60 100 120 0 120"></polygon>
        <rect id="path-4" x="5" y="0" width="90" height="110"></rect>
        <polygon id="path-5" points="0 60 50 90 100 60 100 120 0 120"></polygon>
    </defs>
    <g id="Desktop" stroke="none" stroke-width="1" fill="none" fill-rule="evenodd">
        <g id="Main-Page" transform="translate(-545.000000, -2105.000000)">
            <g id="Email-MArketing" transform="translate(540.000000, 2100.000000)">
                <rect id="Rectangle-3" fill="#D8D8D8" opacity="0" x="0" y="0" width="200" height="200"></rect>
                <g id="BG-Texture" transform="translate(5.000000, 5.000000)">
                    <mask id="mask-2" fill="white">
                        <use xlink:href="#path-1"></use>
                    </mask>
                    <g id="Oval-3"></g>
                    <circle id="Oval-2-Copy-19" fill="#671411" mask="url(#mask-2)" cx="175" cy="20" r="5"></circle>
                    <circle id="Oval-2-Copy-20" fill="#671411" mask="url(#mask-2)" cx="175" cy="50" r="5"></circle>
                    <circle id="Oval-2-Copy-18" fill="#671411" mask="url(#mask-2)" cx="155" cy="20" r="5"></circle>
                    <circle id="Oval-2-Copy-21" fill="#671411" mask="url(#mask-2)" cx="155" cy="50" r="5"></circle>
                    <circle id="Oval-2-Copy-17" fill="#671411" mask="url(#mask-2)" cx="135" cy="20" r="5"></circle>
                    <circle id="Oval-2-Copy-22" fill="#671411" mask="url(#mask-2)" cx="135" cy="50" r="5"></circle>
                    <circle id="Oval-2-Copy-16" fill="#671411" mask="url(#mask-2)" cx="115" cy="20" r="5"></circle>
                    <circle id="Oval-2-Copy-23" fill="#671411" mask="url(#mask-2)" cx="115" cy="50" r="5"></circle>
                    <circle id="Oval-2-Copy-15" fill="#671411" mask="url(#mask-2)" cx="95" cy="20" r="5"></circle>
                    <circle id="Oval-2-Copy-24" fill="#671411" mask="url(#mask-2)" cx="95" cy="50" r="5"></circle>
                    <circle id="Oval-2-Copy-14" fill="#671411" mask="url(#mask-2)" cx="75" cy="20" r="5"></circle>
                    <circle id="Oval-2-Copy-25" fill="#671411" mask="url(#mask-2)" cx="75" cy="50" r="5"></circle>
                    <circle id="Oval-2-Copy-13" fill="#671411" mask="url(#mask-2)" cx="55" cy="20" r="5"></circle>
                    <circle id="Oval-2-Copy-26" fill="#671411" mask="url(#mask-2)" cx="55" cy="50" r="5"></circle>
                    <circle id="Oval-2-Copy-12" fill="#671411" mask="url(#mask-2)" cx="35" cy="20" r="5"></circle>
                    <circle id="Oval-2-Copy-27" fill="#671411" mask="url(#mask-2)" cx="35" cy="50" r="5"></circle>
                    <circle id="Oval-2-Copy-11" fill="#671411" mask="url(#mask-2)" cx="15" cy="20" r="5"></circle>
                    <circle id="Oval-2-Copy-28" fill="#671411" mask="url(#mask-2)" cx="15" cy="50" r="5"></circle>
                    <circle id="Oval-2-Copy-10" fill="#671411" mask="url(#mask-2)" cx="185" cy="5" r="5"></circle>
                    <circle id="Oval-2-Copy-29" fill="#671411" mask="url(#mask-2)" cx="185" cy="35" r="5"></circle>
                    <circle id="Oval-2-Copy-9" fill="#671411" mask="url(#mask-2)" cx="165" cy="5" r="5"></circle>
                    <circle id="Oval-2-Copy-30" fill="#671411" mask="url(#mask-2)" cx="165" cy="35" r="5"></circle>
                    <circle id="Oval-2-Copy-8" fill="#671411" mask="url(#mask-2)" cx="145" cy="5" r="5"></circle>
                    <circle id="Oval-2-Copy-31" fill="#671411" mask="url(#mask-2)" cx="145" cy="35" r="5"></circle>
                    <circle id="Oval-2-Copy-7" fill="#671411" mask="url(#mask-2)" cx="125" cy="5" r="5"></circle>
                    <circle id="Oval-2-Copy-32" fill="#671411" mask="url(#mask-2)" cx="125" cy="35" r="5"></circle>
                    <circle id="Oval-2-Copy-6" fill="#671411" mask="url(#mask-2)" cx="105" cy="5" r="5"></circle>
                    <circle id="Oval-2-Copy-33" fill="#671411" mask="url(#mask-2)" cx="105" cy="35" r="5"></circle>
                    <circle id="Oval-2-Copy-5" fill="#671411" mask="url(#mask-2)" cx="85" cy="5" r="5"></circle>
                    <circle id="Oval-2-Copy-34" fill="#671411" mask="url(#mask-2)" cx="85" cy="35" r="5"></circle>
                    <circle id="Oval-2-Copy-4" fill="#671411" mask="url(#mask-2)" cx="65" cy="5" r="5"></circle>
                    <circle id="Oval-2-Copy-35" fill="#671411" mask="url(#mask-2)" cx="65" cy="35" r="5"></circle>
                    <circle id="Oval-2-Copy-3" fill="#671411" mask="url(#mask-2)" cx="45" cy="5" r="5"></circle>
                    <circle id="Oval-2-Copy-36" fill="#671411" mask="url(#mask-2)" cx="45" cy="35" r="5"></circle>
                    <circle id="Oval-2-Copy" fill="#671411" mask="url(#mask-2)" cx="25" cy="5" r="5"></circle>
                    <circle id="Oval-2-Copy-2" fill="#671411" mask="url(#mask-2)" cx="25" cy="35" r="5"></circle>
                    <circle id="Oval-2" fill="#671411" mask="url(#mask-2)" cx="5" cy="5" r="5"></circle>
                    <circle id="Oval-2-Copy-37" fill="#671411" mask="url(#mask-2)" cx="5" cy="35" r="5"></circle>
                    <circle id="Oval-2-Copy-56" fill="#671411" mask="url(#mask-2)" cx="175" cy="80" r="5"></circle>
                    <circle id="Oval-2-Copy-55" fill="#671411" mask="url(#mask-2)" cx="155" cy="80" r="5"></circle>
                    <circle id="Oval-2-Copy-54" fill="#671411" mask="url(#mask-2)" cx="135" cy="80" r="5"></circle>
                    <circle id="Oval-2-Copy-53" fill="#671411" mask="url(#mask-2)" cx="115" cy="80" r="5"></circle>
                    <circle id="Oval-2-Copy-52" fill="#671411" mask="url(#mask-2)" cx="95" cy="80" r="5"></circle>
                    <circle id="Oval-2-Copy-51" fill="#671411" mask="url(#mask-2)" cx="75" cy="80" r="5"></circle>
                    <circle id="Oval-2-Copy-50" fill="#671411" mask="url(#mask-2)" cx="55" cy="80" r="5"></circle>
                    <circle id="Oval-2-Copy-49" fill="#671411" mask="url(#mask-2)" cx="35" cy="80" r="5"></circle>
                    <circle id="Oval-2-Copy-48" fill="#671411" mask="url(#mask-2)" cx="15" cy="80" r="5"></circle>
                    <circle id="Oval-2-Copy-47" fill="#671411" mask="url(#mask-2)" cx="185" cy="65" r="5"></circle>
                    <circle id="Oval-2-Copy-46" fill="#671411" mask="url(#mask-2)" cx="165" cy="65" r="5"></circle>
                    <circle id="Oval-2-Copy-45" fill="#671411" mask="url(#mask-2)" cx="145" cy="65" r="5"></circle>
                    <circle id="Oval-2-Copy-44" fill="#671411" mask="url(#mask-2)" cx="125" cy="65" r="5"></circle>
                    <circle id="Oval-2-Copy-43" fill="#671411" mask="url(#mask-2)" cx="105" cy="65" r="5"></circle>
                    <circle id="Oval-2-Copy-42" fill="#671411" mask="url(#mask-2)" cx="85" cy="65" r="5"></circle>
                    <circle id="Oval-2-Copy-41" fill="#671411" mask="url(#mask-2)" cx="65" cy="65" r="5"></circle>
                    <circle id="Oval-2-Copy-40" fill="#671411" mask="url(#mask-2)" cx="45" cy="65" r="5"></circle>
                    <circle id="Oval-2-Copy-39" fill="#671411" mask="url(#mask-2)" cx="25" cy="65" r="5"></circle>
                    <circle id="Oval-2-Copy-38" fill="#671411" mask="url(#mask-2)" cx="5" cy="65" r="5"></circle>
                    <circle id="Oval-2-Copy-75" fill="#671411" mask="url(#mask-2)" cx="175" cy="110" r="5"></circle>
                    <circle id="Oval-2-Copy-74" fill="#671411" mask="url(#mask-2)" cx="155" cy="110" r="5"></circle>
                    <circle id="Oval-2-Copy-73" fill="#671411" mask="url(#mask-2)" cx="135" cy="110" r="5"></circle>
                    <circle id="Oval-2-Copy-72" fill="#671411" mask="url(#mask-2)" cx="115" cy="110" r="5"></circle>
                    <circle id="Oval-2-Copy-71" fill="#671411" mask="url(#mask-2)" cx="95" cy="110" r="5"></circle>
                    <circle id="Oval-2-Copy-70" fill="#671411" mask="url(#mask-2)" cx="75" cy="110" r="5"></circle>
                    <circle id="Oval-2-Copy-69" fill="#671411" mask="url(#mask-2)" cx="55" cy="110" r="5"></circle>
                    <circle id="Oval-2-Copy-68" fill="#671411" mask="url(#mask-2)" cx="35" cy="110" r="5"></circle>
                    <circle id="Oval-2-Copy-67" fill="#671411" mask="url(#mask-2)" cx="15" cy="110" r="5"></circle>
                    <circle id="Oval-2-Copy-66" fill="#671411" mask="url(#mask-2)" cx="185" cy="95" r="5"></circle>
                    <circle id="Oval-2-Copy-65" fill="#671411" mask="url(#mask-2)" cx="165" cy="95" r="5"></circle>
                    <circle id="Oval-2-Copy-64" fill="#671411" mask="url(#mask-2)" cx="145" cy="95" r="5"></circle>
                    <circle id="Oval-2-Copy-63" fill="#671411" mask="url(#mask-2)" cx="125" cy="95" r="5"></circle>
                    <circle id="Oval-2-Copy-62" fill="#671411" mask="url(#mask-2)" cx="105" cy="95" r="5"></circle>
                    <circle id="Oval-2-Copy-61" fill="#671411" mask="url(#mask-2)" cx="85" cy="95" r="5"></circle>
                    <circle id="Oval-2-Copy-60" fill="#671411" mask="url(#mask-2)" cx="65" cy="95" r="5"></circle>
                    <circle id="Oval-2-Copy-59" fill="#671411" mask="url(#mask-2)" cx="45" cy="95" r="5"></circle>
                    <circle id="Oval-2-Copy-58" fill="#671411" mask="url(#mask-2)" cx="25" cy="95" r="5"></circle>
                    <circle id="Oval-2-Copy-57" fill="#671411" mask="url(#mask-2)" cx="5" cy="95" r="5"></circle>
                    <circle id="Oval-2-Copy-94" fill="#671411" mask="url(#mask-2)" cx="175" cy="140" r="5"></circle>
                    <circle id="Oval-2-Copy-93" fill="#671411" mask="url(#mask-2)" cx="155" cy="140" r="5"></circle>
                    <circle id="Oval-2-Copy-92" fill="#671411" mask="url(#mask-2)" cx="135" cy="140" r="5"></circle>
                    <circle id="Oval-2-Copy-91" fill="#671411" mask="url(#mask-2)" cx="115" cy="140" r="5"></circle>
                    <circle id="Oval-2-Copy-90" fill="#671411" mask="url(#mask-2)" cx="95" cy="140" r="5"></circle>
                    <circle id="Oval-2-Copy-89" fill="#671411" mask="url(#mask-2)" cx="75" cy="140" r="5"></circle>
                    <circle id="Oval-2-Copy-88" fill="#671411" mask="url(#mask-2)" cx="55" cy="140" r="5"></circle>
                    <circle id="Oval-2-Copy-87" fill="#671411" mask="url(#mask-2)" cx="35" cy="140" r="5"></circle>
                    <circle id="Oval-2-Copy-86" fill="#671411" mask="url(#mask-2)" cx="15" cy="140" r="5"></circle>
                    <circle id="Oval-2-Copy-85" fill="#671411" mask="url(#mask-2)" cx="185" cy="125" r="5"></circle>
                    <circle id="Oval-2-Copy-84" fill="#671411" mask="url(#mask-2)" cx="165" cy="125" r="5"></circle>
                    <circle id="Oval-2-Copy-83" fill="#671411" mask="url(#mask-2)" cx="145" cy="125" r="5"></circle>
                    <circle id="Oval-2-Copy-82" fill="#671411" mask="url(#mask-2)" cx="125" cy="125" r="5"></circle>
                    <circle id="Oval-2-Copy-81" fill="#671411" mask="url(#mask-2)" cx="105" cy="125" r="5"></circle>
                    <circle id="Oval-2-Copy-80" fill="#671411" mask="url(#mask-2)" cx="85" cy="125" r="5"></circle>
                    <circle id="Oval-2-Copy-79" fill="#671411" mask="url(#mask-2)" cx="65" cy="125" r="5"></circle>
                    <circle id="Oval-2-Copy-78" fill="#671411" mask="url(#mask-2)" cx="45" cy="125" r="5"></circle>
                    <circle id="Oval-2-Copy-77" fill="#671411" mask="url(#mask-2)" cx="25" cy="125" r="5"></circle>
                    <circle id="Oval-2-Copy-76" fill="#671411" mask="url(#mask-2)" cx="5" cy="125" r="5"></circle>
                    <circle id="Oval-2-Copy-113" fill="#671411" mask="url(#mask-2)" cx="175" cy="170" r="5"></circle>
                    <circle id="Oval-2-Copy-112" fill="#671411" mask="url(#mask-2)" cx="155" cy="170" r="5"></circle>
                    <circle id="Oval-2-Copy-111" fill="#671411" mask="url(#mask-2)" cx="135" cy="170" r="5"></circle>
                    <circle id="Oval-2-Copy-110" fill="#671411" mask="url(#mask-2)" cx="115" cy="170" r="5"></circle>
                    <circle id="Oval-2-Copy-109" fill="#671411" mask="url(#mask-2)" cx="95" cy="170" r="5"></circle>
                    <circle id="Oval-2-Copy-108" fill="#671411" mask="url(#mask-2)" cx="75" cy="170" r="5"></circle>
                    <circle id="Oval-2-Copy-107" fill="#671411" mask="url(#mask-2)" cx="55" cy="170" r="5"></circle>
                    <circle id="Oval-2-Copy-106" fill="#671411" mask="url(#mask-2)" cx="35" cy="170" r="5"></circle>
                    <circle id="Oval-2-Copy-105" fill="#671411" mask="url(#mask-2)" cx="15" cy="170" r="5"></circle>
                    <circle id="Oval-2-Copy-104" fill="#671411" mask="url(#mask-2)" cx="185" cy="155" r="5"></circle>
                    <circle id="Oval-2-Copy-103" fill="#671411" mask="url(#mask-2)" cx="165" cy="155" r="5"></circle>
                    <circle id="Oval-2-Copy-102" fill="#671411" mask="url(#mask-2)" cx="145" cy="155" r="5"></circle>
                    <circle id="Oval-2-Copy-101" fill="#671411" mask="url(#mask-2)" cx="125" cy="155" r="5"></circle>
                    <circle id="Oval-2-Copy-100" fill="#671411" mask="url(#mask-2)" cx="105" cy="155" r="5"></circle>
                    <circle id="Oval-2-Copy-99" fill="#671411" mask="url(#mask-2)" cx="85" cy="155" r="5"></circle>
                    <circle id="Oval-2-Copy-98" fill="#671411" mask="url(#mask-2)" cx="65" cy="155" r="5"></circle>
                    <circle id="Oval-2-Copy-97" fill="#671411" mask="url(#mask-2)" cx="45" cy="155" r="5"></circle>
                    <circle id="Oval-2-Copy-96" fill="#671411" mask="url(#mask-2)" cx="25" cy="155" r="5"></circle>
                    <circle id="Oval-2-Copy-95" fill="#671411" mask="url(#mask-2)" cx="5" cy="155" r="5"></circle>
                    <circle id="Oval-2-Copy-123" fill="#671411" mask="url(#mask-2)" cx="185" cy="185" r="5"></circle>
                    <circle id="Oval-2-Copy-122" fill="#671411" mask="url(#mask-2)" cx="165" cy="185" r="5"></circle>
                    <circle id="Oval-2-Copy-121" fill="#671411" mask="url(#mask-2)" cx="145" cy="185" r="5"></circle>
                    <circle id="Oval-2-Copy-120" fill="#671411" mask="url(#mask-2)" cx="125" cy="185" r="5"></circle>
                    <circle id="Oval-2-Copy-119" fill="#671411" mask="url(#mask-2)" cx="105" cy="185" r="5"></circle>
                    <circle id="Oval-2-Copy-118" fill="#671411" mask="url(#mask-2)" cx="85" cy="185" r="5"></circle>
                    <circle id="Oval-2-Copy-117" fill="#671411" mask="url(#mask-2)" cx="65" cy="185" r="5"></circle>
                    <circle id="Oval-2-Copy-116" fill="#671411" mask="url(#mask-2)" cx="45" cy="185" r="5"></circle>
                    <circle id="Oval-2-Copy-115" fill="#671411" mask="url(#mask-2)" cx="25" cy="185" r="5"></circle>
                    <circle id="Oval-2-Copy-114" fill="#671411" mask="url(#mask-2)" cx="5" cy="185" r="5"></circle>
                </g>
                <g id="Email" transform="translate(50.000000, 40.000000)">
                    <g id="Rectangle-14">
                        <use fill="#210607" fill-rule="evenodd" xlink:href="#path-3"></use>
                        <path stroke="#EE2E31" stroke-width="2" d="M1,60.5661904 L1,119 L99,119 L99,60.5661904 L50,31.1661904 L1,60.5661904 Z"></path>
                    </g>
                    <g id="Rectangle-14">
                        <use fill="#210607" fill-rule="evenodd" xlink:href="#path-4"></use>
                        <rect stroke="#EE2E31" stroke-width="2" x="6" y="1" width="88" height="108"></rect>
                    </g>
                    <rect id="Rectangle-4-Copy" fill-opacity="0.700000048" fill="#FFFFFF" x="15" y="18" width="10" height="2" rx="1"></rect>
                    <rect id="Rectangle-4-Copy" fill-opacity="0.700000048" fill="#FFFFFF" x="27" y="18" width="20" height="2" rx="1"></rect>
                    <rect id="Rectangle-4-Copy" fill-opacity="0.700000048" fill="#FFFFFF" x="15" y="10" width="22" height="3" rx="1.5"></rect>
                    <rect id="Rectangle-4-Copy" fill-opacity="0.700000048" fill="#FFFFFF" x="40" y="10" width="15" height="3" rx="1.5"></rect>
                    <rect id="Rectangle-4-Copy" fill-opacity="0.700000048" fill="#FFFFFF" x="15" y="80" width="28" height="3" rx="1.5"></rect>
                    <rect id="Rectangle-4-Copy" fill-opacity="0.700000048" fill="#FFFFFF" x="46" y="80" width="19" height="3" rx="1.5"></rect>
                    <rect id="Rectangle-4-Copy" fill-opacity="0.700000048" fill="#FFFFFF" x="49" y="18" width="13" height="2" rx="1"></rect>
                    <rect id="Rectangle-4-Copy" fill-opacity="0.700000048" fill="#FFFFFF" x="64" y="18" width="21" height="2" rx="1"></rect>
                    <rect id="Rectangle-4-Copy" fill-opacity="0.700000048" fill="#FFFFFF" x="15" y="23" width="16" height="2" rx="1"></rect>
                    <rect id="Rectangle-4-Copy" fill-opacity="0.700000048" fill="#FFFFFF" x="33" y="23" width="24" height="2" rx="1"></rect>
                    <rect id="Rectangle-4-Copy" fill-opacity="0.700000048" fill="#FFFFFF" x="59" y="23" width="16" height="2" rx="1"></rect>
                    <rect id="Rectangle-4-Copy" fill-opacity="0.700000048" fill="#FFFFFF" x="77" y="23" width="8" height="2" rx="1"></rect>
                    <rect id="Rectangle-4-Copy" fill-opacity="0.700000048" fill="#FFFFFF" x="15" y="28" width="11" height="2" rx="1"></rect>
                    <rect id="Rectangle-4-Copy" fill-opacity="0.700000048" fill="#FFFFFF" x="28" y="28" width="10" height="2" rx="1"></rect>
                    <rect id="Rectangle-4-Copy" fill-opacity="0.700000048" fill="#FFFFFF" x="40" y="28" width="15" height="2" rx="1"></rect>
                    <rect id="Rectangle-4-Copy" fill-opacity="0.700000048" fill="#FFFFFF" x="57" y="28" width="20" height="2" rx="1"></rect>
                    <rect id="Rectangle-4-Copy" fill-opacity="0.700000048" fill="#FFFFFF" x="79" y="28" width="6" height="2" rx="1"></rect>
                    <rect id="Rectangle-4-Copy" fill-opacity="0.700000048" fill="#FFFFFF" x="15" y="88" width="16" height="2" rx="1"></rect>
                    <rect id="Rectangle-4-Copy" fill-opacity="0.700000048" fill="#FFFFFF" x="33" y="88" width="24" height="2" rx="1"></rect>
                    <rect id="Rectangle-4-Copy" fill-opacity="0.700000048" fill="#FFFFFF" x="59" y="88" width="16" height="2" rx="1"></rect>
                    <rect id="Rectangle-4-Copy" fill-opacity="0.700000048" fill="#FFFFFF" x="15" y="93" width="11" height="2" rx="1"></rect>
                    <rect id="Rectangle-4-Copy" fill-opacity="0.700000048" fill="#FFFFFF" x="28" y="93" width="10" height="2" rx="1"></rect>
                    <rect id="Rectangle-4-Copy" fill-opacity="0.700000048" fill="#FFFFFF" x="40" y="93" width="15" height="2" rx="1"></rect>
                    <rect id="Rectangle-4-Copy" fill-opacity="0.700000048" fill="#FFFFFF" x="15" y="73" width="10" height="2" rx="1"></rect>
                    <rect id="Rectangle-4-Copy" fill-opacity="0.700000048" fill="#FFFFFF" x="27" y="73" width="20" height="2" rx="1"></rect>
                    <rect id="Rectangle-4-Copy" fill-opacity="0.700000048" fill="#FFFFFF" x="49" y="73" width="22" height="2" rx="1"></rect>
                    <rect id="Rectangle-4-Copy" fill-opacity="0.700000048" fill="#FFFFFF" x="74" y="73" width="11" height="2" rx="1"></rect>
                    <rect id="Rectangle-4-Copy" fill-opacity="0.700000048" fill="#FFFFFF" x="15" y="58" width="17" height="2" rx="1"></rect>
                    <rect id="Rectangle-4-Copy" fill-opacity="0.700000048" fill="#FFFFFF" x="34" y="58" width="11" height="2" rx="1"></rect>
                    <rect id="Rectangle-4-Copy" fill-opacity="0.700000048" fill="#FFFFFF" x="47" y="58" width="21" height="2" rx="1"></rect>
                    <rect id="Rectangle-4-Copy" fill-opacity="0.700000048" fill="#FFFFFF" x="70" y="58" width="15" height="2" rx="1"></rect>
                    <rect id="Rectangle-4-Copy" fill-opacity="0.700000048" fill="#FFFFFF" x="15" y="63" width="19" height="2" rx="1"></rect>
                    <rect id="Rectangle-4-Copy" fill-opacity="0.700000048" fill="#FFFFFF" x="36" y="63" width="18" height="2" rx="1"></rect>
                    <rect id="Rectangle-4-Copy" fill-opacity="0.700000048" fill="#FFFFFF" x="56" y="63" width="29" height="2" rx="1"></rect>
                    <rect id="Rectangle-4-Copy" fill-opacity="0.700000048" fill="#FFFFFF" x="24" y="68" width="20" height="2" rx="1"></rect>
                    <rect id="Rectangle-4-Copy" fill-opacity="0.700000048" fill="#FFFFFF" x="46" y="68" width="19" height="2" rx="1"></rect>
                    <rect id="Rectangle-4-Copy" fill-opacity="0.700000048" fill="#FFFFFF" x="67" y="68" width="18" height="2" rx="1"></rect>
                    <rect id="Rectangle-4-Copy" fill-opacity="0.700000048" fill="#FFFFFF" x="15" y="68" width="7" height="2" rx="1"></rect>
                    <rect id="Rectangle-5" fill="#EE2E31" x="25" y="33" width="50" height="22" rx="1"></rect>
                    <g id="Rectangle-14">
                        <use fill="#210607" fill-rule="evenodd" xlink:href="#path-5"></use>
                        <path stroke="#EE2E31" stroke-width="2" d="M1,61.7661904 L1,119 L99,119 L99,61.7661904 L50,91.1661904 L1,61.7661904 Z"></path>
                    </g>
                    <path d="M1.5,118.5 L45.5,93.5" id="Line" stroke="#EE2E31" stroke-width="2"></path>
                    <path d="M54.5,118.5 L98.5,93.5" id="Line" stroke="#EE2E31" stroke-width="2" transform="translate(76.500000, 106.000000) scale(-1, 1) translate(-76.500000, -106.000000) "></path>
                </g>
            </g>
        </g>
    </g>
</svg>