<?xml version="1.0" encoding="UTF-8"?>
<svg width="190px" height="190px" viewBox="0 0 190 190" version="1.1" xmlns="http://www.w3.org/2000/svg" xmlns:xlink="http://www.w3.org/1999/xlink">
    <!-- Generator: Sketch 47.1 (45422) - http://www.bohemiancoding.com/sketch -->
    <title>Social Networks</title>
    <desc>Created with Sketch.</desc>
    <defs>
        <circle id="path-1" cx="95" cy="95" r="95"></circle>
        <radialGradient cx="56.8296909%" cy="57.6231077%" fx="56.8296909%" fy="57.6231077%" r="76.5638258%" id="radialGradient-3">
            <stop stop-color="#671411" offset="0%"></stop>
            <stop stop-color="#210607" offset="100%"></stop>
        </radialGradient>
        <path d="M30.0028125,0 C21.8552277,0 20.832717,0.035625 17.6326837,0.18125 C14.4389004,0.3275 12.2588777,0.833125 10.3513578,1.575 C8.37821227,2.34125 6.70444484,3.36625 5.03692747,5.034375 C3.36816009,6.701875 2.34314941,8.375625 1.5743914,10.348125 C0.830633652,12.25625 0.324378379,14.436875 0.180626882,17.629375 C0.0375003906,20.829375 0,21.8525 0,30 C0,38.1475 0.0362503776,39.166875 0.181251888,42.366875 C0.328128418,45.560625 0.833758685,47.740625 1.57501641,49.648125 C2.34189939,51.62125 3.36691007,53.295 5.03505245,54.9625 C6.70194481,56.63125 8.37571225,57.65875 10.3476078,58.425 C12.2563777,59.166875 14.4370254,59.6725 17.6301836,59.81875 C20.830217,59.964375 21.8521026,60 29.9990625,60 C38.1472724,60 39.166658,59.964375 42.3666913,59.81875 C45.5604746,59.6725 47.7429973,59.166875 49.6517672,58.425 C51.6242878,57.65875 53.2955552,56.63125 54.9624475,54.9625 C56.6312149,53.295 57.6562256,51.62125 58.4249836,49.64875 C59.1624913,47.740625 59.6687465,45.56 59.8187481,42.3675 C59.9624996,39.1675 60,38.1475 60,30 C60,21.8525 59.9624996,20.83 59.8187481,17.63 C59.6687465,14.43625 59.1624913,12.25625 58.4249836,10.34875 C57.6562256,8.375625 56.6312149,6.701875 54.9624475,5.034375 C53.2936801,3.365625 51.6249128,2.340625 49.6498922,1.575 C47.7373723,0.833125 45.5560995,0.3275 42.3623163,0.18125 C39.1622829,0.035625 38.1435223,8.8817842e-15 29.9934374,8.8817842e-15 L30.0028125,0 Z M27.3115345,5.40625 C28.1102928,5.405 29.0015521,5.40625 30.0028125,5.40625 C38.012896,5.40625 38.9622809,5.435 42.1254388,5.57875 C45.0504693,5.7125 46.6379858,6.20125 47.6954968,6.611875 C49.0955114,7.155625 50.0936468,7.805625 51.1430327,8.855625 C52.1930437,9.905625 52.8430504,10.905625 53.3880561,12.305625 C53.7986854,13.361875 54.2880655,14.949375 54.4211919,17.874375 C54.5649434,21.036875 54.5961937,21.986875 54.5961937,29.993125 C54.5961937,37.999375 54.5649434,38.949375 54.4211919,42.111875 C54.2874405,45.036875 53.7986854,46.624375 53.3880561,47.680625 C52.8443005,49.080625 52.1930437,50.0775 51.1430327,51.126875 C50.0930218,52.176875 49.0961364,52.826875 47.6954968,53.370625 C46.6392358,53.783125 45.0504693,54.270625 42.1254388,54.404375 C38.9629059,54.548125 38.012896,54.579375 30.0028125,54.579375 C21.9921041,54.579375 21.0427192,54.548125 17.8801863,54.404375 C14.9551558,54.269375 13.3676392,53.780625 12.3095032,53.37 C10.9094886,52.82625 9.90947822,52.17625 8.85946729,51.12625 C7.80945635,50.07625 7.15944958,49.07875 6.6144439,47.678125 C6.20381462,46.621875 5.71443453,45.034375 5.58130814,42.109375 C5.43755664,38.946875 5.40880634,37.996875 5.40880634,29.985625 C5.40880634,21.974375 5.43755664,21.029375 5.58130814,17.866875 C5.71505953,14.941875 6.20381462,13.354375 6.6144439,12.296875 C7.15819956,10.896875 7.80945635,9.896875 8.85946729,8.846875 C9.90947822,7.796875 10.9094886,7.146875 12.3095032,6.601875 C13.3670142,6.189375 14.9551558,5.701875 17.8801863,5.5675 C20.6477151,5.4425 21.7202263,5.405 27.3115345,5.39875 L27.3115345,5.40625 Z M45.5,10.0012153 C43.5677083,10.0012153 42,11.5671007 42,13.5 C42,15.4322917 43.5677083,17 45.5,17 C47.4322917,17 49,15.4322917 49,13.5 C49,11.5677083 47.4322917,10 45.5,10 L45.5,10.0012153 Z M30.5012577,15 C21.9406646,15 15,21.9408054 15,30.5015722 C15,39.062339 21.9406646,46 30.5012577,46 C39.0618509,46 46,39.062339 46,30.5015722 C46,21.9408054 39.061222,15 30.5006289,15 L30.5012577,15 Z M30.5027084,20 C36.3013334,20 41.0027084,24.7007187 41.0027084,30.5 C41.0027084,36.298625 36.3013334,41 30.5027084,41 C24.7034271,41 20.0027084,36.298625 20.0027084,30.5 C20.0027084,24.7007187 24.7034271,20 30.5027084,20 L30.5027084,20 Z" id="path-4"></path>
        <linearGradient x1="56.8296909%" y1="0%" x2="56.8296909%" y2="100%" id="linearGradient-5">
            <stop stop-color="#671411" offset="0%"></stop>
            <stop stop-color="#210607" offset="100%"></stop>
        </linearGradient>
        <path d="M148.965694,135.566799 L149.09947,137.772692 L146.86988,137.502583 C138.754171,136.467163 131.664073,132.955741 125.644179,127.058351 L122.70112,124.132165 L121.943059,126.293041 C120.337754,131.109993 121.363366,136.197054 124.707751,139.61844 C126.491424,141.509206 126.090097,141.779316 123.013263,140.65386 C121.943059,140.293714 121.006631,140.023604 120.917448,140.158659 C120.605305,140.473787 121.675508,144.570447 122.522753,146.191103 C123.68214,148.442016 126.045506,150.647909 128.63183,151.953438 L130.816829,152.988858 L128.230504,153.033876 C125.733363,153.033876 125.644179,153.078894 125.91173,154.024277 C126.803566,156.950463 130.326319,160.056722 134.250398,161.407269 L137.01509,162.352652 L134.607133,163.793236 C131.039788,165.864075 126.848158,167.034549 122.656528,167.124586 C120.649897,167.169604 119,167.349677 119,167.484732 C119,167.934914 124.4402,170.455936 127.606219,171.446337 C137.104274,174.372523 148.386001,173.112012 156.858444,168.114987 C162.878338,164.558546 168.898232,157.490682 171.707516,150.647909 C173.223638,147.001432 174.739759,140.338732 174.739759,137.142437 C174.739759,135.071598 174.873534,134.801488 177.370676,132.325485 C178.842205,130.884901 180.224551,129.309263 180.492102,128.859081 C180.93802,128.003734 180.893428,128.003734 178.619246,128.769044 C174.828943,130.119591 174.293841,129.939518 176.166697,127.913698 C177.549043,126.473114 179.19894,123.862056 179.19894,123.096746 C179.19894,122.961691 178.530063,123.186782 177.772002,123.591946 C176.969349,124.042129 175.185677,124.717402 173.847923,125.122567 L171.439965,125.887877 L169.254967,124.402275 C168.050988,123.591946 166.356499,122.691582 165.464663,122.421472 C163.190481,121.791217 159.71232,121.881253 157.661097,122.601545 C152.087121,124.627366 148.564368,129.849482 148.965694,135.566799 Z" id="path-6"></path>
        <path d="M58.227395,179.639346 L58.227395,143.815479 L68.1163491,143.815479 L69.4268491,131.470376 L58.227395,131.470376 L58.2441963,125.291533 C58.2441963,122.07174 58.5501196,120.346501 63.1746723,120.346501 L69.3568437,120.346501 L69.3568437,108 L59.4664895,108 C47.5865836,108 43.4051647,113.988703 43.4051647,124.059819 L43.4051647,131.471774 L36,131.471774 L36,143.816877 L43.4051647,143.816877 L43.4051647,179.639346 L58.227395,179.639346 Z" id="path-7"></path>
        <path d="M133.098108,45.2799141 L133.098108,85.2739302 L119.787112,85.2739302 L119.787112,45.2799141 L133.098108,45.2799141 Z M133.974803,32.9081514 C133.974803,36.7483139 131.084206,39.8210809 126.442876,39.8210809 L126.357811,39.8210809 C121.889002,39.8210809 119,36.7483139 119,32.9081514 C119,28.9867635 121.976991,26 126.530599,26 C131.084206,26 133.88841,28.9867635 133.974803,32.9081514 Z M181.10265,62.3425836 L181.102118,85.2739302 L167.791654,85.2739302 L167.791654,63.877109 C167.791654,58.5026866 165.865475,54.8353276 161.046839,54.8353276 C157.369395,54.8353276 155.178985,57.3076627 154.216959,59.695587 C153.865005,60.5513749 153.778611,61.7437444 153.778611,62.9390338 L153.778611,85.274992 L140.46602,85.274992 C140.46602,85.274992 140.641466,49.0338076 140.46602,45.2809759 L153.778611,45.2809759 L153.778611,50.9457928 C155.545294,48.2226141 158.709426,44.3407771 165.776689,44.3407771 C174.535938,44.3407771 181.10265,50.0581517 181.10265,62.3425836 Z" id="path-8"></path>
    </defs>
    <g id="Desktop" stroke="none" stroke-width="1" fill="none" fill-rule="evenodd">
        <g id="Main-Page" transform="translate(-195.000000, -2105.000000)">
            <g id="Social-Networks" transform="translate(190.000000, 2100.000000)">
                <rect id="Rectangle-3" fill="#D8D8D8" opacity="0" x="0" y="0" width="200" height="200"></rect>
                <g id="BG-Texture" transform="translate(5.000000, 5.000000)">
                    <mask id="mask-2" fill="white">
                        <use xlink:href="#path-1"></use>
                    </mask>
                    <g id="Oval-3"></g>
                    <circle id="Oval-2-Copy-19" fill="#671411" mask="url(#mask-2)" cx="175" cy="20" r="5"></circle>
                    <circle id="Oval-2-Copy-20" fill="#671411" mask="url(#mask-2)" cx="175" cy="50" r="5"></circle>
                    <circle id="Oval-2-Copy-18" fill="#671411" mask="url(#mask-2)" cx="155" cy="20" r="5"></circle>
                    <circle id="Oval-2-Copy-21" fill="#671411" mask="url(#mask-2)" cx="155" cy="50" r="5"></circle>
                    <circle id="Oval-2-Copy-17" fill="#671411" mask="url(#mask-2)" cx="135" cy="20" r="5"></circle>
                    <circle id="Oval-2-Copy-22" fill="#671411" mask="url(#mask-2)" cx="135" cy="50" r="5"></circle>
                    <circle id="Oval-2-Copy-16" fill="#671411" mask="url(#mask-2)" cx="115" cy="20" r="5"></circle>
                    <circle id="Oval-2-Copy-23" fill="#671411" mask="url(#mask-2)" cx="115" cy="50" r="5"></circle>
                    <circle id="Oval-2-Copy-15" fill="#671411" mask="url(#mask-2)" cx="95" cy="20" r="5"></circle>
                    <circle id="Oval-2-Copy-24" fill="#671411" mask="url(#mask-2)" cx="95" cy="50" r="5"></circle>
                    <circle id="Oval-2-Copy-14" fill="#671411" mask="url(#mask-2)" cx="75" cy="20" r="5"></circle>
                    <circle id="Oval-2-Copy-25" fill="#671411" mask="url(#mask-2)" cx="75" cy="50" r="5"></circle>
                    <circle id="Oval-2-Copy-13" fill="#671411" mask="url(#mask-2)" cx="55" cy="20" r="5"></circle>
                    <circle id="Oval-2-Copy-26" fill="#671411" mask="url(#mask-2)" cx="55" cy="50" r="5"></circle>
                    <circle id="Oval-2-Copy-12" fill="#671411" mask="url(#mask-2)" cx="35" cy="20" r="5"></circle>
                    <circle id="Oval-2-Copy-27" fill="#671411" mask="url(#mask-2)" cx="35" cy="50" r="5"></circle>
                    <circle id="Oval-2-Copy-11" fill="#671411" mask="url(#mask-2)" cx="15" cy="20" r="5"></circle>
                    <circle id="Oval-2-Copy-28" fill="#671411" mask="url(#mask-2)" cx="15" cy="50" r="5"></circle>
                    <circle id="Oval-2-Copy-10" fill="#671411" mask="url(#mask-2)" cx="185" cy="5" r="5"></circle>
                    <circle id="Oval-2-Copy-29" fill="#671411" mask="url(#mask-2)" cx="185" cy="35" r="5"></circle>
                    <circle id="Oval-2-Copy-9" fill="#671411" mask="url(#mask-2)" cx="165" cy="5" r="5"></circle>
                    <circle id="Oval-2-Copy-30" fill="#671411" mask="url(#mask-2)" cx="165" cy="35" r="5"></circle>
                    <circle id="Oval-2-Copy-8" fill="#671411" mask="url(#mask-2)" cx="145" cy="5" r="5"></circle>
                    <circle id="Oval-2-Copy-31" fill="#671411" mask="url(#mask-2)" cx="145" cy="35" r="5"></circle>
                    <circle id="Oval-2-Copy-7" fill="#671411" mask="url(#mask-2)" cx="125" cy="5" r="5"></circle>
                    <circle id="Oval-2-Copy-32" fill="#671411" mask="url(#mask-2)" cx="125" cy="35" r="5"></circle>
                    <circle id="Oval-2-Copy-6" fill="#671411" mask="url(#mask-2)" cx="105" cy="5" r="5"></circle>
                    <circle id="Oval-2-Copy-33" fill="#671411" mask="url(#mask-2)" cx="105" cy="35" r="5"></circle>
                    <circle id="Oval-2-Copy-5" fill="#671411" mask="url(#mask-2)" cx="85" cy="5" r="5"></circle>
                    <circle id="Oval-2-Copy-34" fill="#671411" mask="url(#mask-2)" cx="85" cy="35" r="5"></circle>
                    <circle id="Oval-2-Copy-4" fill="#671411" mask="url(#mask-2)" cx="65" cy="5" r="5"></circle>
                    <circle id="Oval-2-Copy-35" fill="#671411" mask="url(#mask-2)" cx="65" cy="35" r="5"></circle>
                    <circle id="Oval-2-Copy-3" fill="#671411" mask="url(#mask-2)" cx="45" cy="5" r="5"></circle>
                    <circle id="Oval-2-Copy-36" fill="#671411" mask="url(#mask-2)" cx="45" cy="35" r="5"></circle>
                    <circle id="Oval-2-Copy" fill="#671411" mask="url(#mask-2)" cx="25" cy="5" r="5"></circle>
                    <circle id="Oval-2-Copy-2" fill="#671411" mask="url(#mask-2)" cx="25" cy="35" r="5"></circle>
                    <circle id="Oval-2" fill="#671411" mask="url(#mask-2)" cx="5" cy="5" r="5"></circle>
                    <circle id="Oval-2-Copy-37" fill="#671411" mask="url(#mask-2)" cx="5" cy="35" r="5"></circle>
                    <circle id="Oval-2-Copy-56" fill="#671411" mask="url(#mask-2)" cx="175" cy="80" r="5"></circle>
                    <circle id="Oval-2-Copy-55" fill="#671411" mask="url(#mask-2)" cx="155" cy="80" r="5"></circle>
                    <circle id="Oval-2-Copy-54" fill="#671411" mask="url(#mask-2)" cx="135" cy="80" r="5"></circle>
                    <circle id="Oval-2-Copy-53" fill="#671411" mask="url(#mask-2)" cx="115" cy="80" r="5"></circle>
                    <circle id="Oval-2-Copy-52" fill="#671411" mask="url(#mask-2)" cx="95" cy="80" r="5"></circle>
                    <circle id="Oval-2-Copy-51" fill="#671411" mask="url(#mask-2)" cx="75" cy="80" r="5"></circle>
                    <circle id="Oval-2-Copy-50" fill="#671411" mask="url(#mask-2)" cx="55" cy="80" r="5"></circle>
                    <circle id="Oval-2-Copy-49" fill="#671411" mask="url(#mask-2)" cx="35" cy="80" r="5"></circle>
                    <circle id="Oval-2-Copy-48" fill="#671411" mask="url(#mask-2)" cx="15" cy="80" r="5"></circle>
                    <circle id="Oval-2-Copy-47" fill="#671411" mask="url(#mask-2)" cx="185" cy="65" r="5"></circle>
                    <circle id="Oval-2-Copy-46" fill="#671411" mask="url(#mask-2)" cx="165" cy="65" r="5"></circle>
                    <circle id="Oval-2-Copy-45" fill="#671411" mask="url(#mask-2)" cx="145" cy="65" r="5"></circle>
                    <circle id="Oval-2-Copy-44" fill="#671411" mask="url(#mask-2)" cx="125" cy="65" r="5"></circle>
                    <circle id="Oval-2-Copy-43" fill="#671411" mask="url(#mask-2)" cx="105" cy="65" r="5"></circle>
                    <circle id="Oval-2-Copy-42" fill="#671411" mask="url(#mask-2)" cx="85" cy="65" r="5"></circle>
                    <circle id="Oval-2-Copy-41" fill="#671411" mask="url(#mask-2)" cx="65" cy="65" r="5"></circle>
                    <circle id="Oval-2-Copy-40" fill="#671411" mask="url(#mask-2)" cx="45" cy="65" r="5"></circle>
                    <circle id="Oval-2-Copy-39" fill="#671411" mask="url(#mask-2)" cx="25" cy="65" r="5"></circle>
                    <circle id="Oval-2-Copy-38" fill="#671411" mask="url(#mask-2)" cx="5" cy="65" r="5"></circle>
                    <circle id="Oval-2-Copy-75" fill="#671411" mask="url(#mask-2)" cx="175" cy="110" r="5"></circle>
                    <circle id="Oval-2-Copy-74" fill="#671411" mask="url(#mask-2)" cx="155" cy="110" r="5"></circle>
                    <circle id="Oval-2-Copy-73" fill="#671411" mask="url(#mask-2)" cx="135" cy="110" r="5"></circle>
                    <circle id="Oval-2-Copy-72" fill="#671411" mask="url(#mask-2)" cx="115" cy="110" r="5"></circle>
                    <circle id="Oval-2-Copy-71" fill="#671411" mask="url(#mask-2)" cx="95" cy="110" r="5"></circle>
                    <circle id="Oval-2-Copy-70" fill="#671411" mask="url(#mask-2)" cx="75" cy="110" r="5"></circle>
                    <circle id="Oval-2-Copy-69" fill="#671411" mask="url(#mask-2)" cx="55" cy="110" r="5"></circle>
                    <circle id="Oval-2-Copy-68" fill="#671411" mask="url(#mask-2)" cx="35" cy="110" r="5"></circle>
                    <circle id="Oval-2-Copy-67" fill="#671411" mask="url(#mask-2)" cx="15" cy="110" r="5"></circle>
                    <circle id="Oval-2-Copy-66" fill="#671411" mask="url(#mask-2)" cx="185" cy="95" r="5"></circle>
                    <circle id="Oval-2-Copy-65" fill="#671411" mask="url(#mask-2)" cx="165" cy="95" r="5"></circle>
                    <circle id="Oval-2-Copy-64" fill="#671411" mask="url(#mask-2)" cx="145" cy="95" r="5"></circle>
                    <circle id="Oval-2-Copy-63" fill="#671411" mask="url(#mask-2)" cx="125" cy="95" r="5"></circle>
                    <circle id="Oval-2-Copy-62" fill="#671411" mask="url(#mask-2)" cx="105" cy="95" r="5"></circle>
                    <circle id="Oval-2-Copy-61" fill="#671411" mask="url(#mask-2)" cx="85" cy="95" r="5"></circle>
                    <circle id="Oval-2-Copy-60" fill="#671411" mask="url(#mask-2)" cx="65" cy="95" r="5"></circle>
                    <circle id="Oval-2-Copy-59" fill="#671411" mask="url(#mask-2)" cx="45" cy="95" r="5"></circle>
                    <circle id="Oval-2-Copy-58" fill="#671411" mask="url(#mask-2)" cx="25" cy="95" r="5"></circle>
                    <circle id="Oval-2-Copy-57" fill="#671411" mask="url(#mask-2)" cx="5" cy="95" r="5"></circle>
                    <circle id="Oval-2-Copy-94" fill="#671411" mask="url(#mask-2)" cx="175" cy="140" r="5"></circle>
                    <circle id="Oval-2-Copy-93" fill="#671411" mask="url(#mask-2)" cx="155" cy="140" r="5"></circle>
                    <circle id="Oval-2-Copy-92" fill="#671411" mask="url(#mask-2)" cx="135" cy="140" r="5"></circle>
                    <circle id="Oval-2-Copy-91" fill="#671411" mask="url(#mask-2)" cx="115" cy="140" r="5"></circle>
                    <circle id="Oval-2-Copy-90" fill="#671411" mask="url(#mask-2)" cx="95" cy="140" r="5"></circle>
                    <circle id="Oval-2-Copy-89" fill="#671411" mask="url(#mask-2)" cx="75" cy="140" r="5"></circle>
                    <circle id="Oval-2-Copy-88" fill="#671411" mask="url(#mask-2)" cx="55" cy="140" r="5"></circle>
                    <circle id="Oval-2-Copy-87" fill="#671411" mask="url(#mask-2)" cx="35" cy="140" r="5"></circle>
                    <circle id="Oval-2-Copy-86" fill="#671411" mask="url(#mask-2)" cx="15" cy="140" r="5"></circle>
                    <circle id="Oval-2-Copy-85" fill="#671411" mask="url(#mask-2)" cx="185" cy="125" r="5"></circle>
                    <circle id="Oval-2-Copy-84" fill="#671411" mask="url(#mask-2)" cx="165" cy="125" r="5"></circle>
                    <circle id="Oval-2-Copy-83" fill="#671411" mask="url(#mask-2)" cx="145" cy="125" r="5"></circle>
                    <circle id="Oval-2-Copy-82" fill="#671411" mask="url(#mask-2)" cx="125" cy="125" r="5"></circle>
                    <circle id="Oval-2-Copy-81" fill="#671411" mask="url(#mask-2)" cx="105" cy="125" r="5"></circle>
                    <circle id="Oval-2-Copy-80" fill="#671411" mask="url(#mask-2)" cx="85" cy="125" r="5"></circle>
                    <circle id="Oval-2-Copy-79" fill="#671411" mask="url(#mask-2)" cx="65" cy="125" r="5"></circle>
                    <circle id="Oval-2-Copy-78" fill="#671411" mask="url(#mask-2)" cx="45" cy="125" r="5"></circle>
                    <circle id="Oval-2-Copy-77" fill="#671411" mask="url(#mask-2)" cx="25" cy="125" r="5"></circle>
                    <circle id="Oval-2-Copy-76" fill="#671411" mask="url(#mask-2)" cx="5" cy="125" r="5"></circle>
                    <circle id="Oval-2-Copy-113" fill="#671411" mask="url(#mask-2)" cx="175" cy="170" r="5"></circle>
                    <circle id="Oval-2-Copy-112" fill="#671411" mask="url(#mask-2)" cx="155" cy="170" r="5"></circle>
                    <circle id="Oval-2-Copy-111" fill="#671411" mask="url(#mask-2)" cx="135" cy="170" r="5"></circle>
                    <circle id="Oval-2-Copy-110" fill="#671411" mask="url(#mask-2)" cx="115" cy="170" r="5"></circle>
                    <circle id="Oval-2-Copy-109" fill="#671411" mask="url(#mask-2)" cx="95" cy="170" r="5"></circle>
                    <circle id="Oval-2-Copy-108" fill="#671411" mask="url(#mask-2)" cx="75" cy="170" r="5"></circle>
                    <circle id="Oval-2-Copy-107" fill="#671411" mask="url(#mask-2)" cx="55" cy="170" r="5"></circle>
                    <circle id="Oval-2-Copy-106" fill="#671411" mask="url(#mask-2)" cx="35" cy="170" r="5"></circle>
                    <circle id="Oval-2-Copy-105" fill="#671411" mask="url(#mask-2)" cx="15" cy="170" r="5"></circle>
                    <circle id="Oval-2-Copy-104" fill="#671411" mask="url(#mask-2)" cx="185" cy="155" r="5"></circle>
                    <circle id="Oval-2-Copy-103" fill="#671411" mask="url(#mask-2)" cx="165" cy="155" r="5"></circle>
                    <circle id="Oval-2-Copy-102" fill="#671411" mask="url(#mask-2)" cx="145" cy="155" r="5"></circle>
                    <circle id="Oval-2-Copy-101" fill="#671411" mask="url(#mask-2)" cx="125" cy="155" r="5"></circle>
                    <circle id="Oval-2-Copy-100" fill="#671411" mask="url(#mask-2)" cx="105" cy="155" r="5"></circle>
                    <circle id="Oval-2-Copy-99" fill="#671411" mask="url(#mask-2)" cx="85" cy="155" r="5"></circle>
                    <circle id="Oval-2-Copy-98" fill="#671411" mask="url(#mask-2)" cx="65" cy="155" r="5"></circle>
                    <circle id="Oval-2-Copy-97" fill="#671411" mask="url(#mask-2)" cx="45" cy="155" r="5"></circle>
                    <circle id="Oval-2-Copy-96" fill="#671411" mask="url(#mask-2)" cx="25" cy="155" r="5"></circle>
                    <circle id="Oval-2-Copy-95" fill="#671411" mask="url(#mask-2)" cx="5" cy="155" r="5"></circle>
                    <circle id="Oval-2-Copy-123" fill="#671411" mask="url(#mask-2)" cx="185" cy="185" r="5"></circle>
                    <circle id="Oval-2-Copy-122" fill="#671411" mask="url(#mask-2)" cx="165" cy="185" r="5"></circle>
                    <circle id="Oval-2-Copy-121" fill="#671411" mask="url(#mask-2)" cx="145" cy="185" r="5"></circle>
                    <circle id="Oval-2-Copy-120" fill="#671411" mask="url(#mask-2)" cx="125" cy="185" r="5"></circle>
                    <circle id="Oval-2-Copy-119" fill="#671411" mask="url(#mask-2)" cx="105" cy="185" r="5"></circle>
                    <circle id="Oval-2-Copy-118" fill="#671411" mask="url(#mask-2)" cx="85" cy="185" r="5"></circle>
                    <circle id="Oval-2-Copy-117" fill="#671411" mask="url(#mask-2)" cx="65" cy="185" r="5"></circle>
                    <circle id="Oval-2-Copy-116" fill="#671411" mask="url(#mask-2)" cx="45" cy="185" r="5"></circle>
                    <circle id="Oval-2-Copy-115" fill="#671411" mask="url(#mask-2)" cx="25" cy="185" r="5"></circle>
                    <circle id="Oval-2-Copy-114" fill="#671411" mask="url(#mask-2)" cx="5" cy="185" r="5"></circle>
                </g>
                <g id="Insta" transform="translate(25.000000, 27.000000)">
                    <path d="M30.0028125,0 C21.8552277,0 20.832717,0.035625 17.6326837,0.18125 C14.4389004,0.3275 12.2588777,0.833125 10.3513578,1.575 C8.37821227,2.34125 6.70444484,3.36625 5.03692747,5.034375 C3.36816009,6.701875 2.34314941,8.375625 1.5743914,10.348125 C0.830633652,12.25625 0.324378379,14.436875 0.180626882,17.629375 C0.0375003906,20.829375 0,21.8525 0,30 C0,38.1475 0.0362503776,39.166875 0.181251888,42.366875 C0.328128418,45.560625 0.833758685,47.740625 1.57501641,49.648125 C2.34189939,51.62125 3.36691007,53.295 5.03505245,54.9625 C6.70194481,56.63125 8.37571225,57.65875 10.3476078,58.425 C12.2563777,59.166875 14.4370254,59.6725 17.6301836,59.81875 C20.830217,59.964375 21.8521026,60 29.9990625,60 C38.1472724,60 39.166658,59.964375 42.3666913,59.81875 C45.5604746,59.6725 47.7429973,59.166875 49.6517672,58.425 C51.6242878,57.65875 53.2955552,56.63125 54.9624475,54.9625 C56.6312149,53.295 57.6562256,51.62125 58.4249836,49.64875 C59.1624913,47.740625 59.6687465,45.56 59.8187481,42.3675 C59.9624996,39.1675 60,38.1475 60,30 C60,21.8525 59.9624996,20.83 59.8187481,17.63 C59.6687465,14.43625 59.1624913,12.25625 58.4249836,10.34875 C57.6562256,8.375625 56.6312149,6.701875 54.9624475,5.034375 C53.2936801,3.365625 51.6249128,2.340625 49.6498922,1.575 C47.7373723,0.833125 45.5560995,0.3275 42.3623163,0.18125 C39.1622829,0.035625 38.1435223,8.8817842e-15 29.9934374,8.8817842e-15 L30.0028125,0 Z" id="Path" fill="url(#radialGradient-3)"></path>
                    <g id="Shape">
                        <use fill="#210607" fill-rule="evenodd" xlink:href="#path-4"></use>
                        <path d="M30.0028125,0 C21.8552277,0 20.832717,0.035625 17.6326837,0.18125 C14.4389004,0.3275 12.2588777,0.833125 10.3513578,1.575 C8.37821227,2.34125 6.70444484,3.36625 5.03692747,5.034375 C3.36816009,6.701875 2.34314941,8.375625 1.5743914,10.348125 C0.830633652,12.25625 0.324378379,14.436875 0.180626882,17.629375 C0.0375003906,20.829375 0,21.8525 0,30 C0,38.1475 0.0362503776,39.166875 0.181251888,42.366875 C0.328128418,45.560625 0.833758685,47.740625 1.57501641,49.648125 C2.34189939,51.62125 3.36691007,53.295 5.03505245,54.9625 C6.70194481,56.63125 8.37571225,57.65875 10.3476078,58.425 C12.2563777,59.166875 14.4370254,59.6725 17.6301836,59.81875 C20.830217,59.964375 21.8521026,60 29.9990625,60 C38.1472724,60 39.166658,59.964375 42.3666913,59.81875 C45.5604746,59.6725 47.7429973,59.166875 49.6517672,58.425 C51.6242878,57.65875 53.2955552,56.63125 54.9624475,54.9625 C56.6312149,53.295 57.6562256,51.62125 58.4249836,49.64875 C59.1624913,47.740625 59.6687465,45.56 59.8187481,42.3675 C59.9624996,39.1675 60,38.1475 60,30 C60,21.8525 59.9624996,20.83 59.8187481,17.63 C59.6687465,14.43625 59.1624913,12.25625 58.4249836,10.34875 C57.6562256,8.375625 56.6312149,6.701875 54.9624475,5.034375 C53.2936801,3.365625 51.6249128,2.340625 49.6498922,1.575 C47.7373723,0.833125 45.5560995,0.3275 42.3623163,0.18125 C39.1622829,0.035625 38.1435223,8.8817842e-15 29.9934374,8.8817842e-15 L30.0028125,0 Z M27.3115345,5.40625 C28.1102928,5.405 29.0015521,5.40625 30.0028125,5.40625 C38.012896,5.40625 38.9622809,5.435 42.1254388,5.57875 C45.0504693,5.7125 46.6379858,6.20125 47.6954968,6.611875 C49.0955114,7.155625 50.0936468,7.805625 51.1430327,8.855625 C52.1930437,9.905625 52.8430504,10.905625 53.3880561,12.305625 C53.7986854,13.361875 54.2880655,14.949375 54.4211919,17.874375 C54.5649434,21.036875 54.5961937,21.986875 54.5961937,29.993125 C54.5961937,37.999375 54.5649434,38.949375 54.4211919,42.111875 C54.2874405,45.036875 53.7986854,46.624375 53.3880561,47.680625 C52.8443005,49.080625 52.1930437,50.0775 51.1430327,51.126875 C50.0930218,52.176875 49.0961364,52.826875 47.6954968,53.370625 C46.6392358,53.783125 45.0504693,54.270625 42.1254388,54.404375 C38.9629059,54.548125 38.012896,54.579375 30.0028125,54.579375 C21.9921041,54.579375 21.0427192,54.548125 17.8801863,54.404375 C14.9551558,54.269375 13.3676392,53.780625 12.3095032,53.37 C10.9094886,52.82625 9.90947822,52.17625 8.85946729,51.12625 C7.80945635,50.07625 7.15944958,49.07875 6.6144439,47.678125 C6.20381462,46.621875 5.71443453,45.034375 5.58130814,42.109375 C5.43755664,38.946875 5.40880634,37.996875 5.40880634,29.985625 C5.40880634,21.974375 5.43755664,21.029375 5.58130814,17.866875 C5.71505953,14.941875 6.20381462,13.354375 6.6144439,12.296875 C7.15819956,10.896875 7.80945635,9.896875 8.85946729,8.846875 C9.90947822,7.796875 10.9094886,7.146875 12.3095032,6.601875 C13.3670142,6.189375 14.9551558,5.701875 17.8801863,5.5675 C20.6477151,5.4425 21.7202263,5.405 27.3115345,5.39875 L27.3115345,5.40625 Z M45.5,10.0012153 C43.5677083,10.0012153 42,11.5671007 42,13.5 C42,15.4322917 43.5677083,17 45.5,17 C47.4322917,17 49,15.4322917 49,13.5 C49,11.5677083 47.4322917,10 45.5,10 L45.5,10.0012153 Z M30.5012577,15 C21.9406646,15 15,21.9408054 15,30.5015722 C15,39.062339 21.9406646,46 30.5012577,46 C39.0618509,46 46,39.062339 46,30.5015722 C46,21.9408054 39.061222,15 30.5006289,15 L30.5012577,15 Z M30.5027084,20 C36.3013334,20 41.0027084,24.7007187 41.0027084,30.5 C41.0027084,36.298625 36.3013334,41 30.5027084,41 C24.7034271,41 20.0027084,36.298625 20.0027084,30.5 C20.0027084,24.7007187 24.7034271,20 30.5027084,20 L30.5027084,20 Z"></path>
                    </g>
                    <path d="M46,30.5015722 C46,39.062339 39.0618509,46 30.5012577,46 C21.9406646,46 15,39.062339 15,30.5015722 C15,21.941015 21.9403247,15.0003399 30.5006289,15 C39.0615618,15.0003399 46,21.941015 46,30.5015722 Z M44,30.5015722 C44,23.0449306 37.9562083,17 30.5006289,17 C23.0449032,17.0003399 17,23.0455754 17,30.5015722 C17,37.9570534 23.0445178,44 30.5012577,44 C37.9574173,44 44,37.9576335 44,30.5015722 Z" id="Path" fill="#EE2E31" fill-rule="nonzero"></path>
                    <path d="M30.0028125,0 L29.9934374,8.8817842e-15 C29.9950005,8.8817842e-15 29.9965633,1.31031443e-09 29.9981258,3.93145016e-09 C29.9996867,1.31109953e-09 30.0012495,0 30.0028125,0 Z M53.5487713,53.5477493 C54.9479722,52.1496111 55.8529913,50.7404178 56.5594786,48.9277153 C57.2881092,47.0425576 57.6911968,45.0352286 57.8207631,42.2777458 C57.9793214,38.7481354 58,37.4826213 58,30 C58,22.5165568 57.9792905,21.2486759 57.8209504,17.723831 C57.6912029,14.9613196 57.2882062,12.9545758 56.5614314,11.0748169 C55.8530118,9.256559 54.9480731,7.84736474 53.5482413,6.44859593 C52.1449666,5.0453358 50.7389474,4.14219502 48.9265944,3.43962873 C47.0409561,2.70818123 45.0345545,2.30571318 42.2713957,2.17918229 C38.7822091,2.0203987 37.5266659,2.0000169 30.0028125,2.00000001 C22.4706168,2.00001694 21.2117877,2.02044435 17.724172,2.17915638 C14.9603323,2.30571836 12.9551749,2.70825568 11.0753603,3.43935524 C9.2597483,4.14442875 7.85040676,5.048813 6.4506037,6.44912569 C5.05140279,7.84726395 4.14638372,9.25645723 3.43783635,11.0744672 C2.70547607,12.9533517 2.30294346,14.9579168 2.17862937,17.7187397 C2.0206686,21.2504024 2,22.5195238 2,30 C2,37.5140636 2.0204557,38.7730168 2.17914027,42.2749946 C2.30624504,45.0388185 2.70884119,47.0442272 3.43916722,48.9235964 C4.14506475,50.7398109 5.04959526,52.1491546 6.45005337,53.5490742 C7.84980094,54.9503817 9.25993988,55.8566559 11.0721403,56.5608507 C12.9525394,57.2916989 14.9583048,57.6942785 17.7211042,57.8208177 C21.2108963,57.9796289 22.4686954,58 29.9990625,58 C37.5297375,58 38.7853122,57.9796592 42.275203,57.8208436 C45.0396993,57.6942516 47.0474521,57.2914593 48.9275654,56.5607222 C50.7379525,55.857455 52.1463486,54.9517337 53.5487713,53.5477493 Z M29.9934374,1.57374673e-08 L29.9934374,2 L30.0028125,1.57278244e-08 C38.1443042,2.73451392e-05 39.1635104,0.0356808566 42.3623163,0.18125 C45.5560995,0.3275 47.7373723,0.833125 49.6498922,1.575 C51.6249128,2.340625 53.2936801,3.365625 54.9624475,5.034375 C56.6312149,6.701875 57.6562256,8.375625 58.4249836,10.34875 C59.1624913,12.25625 59.6687465,14.43625 59.8187481,17.63 C59.9624996,20.83 60,21.8525 60,30 C60,38.1475 59.9624996,39.1675 59.8187481,42.3675 C59.6687465,45.56 59.1624913,47.740625 58.4249836,49.64875 C57.6562256,51.62125 56.6312149,53.295 54.9624475,54.9625 C53.2955552,56.63125 51.6242878,57.65875 49.6517672,58.425 C47.7429973,59.166875 45.5604746,59.6725 42.3666913,59.81875 C39.166658,59.964375 38.1472724,60 29.9990625,60 C21.8521026,60 20.830217,59.964375 17.6301836,59.81875 C14.4370254,59.6725 12.2563777,59.166875 10.3476078,58.425 C8.37571225,57.65875 6.70194481,56.63125 5.03505245,54.9625 C3.36691007,53.295 2.34189939,51.62125 1.57501641,49.648125 C0.833758685,47.740625 0.328128418,45.560625 0.181251888,42.366875 C0.0362503776,39.166875 0,38.1475 0,30 C0,21.8525 0.0375003906,20.829375 0.180626882,17.629375 C0.324378379,14.436875 0.830633652,12.25625 1.5743914,10.348125 C2.34314941,8.375625 3.36816009,6.701875 5.03692747,5.034375 C6.70444484,3.36625 8.37821227,2.34125 10.3513578,1.575 C12.2588777,0.833125 14.4389004,0.3275 17.6326837,0.18125 C20.8314892,0.0356808737 21.8544427,2.73535324e-05 29.9934374,1.57374673e-08 Z" id="Path" fill="#EE2E31" fill-rule="nonzero"></path>
                    <path d="M45.5,10.0012153 C43.5677083,10.0012153 42,11.5671007 42,13.5 C42,15.4322917 43.5677083,17 45.5,17 C47.4322917,17 49,15.4322917 49,13.5 C49,11.5677083 47.4322917,10 45.5,10 L45.5,10.0012153 Z" id="Path" fill="#EE2E31"></path>
                </g>
                <g id="Shape">
                    <use fill="url(#linearGradient-5)" fill-rule="evenodd" xlink:href="#path-6"></use>
                    <path stroke="#EE2E31" stroke-width="2" d="M121.725913,140.74831 C121.734496,140.735833 121.743164,140.722968 121.751922,140.709706 L121.627911,140.862393 C121.666407,140.823529 121.698728,140.785535 121.725913,140.74831 Z M122.001497,141.376412 C122.066618,141.691285 122.151778,142.049854 122.25217,142.429926 C122.597375,143.736821 123.053351,145.047585 123.411755,145.733201 C124.461554,147.77135 126.657595,149.8367 129.060059,151.049768 L135.105091,153.914367 L130.834233,153.988706 L128.230504,154.033876 C127.666422,154.033876 127.259567,154.039152 126.976064,154.048067 C127.920696,156.545871 131.071733,159.255701 134.573953,160.46106 L139.37855,162.103986 L137.528487,163.210803 L135.109173,164.65808 C131.392625,166.815532 127.035157,168.030763 122.678957,168.124334 C122.476919,168.128867 122.276529,168.13486 122.079711,168.142166 C122.227248,168.212079 122.379184,168.283123 122.534893,168.354984 C124.385649,169.209135 126.458829,170.03962 127.900645,170.490663 C137.152107,173.340877 148.140014,172.09612 156.349797,167.254012 C162.187683,163.805098 168.058537,156.902932 170.784148,150.263994 C172.267248,146.696936 173.739759,140.16759 173.739759,137.142437 C173.739759,134.748315 174.011882,134.247607 176.671123,131.610905 C177.221986,131.071626 177.791585,130.478834 178.282218,129.947165 C176.440457,130.58187 175.562594,130.767511 174.941828,130.552374 C174.005761,130.227965 173.939561,129.359132 174.350066,128.610908 C174.549425,128.247536 174.895937,127.815147 175.445156,127.221326 C176.020943,126.621281 176.667859,125.760207 177.189927,124.974822 C176.293183,125.357918 175.146877,125.773981 174.150818,126.07559 L171.279647,126.988121 L170.877706,126.714838 L168.69661,125.231876 C167.533449,124.449019 165.932432,123.608003 165.197594,123.38515 C163.128312,122.811679 159.857945,122.889979 158.002679,123.541397 C152.832805,125.42035 149.594313,130.241017 149.96324,135.496776 L149.963861,135.506265 L150.170262,138.909728 L148.979202,138.765434 L146.743323,138.494542 C138.432216,137.434193 131.135767,133.838084 124.939108,127.767488 L123.119978,125.958787 L122.891763,126.609207 C121.395527,131.098881 122.360514,135.786574 125.435158,138.932234 C125.936888,139.464088 126.277027,139.875964 126.484328,140.219472 C126.899411,140.907283 126.978,141.63882 126.211927,142.116023 C125.543756,142.532242 124.695514,142.333999 122.694317,141.601633 C122.440351,141.516168 122.208762,141.440836 122.001497,141.376412 Z"></path>
                </g>
                <g id="Shape">
                    <use fill="#210607" fill-rule="evenodd" xlink:href="#path-7"></use>
                    <path stroke="#EE2E31" stroke-width="2" d="M57.227395,178.639346 L57.227395,142.815479 L67.2168859,142.815479 L68.3150749,132.470376 L57.2246722,132.470376 L57.2273987,131.467657 L57.2441963,125.291533 C57.2441963,120.897492 58.4617792,119.346501 63.1746723,119.346501 L68.3568437,119.346501 L68.3568437,109 L59.4664895,109 C48.8172542,109 44.4051647,113.805675 44.4051647,124.059819 L44.4051647,132.471774 L37,132.471774 L37,142.816877 L44.4051647,142.816877 L44.4051647,178.639346 L57.227395,178.639346 Z"></path>
                </g>
                <g id="Shape">
                    <use fill="#210607" fill-rule="evenodd" xlink:href="#path-8"></use>
                    <path stroke="#EE2E31" stroke-width="2" d="M132.098108,46.2799141 L120.787112,46.2799141 L120.787112,84.2739302 L132.098108,84.2739302 L132.098108,46.2799141 Z M132.974795,32.9191291 C132.892314,29.4075542 130.394703,27 126.530599,27 C122.613645,27 120,29.4612489 120,32.9081514 C120,36.3188618 122.56765,38.8210809 126.357811,38.8210809 L126.442876,38.8210809 C130.378773,38.8210809 132.96927,36.3431816 132.974795,32.9191291 Z M152.778611,46.2809759 L141.493897,46.2809759 C141.543757,49.0052406 141.554383,55.6437086 141.535196,65.1235241 C141.528382,68.4899287 141.517998,72.0717642 141.505002,75.7436747 C141.496473,78.1537225 141.487334,80.4581434 141.478195,82.5773978 C141.475516,83.1985995 141.472998,83.766411 141.470684,84.274992 L152.778611,84.274992 L152.778611,62.9390338 C152.778611,61.3916283 152.916076,60.2295909 153.289403,59.3219016 C154.599999,56.068764 157.347491,53.8353276 161.046839,53.8353276 C166.228965,53.8353276 168.791654,57.5914804 168.791654,63.877109 L168.791654,84.2739302 L180.102141,84.2739302 L180.10265,62.3425604 L180.10265,62.3425836 C180.10265,51.2919337 174.609765,45.3407771 165.776689,45.3407771 C160.319774,45.3407771 157.212779,47.4897119 154.617531,51.4900482 L152.778611,54.3245731 L152.778611,46.2809759 Z"></path>
                </g>
            </g>
        </g>
    </g>
</svg>