<?xml version="1.0" encoding="UTF-8"?>
<svg width="190px" height="190px" viewBox="0 0 190 190" version="1.1" xmlns="http://www.w3.org/2000/svg" xmlns:xlink="http://www.w3.org/1999/xlink">
    <!-- Generator: Sketch 47.1 (45422) - http://www.bohemiancoding.com/sketch -->
    <title>Websites</title>
    <desc>Created with Sketch.</desc>
    <defs>
        <circle id="path-1" cx="95" cy="95" r="95"></circle>
        <rect id="path-3" x="0" y="0" width="40" height="70" rx="4"></rect>
        <rect id="path-4" x="0" y="0" width="120" height="70" rx="4"></rect>
        <polygon id="path-5" points="48 68 72 68 74 85 46 85"></polygon>
        <rect id="path-6" x="0" y="0" width="60" height="80" rx="4"></rect>
    </defs>
    <g id="Desktop" stroke="none" stroke-width="1" fill="none" fill-rule="evenodd">
        <g id="Main-Page" transform="translate(-195.000000, -1845.000000)">
            <g id="Websites" transform="translate(190.000000, 1840.000000)">
                <rect id="Rectangle-3" fill="#D8D8D8" opacity="0" x="0" y="0" width="200" height="200"></rect>
                <g id="BG-Texture" transform="translate(5.000000, 5.000000)">
                    <mask id="mask-2" fill="white">
                        <use xlink:href="#path-1"></use>
                    </mask>
                    <g id="Oval-3"></g>
                    <circle id="Oval-2-Copy-19" fill="#671411" mask="url(#mask-2)" cx="175" cy="20" r="5"></circle>
                    <circle id="Oval-2-Copy-20" fill="#671411" mask="url(#mask-2)" cx="175" cy="50" r="5"></circle>
                    <circle id="Oval-2-Copy-18" fill="#671411" mask="url(#mask-2)" cx="155" cy="20" r="5"></circle>
                    <circle id="Oval-2-Copy-21" fill="#671411" mask="url(#mask-2)" cx="155" cy="50" r="5"></circle>
                    <circle id="Oval-2-Copy-17" fill="#671411" mask="url(#mask-2)" cx="135" cy="20" r="5"></circle>
                    <circle id="Oval-2-Copy-22" fill="#671411" mask="url(#mask-2)" cx="135" cy="50" r="5"></circle>
                    <circle id="Oval-2-Copy-16" fill="#671411" mask="url(#mask-2)" cx="115" cy="20" r="5"></circle>
                    <circle id="Oval-2-Copy-23" fill="#671411" mask="url(#mask-2)" cx="115" cy="50" r="5"></circle>
                    <circle id="Oval-2-Copy-15" fill="#671411" mask="url(#mask-2)" cx="95" cy="20" r="5"></circle>
                    <circle id="Oval-2-Copy-24" fill="#671411" mask="url(#mask-2)" cx="95" cy="50" r="5"></circle>
                    <circle id="Oval-2-Copy-14" fill="#671411" mask="url(#mask-2)" cx="75" cy="20" r="5"></circle>
                    <circle id="Oval-2-Copy-25" fill="#671411" mask="url(#mask-2)" cx="75" cy="50" r="5"></circle>
                    <circle id="Oval-2-Copy-13" fill="#671411" mask="url(#mask-2)" cx="55" cy="20" r="5"></circle>
                    <circle id="Oval-2-Copy-26" fill="#671411" mask="url(#mask-2)" cx="55" cy="50" r="5"></circle>
                    <circle id="Oval-2-Copy-12" fill="#671411" mask="url(#mask-2)" cx="35" cy="20" r="5"></circle>
                    <circle id="Oval-2-Copy-27" fill="#671411" mask="url(#mask-2)" cx="35" cy="50" r="5"></circle>
                    <circle id="Oval-2-Copy-11" fill="#671411" mask="url(#mask-2)" cx="15" cy="20" r="5"></circle>
                    <circle id="Oval-2-Copy-28" fill="#671411" mask="url(#mask-2)" cx="15" cy="50" r="5"></circle>
                    <circle id="Oval-2-Copy-10" fill="#671411" mask="url(#mask-2)" cx="185" cy="5" r="5"></circle>
                    <circle id="Oval-2-Copy-29" fill="#671411" mask="url(#mask-2)" cx="185" cy="35" r="5"></circle>
                    <circle id="Oval-2-Copy-9" fill="#671411" mask="url(#mask-2)" cx="165" cy="5" r="5"></circle>
                    <circle id="Oval-2-Copy-30" fill="#671411" mask="url(#mask-2)" cx="165" cy="35" r="5"></circle>
                    <circle id="Oval-2-Copy-8" fill="#671411" mask="url(#mask-2)" cx="145" cy="5" r="5"></circle>
                    <circle id="Oval-2-Copy-31" fill="#671411" mask="url(#mask-2)" cx="145" cy="35" r="5"></circle>
                    <circle id="Oval-2-Copy-7" fill="#671411" mask="url(#mask-2)" cx="125" cy="5" r="5"></circle>
                    <circle id="Oval-2-Copy-32" fill="#671411" mask="url(#mask-2)" cx="125" cy="35" r="5"></circle>
                    <circle id="Oval-2-Copy-6" fill="#671411" mask="url(#mask-2)" cx="105" cy="5" r="5"></circle>
                    <circle id="Oval-2-Copy-33" fill="#671411" mask="url(#mask-2)" cx="105" cy="35" r="5"></circle>
                    <circle id="Oval-2-Copy-5" fill="#671411" mask="url(#mask-2)" cx="85" cy="5" r="5"></circle>
                    <circle id="Oval-2-Copy-34" fill="#671411" mask="url(#mask-2)" cx="85" cy="35" r="5"></circle>
                    <circle id="Oval-2-Copy-4" fill="#671411" mask="url(#mask-2)" cx="65" cy="5" r="5"></circle>
                    <circle id="Oval-2-Copy-35" fill="#671411" mask="url(#mask-2)" cx="65" cy="35" r="5"></circle>
                    <circle id="Oval-2-Copy-3" fill="#671411" mask="url(#mask-2)" cx="45" cy="5" r="5"></circle>
                    <circle id="Oval-2-Copy-36" fill="#671411" mask="url(#mask-2)" cx="45" cy="35" r="5"></circle>
                    <circle id="Oval-2-Copy" fill="#671411" mask="url(#mask-2)" cx="25" cy="5" r="5"></circle>
                    <circle id="Oval-2-Copy-2" fill="#671411" mask="url(#mask-2)" cx="25" cy="35" r="5"></circle>
                    <circle id="Oval-2" fill="#671411" mask="url(#mask-2)" cx="5" cy="5" r="5"></circle>
                    <circle id="Oval-2-Copy-37" fill="#671411" mask="url(#mask-2)" cx="5" cy="35" r="5"></circle>
                    <circle id="Oval-2-Copy-56" fill="#671411" mask="url(#mask-2)" cx="175" cy="80" r="5"></circle>
                    <circle id="Oval-2-Copy-55" fill="#671411" mask="url(#mask-2)" cx="155" cy="80" r="5"></circle>
                    <circle id="Oval-2-Copy-54" fill="#671411" mask="url(#mask-2)" cx="135" cy="80" r="5"></circle>
                    <circle id="Oval-2-Copy-53" fill="#671411" mask="url(#mask-2)" cx="115" cy="80" r="5"></circle>
                    <circle id="Oval-2-Copy-52" fill="#671411" mask="url(#mask-2)" cx="95" cy="80" r="5"></circle>
                    <circle id="Oval-2-Copy-51" fill="#671411" mask="url(#mask-2)" cx="75" cy="80" r="5"></circle>
                    <circle id="Oval-2-Copy-50" fill="#671411" mask="url(#mask-2)" cx="55" cy="80" r="5"></circle>
                    <circle id="Oval-2-Copy-49" fill="#671411" mask="url(#mask-2)" cx="35" cy="80" r="5"></circle>
                    <circle id="Oval-2-Copy-48" fill="#671411" mask="url(#mask-2)" cx="15" cy="80" r="5"></circle>
                    <circle id="Oval-2-Copy-47" fill="#671411" mask="url(#mask-2)" cx="185" cy="65" r="5"></circle>
                    <circle id="Oval-2-Copy-46" fill="#671411" mask="url(#mask-2)" cx="165" cy="65" r="5"></circle>
                    <circle id="Oval-2-Copy-45" fill="#671411" mask="url(#mask-2)" cx="145" cy="65" r="5"></circle>
                    <circle id="Oval-2-Copy-44" fill="#671411" mask="url(#mask-2)" cx="125" cy="65" r="5"></circle>
                    <circle id="Oval-2-Copy-43" fill="#671411" mask="url(#mask-2)" cx="105" cy="65" r="5"></circle>
                    <circle id="Oval-2-Copy-42" fill="#671411" mask="url(#mask-2)" cx="85" cy="65" r="5"></circle>
                    <circle id="Oval-2-Copy-41" fill="#671411" mask="url(#mask-2)" cx="65" cy="65" r="5"></circle>
                    <circle id="Oval-2-Copy-40" fill="#671411" mask="url(#mask-2)" cx="45" cy="65" r="5"></circle>
                    <circle id="Oval-2-Copy-39" fill="#671411" mask="url(#mask-2)" cx="25" cy="65" r="5"></circle>
                    <circle id="Oval-2-Copy-38" fill="#671411" mask="url(#mask-2)" cx="5" cy="65" r="5"></circle>
                    <circle id="Oval-2-Copy-75" fill="#671411" mask="url(#mask-2)" cx="175" cy="110" r="5"></circle>
                    <circle id="Oval-2-Copy-74" fill="#671411" mask="url(#mask-2)" cx="155" cy="110" r="5"></circle>
                    <circle id="Oval-2-Copy-73" fill="#671411" mask="url(#mask-2)" cx="135" cy="110" r="5"></circle>
                    <circle id="Oval-2-Copy-72" fill="#671411" mask="url(#mask-2)" cx="115" cy="110" r="5"></circle>
                    <circle id="Oval-2-Copy-71" fill="#671411" mask="url(#mask-2)" cx="95" cy="110" r="5"></circle>
                    <circle id="Oval-2-Copy-70" fill="#671411" mask="url(#mask-2)" cx="75" cy="110" r="5"></circle>
                    <circle id="Oval-2-Copy-69" fill="#671411" mask="url(#mask-2)" cx="55" cy="110" r="5"></circle>
                    <circle id="Oval-2-Copy-68" fill="#671411" mask="url(#mask-2)" cx="35" cy="110" r="5"></circle>
                    <circle id="Oval-2-Copy-67" fill="#671411" mask="url(#mask-2)" cx="15" cy="110" r="5"></circle>
                    <circle id="Oval-2-Copy-66" fill="#671411" mask="url(#mask-2)" cx="185" cy="95" r="5"></circle>
                    <circle id="Oval-2-Copy-65" fill="#671411" mask="url(#mask-2)" cx="165" cy="95" r="5"></circle>
                    <circle id="Oval-2-Copy-64" fill="#671411" mask="url(#mask-2)" cx="145" cy="95" r="5"></circle>
                    <circle id="Oval-2-Copy-63" fill="#671411" mask="url(#mask-2)" cx="125" cy="95" r="5"></circle>
                    <circle id="Oval-2-Copy-62" fill="#671411" mask="url(#mask-2)" cx="105" cy="95" r="5"></circle>
                    <circle id="Oval-2-Copy-61" fill="#671411" mask="url(#mask-2)" cx="85" cy="95" r="5"></circle>
                    <circle id="Oval-2-Copy-60" fill="#671411" mask="url(#mask-2)" cx="65" cy="95" r="5"></circle>
                    <circle id="Oval-2-Copy-59" fill="#671411" mask="url(#mask-2)" cx="45" cy="95" r="5"></circle>
                    <circle id="Oval-2-Copy-58" fill="#671411" mask="url(#mask-2)" cx="25" cy="95" r="5"></circle>
                    <circle id="Oval-2-Copy-57" fill="#671411" mask="url(#mask-2)" cx="5" cy="95" r="5"></circle>
                    <circle id="Oval-2-Copy-94" fill="#671411" mask="url(#mask-2)" cx="175" cy="140" r="5"></circle>
                    <circle id="Oval-2-Copy-93" fill="#671411" mask="url(#mask-2)" cx="155" cy="140" r="5"></circle>
                    <circle id="Oval-2-Copy-92" fill="#671411" mask="url(#mask-2)" cx="135" cy="140" r="5"></circle>
                    <circle id="Oval-2-Copy-91" fill="#671411" mask="url(#mask-2)" cx="115" cy="140" r="5"></circle>
                    <circle id="Oval-2-Copy-90" fill="#671411" mask="url(#mask-2)" cx="95" cy="140" r="5"></circle>
                    <circle id="Oval-2-Copy-89" fill="#671411" mask="url(#mask-2)" cx="75" cy="140" r="5"></circle>
                    <circle id="Oval-2-Copy-88" fill="#671411" mask="url(#mask-2)" cx="55" cy="140" r="5"></circle>
                    <circle id="Oval-2-Copy-87" fill="#671411" mask="url(#mask-2)" cx="35" cy="140" r="5"></circle>
                    <circle id="Oval-2-Copy-86" fill="#671411" mask="url(#mask-2)" cx="15" cy="140" r="5"></circle>
                    <circle id="Oval-2-Copy-85" fill="#671411" mask="url(#mask-2)" cx="185" cy="125" r="5"></circle>
                    <circle id="Oval-2-Copy-84" fill="#671411" mask="url(#mask-2)" cx="165" cy="125" r="5"></circle>
                    <circle id="Oval-2-Copy-83" fill="#671411" mask="url(#mask-2)" cx="145" cy="125" r="5"></circle>
                    <circle id="Oval-2-Copy-82" fill="#671411" mask="url(#mask-2)" cx="125" cy="125" r="5"></circle>
                    <circle id="Oval-2-Copy-81" fill="#671411" mask="url(#mask-2)" cx="105" cy="125" r="5"></circle>
                    <circle id="Oval-2-Copy-80" fill="#671411" mask="url(#mask-2)" cx="85" cy="125" r="5"></circle>
                    <circle id="Oval-2-Copy-79" fill="#671411" mask="url(#mask-2)" cx="65" cy="125" r="5"></circle>
                    <circle id="Oval-2-Copy-78" fill="#671411" mask="url(#mask-2)" cx="45" cy="125" r="5"></circle>
                    <circle id="Oval-2-Copy-77" fill="#671411" mask="url(#mask-2)" cx="25" cy="125" r="5"></circle>
                    <circle id="Oval-2-Copy-76" fill="#671411" mask="url(#mask-2)" cx="5" cy="125" r="5"></circle>
                    <circle id="Oval-2-Copy-113" fill="#671411" mask="url(#mask-2)" cx="175" cy="170" r="5"></circle>
                    <circle id="Oval-2-Copy-112" fill="#671411" mask="url(#mask-2)" cx="155" cy="170" r="5"></circle>
                    <circle id="Oval-2-Copy-111" fill="#671411" mask="url(#mask-2)" cx="135" cy="170" r="5"></circle>
                    <circle id="Oval-2-Copy-110" fill="#671411" mask="url(#mask-2)" cx="115" cy="170" r="5"></circle>
                    <circle id="Oval-2-Copy-109" fill="#671411" mask="url(#mask-2)" cx="95" cy="170" r="5"></circle>
                    <circle id="Oval-2-Copy-108" fill="#671411" mask="url(#mask-2)" cx="75" cy="170" r="5"></circle>
                    <circle id="Oval-2-Copy-107" fill="#671411" mask="url(#mask-2)" cx="55" cy="170" r="5"></circle>
                    <circle id="Oval-2-Copy-106" fill="#671411" mask="url(#mask-2)" cx="35" cy="170" r="5"></circle>
                    <circle id="Oval-2-Copy-105" fill="#671411" mask="url(#mask-2)" cx="15" cy="170" r="5"></circle>
                    <circle id="Oval-2-Copy-104" fill="#671411" mask="url(#mask-2)" cx="185" cy="155" r="5"></circle>
                    <circle id="Oval-2-Copy-103" fill="#671411" mask="url(#mask-2)" cx="165" cy="155" r="5"></circle>
                    <circle id="Oval-2-Copy-102" fill="#671411" mask="url(#mask-2)" cx="145" cy="155" r="5"></circle>
                    <circle id="Oval-2-Copy-101" fill="#671411" mask="url(#mask-2)" cx="125" cy="155" r="5"></circle>
                    <circle id="Oval-2-Copy-100" fill="#671411" mask="url(#mask-2)" cx="105" cy="155" r="5"></circle>
                    <circle id="Oval-2-Copy-99" fill="#671411" mask="url(#mask-2)" cx="85" cy="155" r="5"></circle>
                    <circle id="Oval-2-Copy-98" fill="#671411" mask="url(#mask-2)" cx="65" cy="155" r="5"></circle>
                    <circle id="Oval-2-Copy-97" fill="#671411" mask="url(#mask-2)" cx="45" cy="155" r="5"></circle>
                    <circle id="Oval-2-Copy-96" fill="#671411" mask="url(#mask-2)" cx="25" cy="155" r="5"></circle>
                    <circle id="Oval-2-Copy-95" fill="#671411" mask="url(#mask-2)" cx="5" cy="155" r="5"></circle>
                    <circle id="Oval-2-Copy-123" fill="#671411" mask="url(#mask-2)" cx="185" cy="185" r="5"></circle>
                    <circle id="Oval-2-Copy-122" fill="#671411" mask="url(#mask-2)" cx="165" cy="185" r="5"></circle>
                    <circle id="Oval-2-Copy-121" fill="#671411" mask="url(#mask-2)" cx="145" cy="185" r="5"></circle>
                    <circle id="Oval-2-Copy-120" fill="#671411" mask="url(#mask-2)" cx="125" cy="185" r="5"></circle>
                    <circle id="Oval-2-Copy-119" fill="#671411" mask="url(#mask-2)" cx="105" cy="185" r="5"></circle>
                    <circle id="Oval-2-Copy-118" fill="#671411" mask="url(#mask-2)" cx="85" cy="185" r="5"></circle>
                    <circle id="Oval-2-Copy-117" fill="#671411" mask="url(#mask-2)" cx="65" cy="185" r="5"></circle>
                    <circle id="Oval-2-Copy-116" fill="#671411" mask="url(#mask-2)" cx="45" cy="185" r="5"></circle>
                    <circle id="Oval-2-Copy-115" fill="#671411" mask="url(#mask-2)" cx="25" cy="185" r="5"></circle>
                    <circle id="Oval-2-Copy-114" fill="#671411" mask="url(#mask-2)" cx="5" cy="185" r="5"></circle>
                </g>
                <g id="Phone" transform="translate(30.000000, 20.000000)">
                    <g id="Rectangle">
                        <use fill="#210607" fill-rule="evenodd" xlink:href="#path-3"></use>
                        <rect stroke="#EE2E31" stroke-width="2" x="1" y="1" width="38" height="68" rx="4"></rect>
                    </g>
                    <path d="M8,0 L32,0 L32,4 L32,4 C32,5.1045695 31.1045695,6 30,6 L10,6 L10,6 C8.8954305,6 8,5.1045695 8,4 L8,0 Z" id="Rectangle-3" fill="#EE2E31"></path>
                    <rect id="Rectangle-4" fill="#EE2E31" x="8" y="64" width="24" height="2" rx="1"></rect>
                    <rect id="Rectangle-4-Copy" fill-opacity="0.700000048" fill="#FFFFFF" x="5" y="12" width="6" height="2" rx="1"></rect>
                    <rect id="Rectangle-4-Copy" fill-opacity="0.700000048" fill="#FFFFFF" x="13" y="12" width="11" height="2" rx="1"></rect>
                    <rect id="Rectangle-4-Copy" fill-opacity="0.700000048" fill="#FFFFFF" x="26" y="12" width="9" height="2" rx="1"></rect>
                    <rect id="Rectangle-4-Copy" fill-opacity="0.700000048" fill="#FFFFFF" x="5" y="17" width="16" height="2" rx="1"></rect>
                    <rect id="Rectangle-4-Copy" fill-opacity="0.700000048" fill="#FFFFFF" x="23" y="17" width="12" height="2" rx="1"></rect>
                    <rect id="Rectangle-4-Copy" fill-opacity="0.700000048" fill="#FFFFFF" x="5" y="22" width="11" height="2" rx="1"></rect>
                    <rect id="Rectangle-4-Copy" fill-opacity="0.700000048" fill="#FFFFFF" x="18" y="22" width="17" height="2" rx="1"></rect>
                    <rect id="Rectangle-4-Copy" fill-opacity="0.700000048" fill="#FFFFFF" x="5" y="47" width="8" height="2" rx="1"></rect>
                    <rect id="Rectangle-4-Copy" fill-opacity="0.700000048" fill="#FFFFFF" x="15" y="47" width="11" height="2" rx="1"></rect>
                    <rect id="Rectangle-4-Copy" fill-opacity="0.700000048" fill="#FFFFFF" x="28" y="47" width="7" height="2" rx="1"></rect>
                    <rect id="Rectangle-4-Copy" fill-opacity="0.700000048" fill="#FFFFFF" x="5" y="52" width="10" height="2" rx="1"></rect>
                    <rect id="Rectangle-4-Copy" fill-opacity="0.700000048" fill="#FFFFFF" x="17" y="52" width="5" height="2" rx="1"></rect>
                    <rect id="Rectangle-4-Copy" fill-opacity="0.700000048" fill="#FFFFFF" x="24" y="52" width="11" height="2" rx="1"></rect>
                    <rect id="Rectangle-4-Copy" fill-opacity="0.700000048" fill="#FFFFFF" x="5" y="57" width="14" height="2" rx="1"></rect>
                    <rect id="Rectangle-4-Copy" fill-opacity="0.700000048" fill="#FFFFFF" x="21" y="57" width="14" height="2" rx="1"></rect>
                    <rect id="Rectangle-5" fill="#EE2E31" x="5" y="27" width="30" height="17" rx="1"></rect>
                </g>
                <g id="Mac" transform="translate(40.000000, 110.000000)">
                    <g id="Rectangle-6">
                        <use fill="#210607" fill-rule="evenodd" xlink:href="#path-4"></use>
                        <rect stroke="#EE2E31" stroke-width="2" x="1" y="1" width="118" height="68" rx="4"></rect>
                    </g>
                    <rect id="Rectangle-4" fill="#EE2E31" x="1" y="58" width="119" height="2" rx="1"></rect>
                    <rect id="Rectangle-4-Copy" fill-opacity="0.700000048" fill="#FFFFFF" x="25" y="6" width="10" height="2" rx="1"></rect>
                    <path d="M61.7502457,63.0314412 C61.4091327,62.4163437 60.7531875,62 60,62 C58.8954305,62 58,62.8954305 58,64 C58,65.1045695 58.8954305,66 60,66 C60.7531875,66 61.4091327,65.5836563 61.7502457,64.9685588 C61.3188142,64.8576336 61,64.4660483 61,64 C61,63.5339517 61.3188142,63.1423664 61.7502457,63.0314412 Z" id="Combined-Shape" fill="#EE2E31"></path>
                    <rect id="Rectangle-4-Copy" fill-opacity="0.700000048" fill="#FFFFFF" x="37" y="6" width="20" height="2" rx="1"></rect>
                    <rect id="Rectangle-4-Copy" fill-opacity="0.700000048" fill="#FFFFFF" x="59" y="6" width="19" height="2" rx="1"></rect>
                    <rect id="Rectangle-4-Copy" fill-opacity="0.700000048" fill="#FFFFFF" x="80" y="6" width="15" height="2" rx="1"></rect>
                    <rect id="Rectangle-4-Copy" fill-opacity="0.700000048" fill="#FFFFFF" x="25" y="11" width="16" height="2" rx="1"></rect>
                    <rect id="Rectangle-4-Copy" fill-opacity="0.700000048" fill="#FFFFFF" x="43" y="11" width="24" height="2" rx="1"></rect>
                    <rect id="Rectangle-4-Copy" fill-opacity="0.700000048" fill="#FFFFFF" x="69" y="11" width="26" height="2" rx="1"></rect>
                    <rect id="Rectangle-4-Copy" fill-opacity="0.700000048" fill="#FFFFFF" x="25" y="16" width="11" height="2" rx="1"></rect>
                    <rect id="Rectangle-4-Copy" fill-opacity="0.700000048" fill="#FFFFFF" x="38" y="16" width="10" height="2" rx="1"></rect>
                    <rect id="Rectangle-4-Copy" fill-opacity="0.700000048" fill="#FFFFFF" x="50" y="16" width="30" height="2" rx="1"></rect>
                    <rect id="Rectangle-4-Copy" fill-opacity="0.700000048" fill="#FFFFFF" x="82" y="16" width="13" height="2" rx="1"></rect>
                    <rect id="Rectangle-4-Copy" fill-opacity="0.700000048" fill="#FFFFFF" x="63" y="21" width="32" height="2" rx="1"></rect>
                    <rect id="Rectangle-4-Copy" fill-opacity="0.700000048" fill="#FFFFFF" x="86" y="26" width="9" height="2" rx="1"></rect>
                    <rect id="Rectangle-4-Copy" fill-opacity="0.700000048" fill="#FFFFFF" x="63" y="26" width="21" height="2" rx="1"></rect>
                    <rect id="Rectangle-4-Copy" fill-opacity="0.700000048" fill="#FFFFFF" x="63" y="31" width="11" height="2" rx="1"></rect>
                    <rect id="Rectangle-4-Copy" fill-opacity="0.700000048" fill="#FFFFFF" x="76" y="31" width="19" height="2" rx="1"></rect>
                    <rect id="Rectangle-4-Copy" fill-opacity="0.700000048" fill="#FFFFFF" x="82" y="36" width="13" height="2" rx="1"></rect>
                    <rect id="Rectangle-4-Copy" fill-opacity="0.700000048" fill="#FFFFFF" x="63" y="36" width="17" height="2" rx="1"></rect>
                    <rect id="Rectangle-4-Copy" fill-opacity="0.700000048" fill="#FFFFFF" x="25" y="41" width="17" height="2" rx="1"></rect>
                    <rect id="Rectangle-4-Copy" fill-opacity="0.700000048" fill="#FFFFFF" x="44" y="41" width="32" height="2" rx="1"></rect>
                    <rect id="Rectangle-4-Copy" fill-opacity="0.700000048" fill="#FFFFFF" x="78" y="41" width="17" height="2" rx="1"></rect>
                    <rect id="Rectangle-4-Copy" fill-opacity="0.700000048" fill="#FFFFFF" x="25" y="46" width="19" height="2" rx="1"></rect>
                    <rect id="Rectangle-4-Copy" fill-opacity="0.700000048" fill="#FFFFFF" x="46" y="46" width="26" height="2" rx="1"></rect>
                    <rect id="Rectangle-4-Copy" fill-opacity="0.700000048" fill="#FFFFFF" x="74" y="46" width="21" height="2" rx="1"></rect>
                    <rect id="Rectangle-4-Copy" fill-opacity="0.700000048" fill="#FFFFFF" x="34" y="51" width="35" height="2" rx="1"></rect>
                    <rect id="Rectangle-4-Copy" fill-opacity="0.700000048" fill="#FFFFFF" x="25" y="51" width="7" height="2" rx="1"></rect>
                    <rect id="Rectangle-4-Copy" fill-opacity="0.700000048" fill="#FFFFFF" x="71" y="51" width="24" height="2" rx="1"></rect>
                    <rect id="Rectangle-5" fill="#EE2E31" x="25" y="21" width="35" height="17" rx="1"></rect>
                    <g id="Rectangle-10">
                        <use fill="#210607" fill-rule="evenodd" xlink:href="#path-5"></use>
                        <path stroke="#EE2E31" stroke-width="2" d="M48.8892496,69 L47.1245437,84 L72.8754563,84 L71.1107504,69 L48.8892496,69 Z"></path>
                    </g>
                    <rect id="Rectangle-11" fill="#EE2E31" x="43" y="83" width="34" height="2" rx="1"></rect>
                </g>
                <g id="Tablet" transform="translate(130.000000, 10.000000)">
                    <g id="Rectangle-2">
                        <use fill="#210607" fill-rule="evenodd" xlink:href="#path-6"></use>
                        <rect stroke="#EE2E31" stroke-width="2" x="1" y="1" width="58" height="78" rx="4"></rect>
                    </g>
                    <rect id="Rectangle-4" fill="#EE2E31" x="0" y="68" width="60" height="2" rx="1"></rect>
                    <rect id="Rectangle-4" fill="#EE2E31" x="0" y="7" width="60" height="2" rx="1"></rect>
                    <rect id="Rectangle-4-Copy" fill-opacity="0.700000048" fill="#FFFFFF" x="5" y="13" width="10" height="2" rx="1"></rect>
                    <rect id="Rectangle-4-Copy" fill-opacity="0.700000048" fill="#FFFFFF" x="17" y="13" width="20" height="2" rx="1"></rect>
                    <rect id="Rectangle-4-Copy" fill-opacity="0.700000048" fill="#FFFFFF" x="39" y="13" width="16" height="2" rx="1"></rect>
                    <rect id="Rectangle-4-Copy" fill-opacity="0.700000048" fill="#FFFFFF" x="5" y="18" width="16" height="2" rx="1"></rect>
                    <rect id="Rectangle-4-Copy" fill-opacity="0.700000048" fill="#FFFFFF" x="23" y="18" width="24" height="2" rx="1"></rect>
                    <rect id="Rectangle-4-Copy" fill-opacity="0.700000048" fill="#FFFFFF" x="49" y="18" width="6" height="2" rx="1"></rect>
                    <rect id="Rectangle-4-Copy" fill-opacity="0.700000048" fill="#FFFFFF" x="5" y="23" width="11" height="2" rx="1"></rect>
                    <rect id="Rectangle-4-Copy" fill-opacity="0.700000048" fill="#FFFFFF" x="18" y="23" width="10" height="2" rx="1"></rect>
                    <rect id="Rectangle-4-Copy" fill-opacity="0.700000048" fill="#FFFFFF" x="30" y="23" width="25" height="2" rx="1"></rect>
                    <rect id="Rectangle-4-Copy" fill-opacity="0.700000048" fill="#FFFFFF" x="5" y="63" width="10" height="2" rx="1"></rect>
                    <rect id="Rectangle-4-Copy" fill-opacity="0.700000048" fill="#FFFFFF" x="17" y="63" width="20" height="2" rx="1"></rect>
                    <rect id="Rectangle-4-Copy" fill-opacity="0.700000048" fill="#FFFFFF" x="39" y="63" width="16" height="2" rx="1"></rect>
                    <rect id="Rectangle-4-Copy" fill-opacity="0.700000048" fill="#FFFFFF" x="5" y="48" width="17" height="2" rx="1"></rect>
                    <rect id="Rectangle-4-Copy" fill-opacity="0.700000048" fill="#FFFFFF" x="24" y="48" width="31" height="2" rx="1"></rect>
                    <rect id="Rectangle-4-Copy" fill-opacity="0.700000048" fill="#FFFFFF" x="5" y="53" width="19" height="2" rx="1"></rect>
                    <rect id="Rectangle-4-Copy" fill-opacity="0.700000048" fill="#FFFFFF" x="26" y="53" width="18" height="2" rx="1"></rect>
                    <rect id="Rectangle-4-Copy" fill-opacity="0.700000048" fill="#FFFFFF" x="46" y="53" width="9" height="2" rx="1"></rect>
                    <rect id="Rectangle-4-Copy" fill-opacity="0.700000048" fill="#FFFFFF" x="14" y="58" width="20" height="2" rx="1"></rect>
                    <rect id="Rectangle-4-Copy" fill-opacity="0.700000048" fill="#FFFFFF" x="36" y="58" width="19" height="2" rx="1"></rect>
                    <rect id="Rectangle-4-Copy" fill-opacity="0.700000048" fill="#FFFFFF" x="5" y="58" width="7" height="2" rx="1"></rect>
                    <rect id="Rectangle-5" fill="#EE2E31" x="13" y="28" width="35" height="17" rx="1"></rect>
                    <circle id="Oval-5" stroke="#EE2E31" cx="30" cy="74" r="1.5"></circle>
                </g>
            </g>
        </g>
    </g>
</svg>