<?xml version="1.0" encoding="UTF-8"?>
<svg width="190px" height="190px" viewBox="0 0 190 190" version="1.1" xmlns="http://www.w3.org/2000/svg" xmlns:xlink="http://www.w3.org/1999/xlink">
    <!-- Generator: Sketch 47.1 (45422) - http://www.bohemiancoding.com/sketch -->
    <title>Browser Plugins</title>
    <desc>Created with Sketch.</desc>
    <defs>
        <circle id="path-1" cx="95" cy="95" r="95"></circle>
        <circle id="path-3" cx="35" cy="35" r="35"></circle>
        <circle id="path-4" cx="35" cy="35" r="15"></circle>
        <path d="M35,70 C15.6700338,70 0,54.3299662 0,35 C0,15.6700338 15.6700338,0 35,0 C54.3299662,0 70,15.6700338 70,35 C70,54.3299662 54.3299662,70 35,70 Z M35,57 C44.3888407,57 52,47.1502645 52,35 C52,22.8497355 44.3888407,13 35,13 C25.6111593,13 18,22.8497355 18,35 C18,47.1502645 25.6111593,57 35,57 Z" id="path-5"></path>
        <linearGradient x1="50%" y1="100%" x2="50%" y2="0%" id="linearGradient-7">
            <stop stop-color="#450F10" offset="0%"></stop>
            <stop stop-color="#210607" offset="100%"></stop>
        </linearGradient>
        <circle id="path-8" cx="35" cy="35" r="35"></circle>
        <linearGradient x1="50%" y1="0%" x2="50%" y2="100%" id="linearGradient-9">
            <stop stop-color="#450F10" offset="0%"></stop>
            <stop stop-color="#210607" offset="100%"></stop>
        </linearGradient>
        <ellipse id="path-10" cx="43" cy="35" rx="27" ry="29"></ellipse>
        <ellipse id="path-11" cx="35" cy="35" rx="19" ry="24"></ellipse>
        <circle id="path-12" cx="35" cy="40" r="35"></circle>
        <linearGradient x1="50%" y1="0%" x2="50%" y2="100%" id="linearGradient-13">
            <stop stop-color="#671411" offset="0%"></stop>
            <stop stop-color="#210607" offset="100%"></stop>
        </linearGradient>
    </defs>
    <g id="Desktop" stroke="none" stroke-width="1" fill="none" fill-rule="evenodd">
        <g id="Main-Page" transform="translate(-545.000000, -1845.000000)">
            <g id="Browser-Plugins" transform="translate(540.000000, 1840.000000)">
                <rect id="Rectangle-3" fill="#D8D8D8" opacity="0" x="0" y="0" width="200" height="200"></rect>
                <g id="BG-Texture" transform="translate(5.000000, 5.000000)">
                    <mask id="mask-2" fill="white">
                        <use xlink:href="#path-1"></use>
                    </mask>
                    <g id="Oval-3"></g>
                    <circle id="Oval-2-Copy-19" fill="#671411" mask="url(#mask-2)" cx="175" cy="20" r="5"></circle>
                    <circle id="Oval-2-Copy-20" fill="#671411" mask="url(#mask-2)" cx="175" cy="50" r="5"></circle>
                    <circle id="Oval-2-Copy-18" fill="#671411" mask="url(#mask-2)" cx="155" cy="20" r="5"></circle>
                    <circle id="Oval-2-Copy-21" fill="#671411" mask="url(#mask-2)" cx="155" cy="50" r="5"></circle>
                    <circle id="Oval-2-Copy-17" fill="#671411" mask="url(#mask-2)" cx="135" cy="20" r="5"></circle>
                    <circle id="Oval-2-Copy-22" fill="#671411" mask="url(#mask-2)" cx="135" cy="50" r="5"></circle>
                    <circle id="Oval-2-Copy-16" fill="#671411" mask="url(#mask-2)" cx="115" cy="20" r="5"></circle>
                    <circle id="Oval-2-Copy-23" fill="#671411" mask="url(#mask-2)" cx="115" cy="50" r="5"></circle>
                    <circle id="Oval-2-Copy-15" fill="#671411" mask="url(#mask-2)" cx="95" cy="20" r="5"></circle>
                    <circle id="Oval-2-Copy-24" fill="#671411" mask="url(#mask-2)" cx="95" cy="50" r="5"></circle>
                    <circle id="Oval-2-Copy-14" fill="#671411" mask="url(#mask-2)" cx="75" cy="20" r="5"></circle>
                    <circle id="Oval-2-Copy-25" fill="#671411" mask="url(#mask-2)" cx="75" cy="50" r="5"></circle>
                    <circle id="Oval-2-Copy-13" fill="#671411" mask="url(#mask-2)" cx="55" cy="20" r="5"></circle>
                    <circle id="Oval-2-Copy-26" fill="#671411" mask="url(#mask-2)" cx="55" cy="50" r="5"></circle>
                    <circle id="Oval-2-Copy-12" fill="#671411" mask="url(#mask-2)" cx="35" cy="20" r="5"></circle>
                    <circle id="Oval-2-Copy-27" fill="#671411" mask="url(#mask-2)" cx="35" cy="50" r="5"></circle>
                    <circle id="Oval-2-Copy-11" fill="#671411" mask="url(#mask-2)" cx="15" cy="20" r="5"></circle>
                    <circle id="Oval-2-Copy-28" fill="#671411" mask="url(#mask-2)" cx="15" cy="50" r="5"></circle>
                    <circle id="Oval-2-Copy-10" fill="#671411" mask="url(#mask-2)" cx="185" cy="5" r="5"></circle>
                    <circle id="Oval-2-Copy-29" fill="#671411" mask="url(#mask-2)" cx="185" cy="35" r="5"></circle>
                    <circle id="Oval-2-Copy-9" fill="#671411" mask="url(#mask-2)" cx="165" cy="5" r="5"></circle>
                    <circle id="Oval-2-Copy-30" fill="#671411" mask="url(#mask-2)" cx="165" cy="35" r="5"></circle>
                    <circle id="Oval-2-Copy-8" fill="#671411" mask="url(#mask-2)" cx="145" cy="5" r="5"></circle>
                    <circle id="Oval-2-Copy-31" fill="#671411" mask="url(#mask-2)" cx="145" cy="35" r="5"></circle>
                    <circle id="Oval-2-Copy-7" fill="#671411" mask="url(#mask-2)" cx="125" cy="5" r="5"></circle>
                    <circle id="Oval-2-Copy-32" fill="#671411" mask="url(#mask-2)" cx="125" cy="35" r="5"></circle>
                    <circle id="Oval-2-Copy-6" fill="#671411" mask="url(#mask-2)" cx="105" cy="5" r="5"></circle>
                    <circle id="Oval-2-Copy-33" fill="#671411" mask="url(#mask-2)" cx="105" cy="35" r="5"></circle>
                    <circle id="Oval-2-Copy-5" fill="#671411" mask="url(#mask-2)" cx="85" cy="5" r="5"></circle>
                    <circle id="Oval-2-Copy-34" fill="#671411" mask="url(#mask-2)" cx="85" cy="35" r="5"></circle>
                    <circle id="Oval-2-Copy-4" fill="#671411" mask="url(#mask-2)" cx="65" cy="5" r="5"></circle>
                    <circle id="Oval-2-Copy-35" fill="#671411" mask="url(#mask-2)" cx="65" cy="35" r="5"></circle>
                    <circle id="Oval-2-Copy-3" fill="#671411" mask="url(#mask-2)" cx="45" cy="5" r="5"></circle>
                    <circle id="Oval-2-Copy-36" fill="#671411" mask="url(#mask-2)" cx="45" cy="35" r="5"></circle>
                    <circle id="Oval-2-Copy" fill="#671411" mask="url(#mask-2)" cx="25" cy="5" r="5"></circle>
                    <circle id="Oval-2-Copy-2" fill="#671411" mask="url(#mask-2)" cx="25" cy="35" r="5"></circle>
                    <circle id="Oval-2" fill="#671411" mask="url(#mask-2)" cx="5" cy="5" r="5"></circle>
                    <circle id="Oval-2-Copy-37" fill="#671411" mask="url(#mask-2)" cx="5" cy="35" r="5"></circle>
                    <circle id="Oval-2-Copy-56" fill="#671411" mask="url(#mask-2)" cx="175" cy="80" r="5"></circle>
                    <circle id="Oval-2-Copy-55" fill="#671411" mask="url(#mask-2)" cx="155" cy="80" r="5"></circle>
                    <circle id="Oval-2-Copy-54" fill="#671411" mask="url(#mask-2)" cx="135" cy="80" r="5"></circle>
                    <circle id="Oval-2-Copy-53" fill="#671411" mask="url(#mask-2)" cx="115" cy="80" r="5"></circle>
                    <circle id="Oval-2-Copy-52" fill="#671411" mask="url(#mask-2)" cx="95" cy="80" r="5"></circle>
                    <circle id="Oval-2-Copy-51" fill="#671411" mask="url(#mask-2)" cx="75" cy="80" r="5"></circle>
                    <circle id="Oval-2-Copy-50" fill="#671411" mask="url(#mask-2)" cx="55" cy="80" r="5"></circle>
                    <circle id="Oval-2-Copy-49" fill="#671411" mask="url(#mask-2)" cx="35" cy="80" r="5"></circle>
                    <circle id="Oval-2-Copy-48" fill="#671411" mask="url(#mask-2)" cx="15" cy="80" r="5"></circle>
                    <circle id="Oval-2-Copy-47" fill="#671411" mask="url(#mask-2)" cx="185" cy="65" r="5"></circle>
                    <circle id="Oval-2-Copy-46" fill="#671411" mask="url(#mask-2)" cx="165" cy="65" r="5"></circle>
                    <circle id="Oval-2-Copy-45" fill="#671411" mask="url(#mask-2)" cx="145" cy="65" r="5"></circle>
                    <circle id="Oval-2-Copy-44" fill="#671411" mask="url(#mask-2)" cx="125" cy="65" r="5"></circle>
                    <circle id="Oval-2-Copy-43" fill="#671411" mask="url(#mask-2)" cx="105" cy="65" r="5"></circle>
                    <circle id="Oval-2-Copy-42" fill="#671411" mask="url(#mask-2)" cx="85" cy="65" r="5"></circle>
                    <circle id="Oval-2-Copy-41" fill="#671411" mask="url(#mask-2)" cx="65" cy="65" r="5"></circle>
                    <circle id="Oval-2-Copy-40" fill="#671411" mask="url(#mask-2)" cx="45" cy="65" r="5"></circle>
                    <circle id="Oval-2-Copy-39" fill="#671411" mask="url(#mask-2)" cx="25" cy="65" r="5"></circle>
                    <circle id="Oval-2-Copy-38" fill="#671411" mask="url(#mask-2)" cx="5" cy="65" r="5"></circle>
                    <circle id="Oval-2-Copy-75" fill="#671411" mask="url(#mask-2)" cx="175" cy="110" r="5"></circle>
                    <circle id="Oval-2-Copy-74" fill="#671411" mask="url(#mask-2)" cx="155" cy="110" r="5"></circle>
                    <circle id="Oval-2-Copy-73" fill="#671411" mask="url(#mask-2)" cx="135" cy="110" r="5"></circle>
                    <circle id="Oval-2-Copy-72" fill="#671411" mask="url(#mask-2)" cx="115" cy="110" r="5"></circle>
                    <circle id="Oval-2-Copy-71" fill="#671411" mask="url(#mask-2)" cx="95" cy="110" r="5"></circle>
                    <circle id="Oval-2-Copy-70" fill="#671411" mask="url(#mask-2)" cx="75" cy="110" r="5"></circle>
                    <circle id="Oval-2-Copy-69" fill="#671411" mask="url(#mask-2)" cx="55" cy="110" r="5"></circle>
                    <circle id="Oval-2-Copy-68" fill="#671411" mask="url(#mask-2)" cx="35" cy="110" r="5"></circle>
                    <circle id="Oval-2-Copy-67" fill="#671411" mask="url(#mask-2)" cx="15" cy="110" r="5"></circle>
                    <circle id="Oval-2-Copy-66" fill="#671411" mask="url(#mask-2)" cx="185" cy="95" r="5"></circle>
                    <circle id="Oval-2-Copy-65" fill="#671411" mask="url(#mask-2)" cx="165" cy="95" r="5"></circle>
                    <circle id="Oval-2-Copy-64" fill="#671411" mask="url(#mask-2)" cx="145" cy="95" r="5"></circle>
                    <circle id="Oval-2-Copy-63" fill="#671411" mask="url(#mask-2)" cx="125" cy="95" r="5"></circle>
                    <circle id="Oval-2-Copy-62" fill="#671411" mask="url(#mask-2)" cx="105" cy="95" r="5"></circle>
                    <circle id="Oval-2-Copy-61" fill="#671411" mask="url(#mask-2)" cx="85" cy="95" r="5"></circle>
                    <circle id="Oval-2-Copy-60" fill="#671411" mask="url(#mask-2)" cx="65" cy="95" r="5"></circle>
                    <circle id="Oval-2-Copy-59" fill="#671411" mask="url(#mask-2)" cx="45" cy="95" r="5"></circle>
                    <circle id="Oval-2-Copy-58" fill="#671411" mask="url(#mask-2)" cx="25" cy="95" r="5"></circle>
                    <circle id="Oval-2-Copy-57" fill="#671411" mask="url(#mask-2)" cx="5" cy="95" r="5"></circle>
                    <circle id="Oval-2-Copy-94" fill="#671411" mask="url(#mask-2)" cx="175" cy="140" r="5"></circle>
                    <circle id="Oval-2-Copy-93" fill="#671411" mask="url(#mask-2)" cx="155" cy="140" r="5"></circle>
                    <circle id="Oval-2-Copy-92" fill="#671411" mask="url(#mask-2)" cx="135" cy="140" r="5"></circle>
                    <circle id="Oval-2-Copy-91" fill="#671411" mask="url(#mask-2)" cx="115" cy="140" r="5"></circle>
                    <circle id="Oval-2-Copy-90" fill="#671411" mask="url(#mask-2)" cx="95" cy="140" r="5"></circle>
                    <circle id="Oval-2-Copy-89" fill="#671411" mask="url(#mask-2)" cx="75" cy="140" r="5"></circle>
                    <circle id="Oval-2-Copy-88" fill="#671411" mask="url(#mask-2)" cx="55" cy="140" r="5"></circle>
                    <circle id="Oval-2-Copy-87" fill="#671411" mask="url(#mask-2)" cx="35" cy="140" r="5"></circle>
                    <circle id="Oval-2-Copy-86" fill="#671411" mask="url(#mask-2)" cx="15" cy="140" r="5"></circle>
                    <circle id="Oval-2-Copy-85" fill="#671411" mask="url(#mask-2)" cx="185" cy="125" r="5"></circle>
                    <circle id="Oval-2-Copy-84" fill="#671411" mask="url(#mask-2)" cx="165" cy="125" r="5"></circle>
                    <circle id="Oval-2-Copy-83" fill="#671411" mask="url(#mask-2)" cx="145" cy="125" r="5"></circle>
                    <circle id="Oval-2-Copy-82" fill="#671411" mask="url(#mask-2)" cx="125" cy="125" r="5"></circle>
                    <circle id="Oval-2-Copy-81" fill="#671411" mask="url(#mask-2)" cx="105" cy="125" r="5"></circle>
                    <circle id="Oval-2-Copy-80" fill="#671411" mask="url(#mask-2)" cx="85" cy="125" r="5"></circle>
                    <circle id="Oval-2-Copy-79" fill="#671411" mask="url(#mask-2)" cx="65" cy="125" r="5"></circle>
                    <circle id="Oval-2-Copy-78" fill="#671411" mask="url(#mask-2)" cx="45" cy="125" r="5"></circle>
                    <circle id="Oval-2-Copy-77" fill="#671411" mask="url(#mask-2)" cx="25" cy="125" r="5"></circle>
                    <circle id="Oval-2-Copy-76" fill="#671411" mask="url(#mask-2)" cx="5" cy="125" r="5"></circle>
                    <circle id="Oval-2-Copy-113" fill="#671411" mask="url(#mask-2)" cx="175" cy="170" r="5"></circle>
                    <circle id="Oval-2-Copy-112" fill="#671411" mask="url(#mask-2)" cx="155" cy="170" r="5"></circle>
                    <circle id="Oval-2-Copy-111" fill="#671411" mask="url(#mask-2)" cx="135" cy="170" r="5"></circle>
                    <circle id="Oval-2-Copy-110" fill="#671411" mask="url(#mask-2)" cx="115" cy="170" r="5"></circle>
                    <circle id="Oval-2-Copy-109" fill="#671411" mask="url(#mask-2)" cx="95" cy="170" r="5"></circle>
                    <circle id="Oval-2-Copy-108" fill="#671411" mask="url(#mask-2)" cx="75" cy="170" r="5"></circle>
                    <circle id="Oval-2-Copy-107" fill="#671411" mask="url(#mask-2)" cx="55" cy="170" r="5"></circle>
                    <circle id="Oval-2-Copy-106" fill="#671411" mask="url(#mask-2)" cx="35" cy="170" r="5"></circle>
                    <circle id="Oval-2-Copy-105" fill="#671411" mask="url(#mask-2)" cx="15" cy="170" r="5"></circle>
                    <circle id="Oval-2-Copy-104" fill="#671411" mask="url(#mask-2)" cx="185" cy="155" r="5"></circle>
                    <circle id="Oval-2-Copy-103" fill="#671411" mask="url(#mask-2)" cx="165" cy="155" r="5"></circle>
                    <circle id="Oval-2-Copy-102" fill="#671411" mask="url(#mask-2)" cx="145" cy="155" r="5"></circle>
                    <circle id="Oval-2-Copy-101" fill="#671411" mask="url(#mask-2)" cx="125" cy="155" r="5"></circle>
                    <circle id="Oval-2-Copy-100" fill="#671411" mask="url(#mask-2)" cx="105" cy="155" r="5"></circle>
                    <circle id="Oval-2-Copy-99" fill="#671411" mask="url(#mask-2)" cx="85" cy="155" r="5"></circle>
                    <circle id="Oval-2-Copy-98" fill="#671411" mask="url(#mask-2)" cx="65" cy="155" r="5"></circle>
                    <circle id="Oval-2-Copy-97" fill="#671411" mask="url(#mask-2)" cx="45" cy="155" r="5"></circle>
                    <circle id="Oval-2-Copy-96" fill="#671411" mask="url(#mask-2)" cx="25" cy="155" r="5"></circle>
                    <circle id="Oval-2-Copy-95" fill="#671411" mask="url(#mask-2)" cx="5" cy="155" r="5"></circle>
                    <circle id="Oval-2-Copy-123" fill="#671411" mask="url(#mask-2)" cx="185" cy="185" r="5"></circle>
                    <circle id="Oval-2-Copy-122" fill="#671411" mask="url(#mask-2)" cx="165" cy="185" r="5"></circle>
                    <circle id="Oval-2-Copy-121" fill="#671411" mask="url(#mask-2)" cx="145" cy="185" r="5"></circle>
                    <circle id="Oval-2-Copy-120" fill="#671411" mask="url(#mask-2)" cx="125" cy="185" r="5"></circle>
                    <circle id="Oval-2-Copy-119" fill="#671411" mask="url(#mask-2)" cx="105" cy="185" r="5"></circle>
                    <circle id="Oval-2-Copy-118" fill="#671411" mask="url(#mask-2)" cx="85" cy="185" r="5"></circle>
                    <circle id="Oval-2-Copy-117" fill="#671411" mask="url(#mask-2)" cx="65" cy="185" r="5"></circle>
                    <circle id="Oval-2-Copy-116" fill="#671411" mask="url(#mask-2)" cx="45" cy="185" r="5"></circle>
                    <circle id="Oval-2-Copy-115" fill="#671411" mask="url(#mask-2)" cx="25" cy="185" r="5"></circle>
                    <circle id="Oval-2-Copy-114" fill="#671411" mask="url(#mask-2)" cx="5" cy="185" r="5"></circle>
                </g>
                <g id="Chrome" transform="translate(10.000000, 10.000000)">
                    <g id="Oval">
                        <use fill="#210607" fill-rule="evenodd" xlink:href="#path-3"></use>
                        <circle stroke="#EE2E31" stroke-width="2" cx="35" cy="35" r="34"></circle>
                    </g>
                    <g id="Oval">
                        <use fill="#671411" fill-rule="evenodd" xlink:href="#path-4"></use>
                        <circle stroke="#EE2E31" stroke-width="2" cx="35" cy="35" r="14"></circle>
                    </g>
                    <rect id="Rectangle" fill="#EE2E31" x="35" y="20" width="31" height="2"></rect>
                    <polygon id="Rectangle" fill="#EE2E31" transform="translate(14.843403, 28.086301) rotate(-120.000000) translate(-14.843403, -28.086301) " points="-0.656597394 27.0863007 30.3434026 27.0863007 30.3434026 29.0863007 -0.656597394 29.0863007"></polygon>
                    <polygon id="Rectangle" fill="#EE2E31" transform="translate(39.281384, 55.592743) rotate(-60.000000) translate(-39.281384, -55.592743) " points="23.7813841 54.5927427 54.7813841 54.5927427 54.7813841 56.5927427 23.7813841 56.5927427"></polygon>
                </g>
                <g id="Opera" transform="translate(120.000000, 10.000000)">
                    <mask id="mask-6" fill="white">
                        <use xlink:href="#path-5"></use>
                    </mask>
                    <g id="Combined-Shape">
                        <use fill="#210607" fill-rule="evenodd" xlink:href="#path-5"></use>
                        <path stroke="#EE2E31" stroke-width="1" d="M35,69.5 C54.0538239,69.5 69.5,54.0538239 69.5,35 C69.5,15.9461761 54.0538239,0.5 35,0.5 C15.9461761,0.5 0.5,15.9461761 0.5,35 C0.5,54.0538239 15.9461761,69.5 35,69.5 Z M35,57.5 C25.3027387,57.5 17.5,47.4023381 17.5,35 C17.5,22.5976619 25.3027387,12.5 35,12.5 C44.6972613,12.5 52.5,22.5976619 52.5,35 C52.5,47.4023381 44.6972613,57.5 35,57.5 Z"></path>
                    </g>
                    <g id="Oval" mask="url(#mask-6)">
                        <use fill="url(#linearGradient-7)" fill-rule="evenodd" xlink:href="#path-8"></use>
                        <circle stroke="#EE2E31" stroke-width="2" cx="35" cy="35" r="34"></circle>
                    </g>
                    <g id="Oval" mask="url(#mask-6)">
                        <use fill="url(#linearGradient-9)" fill-rule="evenodd" xlink:href="#path-10"></use>
                        <ellipse stroke="#EE2E31" stroke-width="2" cx="43" cy="35" rx="26" ry="28"></ellipse>
                    </g>
                    <g id="Oval" mask="url(#mask-6)">
                        <use fill="#210607" fill-rule="evenodd" xlink:href="#path-11"></use>
                        <ellipse stroke="#EE2E31" stroke-width="1" cx="35" cy="35" rx="18.5" ry="23.5"></ellipse>
                    </g>
                    <ellipse id="Oval" stroke="#EE2E31" stroke-width="2" mask="url(#mask-6)" cx="35" cy="35" rx="18" ry="23"></ellipse>
                </g>
                <g id="Safari" transform="translate(120.000000, 120.000000)">
                    <circle id="Oval" stroke="#EE2E31" stroke-width="2" fill="#210607" cx="35" cy="35" r="35"></circle>
                    <path d="M35,4 C35.5522847,4 36,4.44771525 36,5 L36,10 C36,10.5522847 35.5522847,11 35,11 C34.4477153,11 34,10.5522847 34,10 L34,5 L34,5 C34,4.44771525 34.4477153,4 35,4 Z M46.8913533,6.37154587 C47.3997341,6.58734071 47.6369219,7.17440106 47.4211271,7.68278185 L45.4674714,12.2853061 C45.2516766,12.7936869 44.6646162,13.0308747 44.1562354,12.8150798 C43.6478546,12.599285 43.4106669,12.0122247 43.6264617,11.5038439 L45.5801174,6.90131959 C45.7959122,6.3929388 46.3829725,6.15575103 46.8913533,6.37154587 Z M56.9203102,13.0796898 C57.3108345,13.4702141 57.3108345,14.1033791 56.9203102,14.4939033 L53.3847763,18.0294373 C52.994252,18.4199615 52.361087,18.4199615 51.9705627,18.0294373 C51.5800385,17.638913 51.5800385,17.005748 51.9705627,16.6152237 L55.5060967,13.0796898 C55.8966209,12.6891655 56.5297859,12.6891655 56.9203102,13.0796898 Z M63.6518306,23.1650825 C63.8587201,23.677152 63.6113229,24.2599835 63.0992534,24.466873 L58.4633341,26.3399059 C57.9512646,26.5467955 57.3684332,26.2993982 57.1615437,25.7873287 C56.9546541,25.2752592 57.2020514,24.6924277 57.7141209,24.4855382 L62.3500402,22.6125053 C62.8621097,22.4056158 63.4449411,22.653013 63.6518306,23.1650825 Z M66,35 C66,35.5522847 65.5522847,36 65,36 L60,36 C59.4477153,36 59,35.5522847 59,35 C59,34.4477153 59.4477153,34 60,34 L65,34 C65.5522847,34 66,34.4477153 66,35 Z M63.6284541,46.8913533 C63.4126593,47.3997341 62.8255989,47.6369219 62.3172181,47.4211271 L57.7146939,45.4674714 C57.2063131,45.2516766 56.9691253,44.6646162 57.1849202,44.1562354 C57.400715,43.6478546 57.9877753,43.4106669 58.4961561,43.6264617 L63.0986804,45.5801174 C63.6070612,45.7959122 63.844249,46.3829725 63.6284541,46.8913533 Z M56.9203102,56.9203102 C56.5297859,57.3108345 55.8966209,57.3108345 55.5060967,56.9203102 L51.9705627,53.3847763 C51.5800385,52.994252 51.5800385,52.361087 51.9705627,51.9705627 C52.361087,51.5800385 52.994252,51.5800385 53.3847763,51.9705627 L56.9203102,55.5060967 C57.3108345,55.8966209 57.3108345,56.5297859 56.9203102,56.9203102 Z M46.8349175,63.6518306 C46.322848,63.8587201 45.7400165,63.6113229 45.533127,63.0992534 L43.6600941,58.4633341 C43.4532045,57.9512646 43.7006018,57.3684332 44.2126713,57.1615437 C44.7247408,56.9546541 45.3075723,57.2020514 45.5144618,57.7141209 L47.3874947,62.3500402 C47.5943842,62.8621097 47.346987,63.4449411 46.8349175,63.6518306 Z M35,66 C34.4477153,66 34,65.5522847 34,65 L34,60 C34,59.4477153 34.4477153,59 35,59 C35.5522847,59 36,59.4477153 36,60 L36,65 C36,65.5522847 35.5522847,66 35,66 Z M23.1086467,63.6284541 C22.6002659,63.4126593 22.3630781,62.8255989 22.5788729,62.3172181 L24.5325286,57.7146939 C24.7483234,57.2063131 25.3353838,56.9691253 25.8437646,57.1849202 C26.3521454,57.400715 26.5893331,57.9877753 26.3735383,58.4961561 L24.4198826,63.0986804 C24.2040878,63.6070612 23.6170275,63.844249 23.1086467,63.6284541 Z M13.0796898,56.9203102 C12.6891655,56.5297859 12.6891655,55.8966209 13.0796898,55.5060967 L16.6152237,51.9705627 C17.005748,51.5800385 17.638913,51.5800385 18.0294373,51.9705627 C18.4199615,52.361087 18.4199615,52.994252 18.0294373,53.3847763 L14.4939033,56.9203102 C14.1033791,57.3108345 13.4702141,57.3108345 13.0796898,56.9203102 Z M6.37154587,46.8913533 L6.37154587,46.8913533 C6.15575103,46.3829725 6.3929388,45.7959122 6.90131959,45.5801174 L11.5038439,43.6264617 C12.0122247,43.4106669 12.599285,43.6478546 12.8150798,44.1562354 C13.0308747,44.6646162 12.7936869,45.2516766 12.2853061,45.4674714 L7.68278185,47.4211271 C7.17440106,47.6369219 6.58734071,47.3997341 6.37154587,46.8913533 L6.37154587,46.8913533 Z M4,35 L4,35 C4,34.4477153 4.44771525,34 5,34 L10,34 C10.5522847,34 11,34.4477153 11,35 C11,35.5522847 10.5522847,36 10,36 L5,36 L5,36 C4.44771525,36 4,35.5522847 4,35 L4,35 Z M6.37154587,23.1086467 C6.58734071,22.6002659 7.17440106,22.3630781 7.68278185,22.5788729 L12.2853061,24.5325286 C12.7936869,24.7483234 13.0308747,25.3353838 12.8150798,25.8437646 C12.599285,26.3521454 12.0122247,26.5893331 11.5038439,26.3735383 L6.90131959,24.4198826 L6.90131959,24.4198826 C6.3929388,24.2040878 6.15575103,23.6170275 6.37154587,23.1086467 Z M13.0796898,13.0796898 C13.4702141,12.6891655 14.1033791,12.6891655 14.4939033,13.0796898 L18.0294373,16.6152237 C18.4199615,17.005748 18.4199615,17.638913 18.0294373,18.0294373 C17.638913,18.4199615 17.005748,18.4199615 16.6152237,18.0294373 L13.0796898,14.4939033 C12.6891655,14.1033791 12.6891655,13.4702141 13.0796898,13.0796898 Z M23.1650825,6.34816936 C23.677152,6.14127986 24.2599835,6.38867712 24.466873,6.90074663 L26.3399059,11.5366659 C26.5467955,12.0487354 26.2993982,12.6315668 25.7873287,12.8384563 C25.2752592,13.0453459 24.6924277,12.7979486 24.4855382,12.2858791 L22.6125053,7.64995981 C22.4056158,7.13789031 22.653013,6.55505887 23.1650825,6.34816936 Z" id="Rectangle-12" fill="#671411"></path>
                    <g id="Group-3" transform="translate(35.000000, 35.000000) rotate(45.000000) translate(-35.000000, -35.000000) translate(29.000000, 3.000000)">
                        <polygon id="Rectangle-2" fill="#EE2E31" points="6 0 12 32 0 32"></polygon>
                        <path d="M6,37.4262735 L1.20492629,63 L10.7950737,63 L6,37.4262735 Z" id="Rectangle-2" stroke="#EE2E31" stroke-width="2" transform="translate(6.000000, 48.000000) scale(1, -1) translate(-6.000000, -48.000000) "></path>
                    </g>
                </g>
                <g id="Mozilla" transform="translate(10.000000, 115.000000)">
                    <g id="Oval-Copy">
                        <use fill="#210607" fill-rule="evenodd" xlink:href="#path-12"></use>
                        <circle stroke="#EE2E31" stroke-width="2" cx="35" cy="40" r="34"></circle>
                    </g>
                    <path d="M5.3379289,20.1785745 C4.18736841,15.3665521 5.40180717,11.4692303 8.9812452,8.48660903 C9.98112811,10.8178015 10.795764,13.0895516 11.4251529,15.3018593 C15.3097037,14.196268 18.389576,14.196268 20.6647699,15.3018593 C23.0064724,13.4687079 26.4250874,12.5521322 30.9206151,12.5521322 C28.0017536,14.3095274 26.193059,16.4725185 25.4945313,19.0411056 C24.4467396,22.8939862 31.7677519,22.6734658 33.4028498,22.8939862 C35.0379477,23.1145067 38.5765498,23.6983424 26.8740203,30.4031665 C27.005877,32.5901529 26.5460473,34.2354311 25.4945313,35.3390009 C23.0492223,33.3212528 21.4393019,33.7947316 20.6647699,36.7594373 C19.502972,41.2064959 26.5860725,44.0623015 28.7533438,44.0623015 C30.9206151,44.0623015 33.2348919,42.1388849 35.6345873,42.1388849 C38.0342828,42.1388849 41.4378655,44.4764133 41.4378655,46.3266228 C41.4378655,47.5600958 40.4473586,47.7510656 38.4663448,46.8995322 C35.6323978,49.3621075 32.9118185,50.5933952 30.3046068,50.5933952 C26.3937892,50.5933952 24.874639,50.4921436 22.5749308,49.6071025 C25.4153973,54.3567319 32.5546862,56.0748229 35.6345873,56.0748229 C44.5615567,56.0748229 52.8024817,50.2637811 52.8024817,39.8862185 C52.8024817,27.6642737 41.4378655,25.3158189 41.4378655,17.1555938 C41.4378655,9.82589918 43.4072019,4.1073679 47.3458749,-5.68434189e-14 C49.4803972,4.73600206 52.1543887,8.12258954 55.3678495,10.1597624 C55.4182081,9.18391049 55.9230102,8.14043605 56.8822559,7.02933913 C65.0529951,19.3599412 69.3477056,27.4896936 69.7663873,31.4185964 C70.3944098,37.3119506 69.7663873,46.3266228 67.8469556,52.2956093 C64.8575563,61.591946 60.9620301,63.2905761 56.8822559,66.2156667 C54.1624064,68.1657272 50.3711133,69.5096265 45.5083766,70.2473648 L51.377222,71.9236994 C46.7225103,73.9745665 41.4749654,75 35.6345873,75 C18.3810672,75 0,62.4790262 0,39.8862185 C0,32.4991757 1.77930963,25.9299611 5.3379289,20.1785745 Z" id="Path-2" stroke="#EE2E31" stroke-width="2" fill="url(#linearGradient-13)" stroke-linecap="round" stroke-linejoin="round"></path>
                </g>
            </g>
        </g>
    </g>
</svg>