<?xml version="1.0" encoding="UTF-8"?>
<svg width="190px" height="190px" viewBox="0 0 190 190" version="1.1" xmlns="http://www.w3.org/2000/svg" xmlns:xlink="http://www.w3.org/1999/xlink">
    <!-- Generator: Sketch 47.1 (45422) - http://www.bohemiancoding.com/sketch -->
    <title>Mobile Apps</title>
    <desc>Created with Sketch.</desc>
    <defs>
        <circle id="path-1" cx="95" cy="95" r="95"></circle>
        <rect id="path-3" x="0" y="0" width="70" height="140" rx="12"></rect>
        <rect id="path-4" x="0" y="0" width="70" height="140" rx="12"></rect>
    </defs>
    <g id="Desktop" stroke="none" stroke-width="1" fill="none" fill-rule="evenodd">
        <g id="Main-Page" transform="translate(-895.000000, -1845.000000)">
            <g id="Mobile-Apps" transform="translate(890.000000, 1840.000000)">
                <rect id="Rectangle-3" fill="#D8D8D8" opacity="0" x="0" y="0" width="200" height="200"></rect>
                <g id="BG-Texture" transform="translate(5.000000, 5.000000)">
                    <mask id="mask-2" fill="white">
                        <use xlink:href="#path-1"></use>
                    </mask>
                    <g id="Oval-3"></g>
                    <circle id="Oval-2-Copy-19" fill="#671411" mask="url(#mask-2)" cx="175" cy="20" r="5"></circle>
                    <circle id="Oval-2-Copy-20" fill="#671411" mask="url(#mask-2)" cx="175" cy="50" r="5"></circle>
                    <circle id="Oval-2-Copy-18" fill="#671411" mask="url(#mask-2)" cx="155" cy="20" r="5"></circle>
                    <circle id="Oval-2-Copy-21" fill="#671411" mask="url(#mask-2)" cx="155" cy="50" r="5"></circle>
                    <circle id="Oval-2-Copy-17" fill="#671411" mask="url(#mask-2)" cx="135" cy="20" r="5"></circle>
                    <circle id="Oval-2-Copy-22" fill="#671411" mask="url(#mask-2)" cx="135" cy="50" r="5"></circle>
                    <circle id="Oval-2-Copy-16" fill="#671411" mask="url(#mask-2)" cx="115" cy="20" r="5"></circle>
                    <circle id="Oval-2-Copy-23" fill="#671411" mask="url(#mask-2)" cx="115" cy="50" r="5"></circle>
                    <circle id="Oval-2-Copy-15" fill="#671411" mask="url(#mask-2)" cx="95" cy="20" r="5"></circle>
                    <circle id="Oval-2-Copy-24" fill="#671411" mask="url(#mask-2)" cx="95" cy="50" r="5"></circle>
                    <circle id="Oval-2-Copy-14" fill="#671411" mask="url(#mask-2)" cx="75" cy="20" r="5"></circle>
                    <circle id="Oval-2-Copy-25" fill="#671411" mask="url(#mask-2)" cx="75" cy="50" r="5"></circle>
                    <circle id="Oval-2-Copy-13" fill="#671411" mask="url(#mask-2)" cx="55" cy="20" r="5"></circle>
                    <circle id="Oval-2-Copy-26" fill="#671411" mask="url(#mask-2)" cx="55" cy="50" r="5"></circle>
                    <circle id="Oval-2-Copy-12" fill="#671411" mask="url(#mask-2)" cx="35" cy="20" r="5"></circle>
                    <circle id="Oval-2-Copy-27" fill="#671411" mask="url(#mask-2)" cx="35" cy="50" r="5"></circle>
                    <circle id="Oval-2-Copy-11" fill="#671411" mask="url(#mask-2)" cx="15" cy="20" r="5"></circle>
                    <circle id="Oval-2-Copy-28" fill="#671411" mask="url(#mask-2)" cx="15" cy="50" r="5"></circle>
                    <circle id="Oval-2-Copy-10" fill="#671411" mask="url(#mask-2)" cx="185" cy="5" r="5"></circle>
                    <circle id="Oval-2-Copy-29" fill="#671411" mask="url(#mask-2)" cx="185" cy="35" r="5"></circle>
                    <circle id="Oval-2-Copy-9" fill="#671411" mask="url(#mask-2)" cx="165" cy="5" r="5"></circle>
                    <circle id="Oval-2-Copy-30" fill="#671411" mask="url(#mask-2)" cx="165" cy="35" r="5"></circle>
                    <circle id="Oval-2-Copy-8" fill="#671411" mask="url(#mask-2)" cx="145" cy="5" r="5"></circle>
                    <circle id="Oval-2-Copy-31" fill="#671411" mask="url(#mask-2)" cx="145" cy="35" r="5"></circle>
                    <circle id="Oval-2-Copy-7" fill="#671411" mask="url(#mask-2)" cx="125" cy="5" r="5"></circle>
                    <circle id="Oval-2-Copy-32" fill="#671411" mask="url(#mask-2)" cx="125" cy="35" r="5"></circle>
                    <circle id="Oval-2-Copy-6" fill="#671411" mask="url(#mask-2)" cx="105" cy="5" r="5"></circle>
                    <circle id="Oval-2-Copy-33" fill="#671411" mask="url(#mask-2)" cx="105" cy="35" r="5"></circle>
                    <circle id="Oval-2-Copy-5" fill="#671411" mask="url(#mask-2)" cx="85" cy="5" r="5"></circle>
                    <circle id="Oval-2-Copy-34" fill="#671411" mask="url(#mask-2)" cx="85" cy="35" r="5"></circle>
                    <circle id="Oval-2-Copy-4" fill="#671411" mask="url(#mask-2)" cx="65" cy="5" r="5"></circle>
                    <circle id="Oval-2-Copy-35" fill="#671411" mask="url(#mask-2)" cx="65" cy="35" r="5"></circle>
                    <circle id="Oval-2-Copy-3" fill="#671411" mask="url(#mask-2)" cx="45" cy="5" r="5"></circle>
                    <circle id="Oval-2-Copy-36" fill="#671411" mask="url(#mask-2)" cx="45" cy="35" r="5"></circle>
                    <circle id="Oval-2-Copy" fill="#671411" mask="url(#mask-2)" cx="25" cy="5" r="5"></circle>
                    <circle id="Oval-2-Copy-2" fill="#671411" mask="url(#mask-2)" cx="25" cy="35" r="5"></circle>
                    <circle id="Oval-2" fill="#671411" mask="url(#mask-2)" cx="5" cy="5" r="5"></circle>
                    <circle id="Oval-2-Copy-37" fill="#671411" mask="url(#mask-2)" cx="5" cy="35" r="5"></circle>
                    <circle id="Oval-2-Copy-56" fill="#671411" mask="url(#mask-2)" cx="175" cy="80" r="5"></circle>
                    <circle id="Oval-2-Copy-55" fill="#671411" mask="url(#mask-2)" cx="155" cy="80" r="5"></circle>
                    <circle id="Oval-2-Copy-54" fill="#671411" mask="url(#mask-2)" cx="135" cy="80" r="5"></circle>
                    <circle id="Oval-2-Copy-53" fill="#671411" mask="url(#mask-2)" cx="115" cy="80" r="5"></circle>
                    <circle id="Oval-2-Copy-52" fill="#671411" mask="url(#mask-2)" cx="95" cy="80" r="5"></circle>
                    <circle id="Oval-2-Copy-51" fill="#671411" mask="url(#mask-2)" cx="75" cy="80" r="5"></circle>
                    <circle id="Oval-2-Copy-50" fill="#671411" mask="url(#mask-2)" cx="55" cy="80" r="5"></circle>
                    <circle id="Oval-2-Copy-49" fill="#671411" mask="url(#mask-2)" cx="35" cy="80" r="5"></circle>
                    <circle id="Oval-2-Copy-48" fill="#671411" mask="url(#mask-2)" cx="15" cy="80" r="5"></circle>
                    <circle id="Oval-2-Copy-47" fill="#671411" mask="url(#mask-2)" cx="185" cy="65" r="5"></circle>
                    <circle id="Oval-2-Copy-46" fill="#671411" mask="url(#mask-2)" cx="165" cy="65" r="5"></circle>
                    <circle id="Oval-2-Copy-45" fill="#671411" mask="url(#mask-2)" cx="145" cy="65" r="5"></circle>
                    <circle id="Oval-2-Copy-44" fill="#671411" mask="url(#mask-2)" cx="125" cy="65" r="5"></circle>
                    <circle id="Oval-2-Copy-43" fill="#671411" mask="url(#mask-2)" cx="105" cy="65" r="5"></circle>
                    <circle id="Oval-2-Copy-42" fill="#671411" mask="url(#mask-2)" cx="85" cy="65" r="5"></circle>
                    <circle id="Oval-2-Copy-41" fill="#671411" mask="url(#mask-2)" cx="65" cy="65" r="5"></circle>
                    <circle id="Oval-2-Copy-40" fill="#671411" mask="url(#mask-2)" cx="45" cy="65" r="5"></circle>
                    <circle id="Oval-2-Copy-39" fill="#671411" mask="url(#mask-2)" cx="25" cy="65" r="5"></circle>
                    <circle id="Oval-2-Copy-38" fill="#671411" mask="url(#mask-2)" cx="5" cy="65" r="5"></circle>
                    <circle id="Oval-2-Copy-75" fill="#671411" mask="url(#mask-2)" cx="175" cy="110" r="5"></circle>
                    <circle id="Oval-2-Copy-74" fill="#671411" mask="url(#mask-2)" cx="155" cy="110" r="5"></circle>
                    <circle id="Oval-2-Copy-73" fill="#671411" mask="url(#mask-2)" cx="135" cy="110" r="5"></circle>
                    <circle id="Oval-2-Copy-72" fill="#671411" mask="url(#mask-2)" cx="115" cy="110" r="5"></circle>
                    <circle id="Oval-2-Copy-71" fill="#671411" mask="url(#mask-2)" cx="95" cy="110" r="5"></circle>
                    <circle id="Oval-2-Copy-70" fill="#671411" mask="url(#mask-2)" cx="75" cy="110" r="5"></circle>
                    <circle id="Oval-2-Copy-69" fill="#671411" mask="url(#mask-2)" cx="55" cy="110" r="5"></circle>
                    <circle id="Oval-2-Copy-68" fill="#671411" mask="url(#mask-2)" cx="35" cy="110" r="5"></circle>
                    <circle id="Oval-2-Copy-67" fill="#671411" mask="url(#mask-2)" cx="15" cy="110" r="5"></circle>
                    <circle id="Oval-2-Copy-66" fill="#671411" mask="url(#mask-2)" cx="185" cy="95" r="5"></circle>
                    <circle id="Oval-2-Copy-65" fill="#671411" mask="url(#mask-2)" cx="165" cy="95" r="5"></circle>
                    <circle id="Oval-2-Copy-64" fill="#671411" mask="url(#mask-2)" cx="145" cy="95" r="5"></circle>
                    <circle id="Oval-2-Copy-63" fill="#671411" mask="url(#mask-2)" cx="125" cy="95" r="5"></circle>
                    <circle id="Oval-2-Copy-62" fill="#671411" mask="url(#mask-2)" cx="105" cy="95" r="5"></circle>
                    <circle id="Oval-2-Copy-61" fill="#671411" mask="url(#mask-2)" cx="85" cy="95" r="5"></circle>
                    <circle id="Oval-2-Copy-60" fill="#671411" mask="url(#mask-2)" cx="65" cy="95" r="5"></circle>
                    <circle id="Oval-2-Copy-59" fill="#671411" mask="url(#mask-2)" cx="45" cy="95" r="5"></circle>
                    <circle id="Oval-2-Copy-58" fill="#671411" mask="url(#mask-2)" cx="25" cy="95" r="5"></circle>
                    <circle id="Oval-2-Copy-57" fill="#671411" mask="url(#mask-2)" cx="5" cy="95" r="5"></circle>
                    <circle id="Oval-2-Copy-94" fill="#671411" mask="url(#mask-2)" cx="175" cy="140" r="5"></circle>
                    <circle id="Oval-2-Copy-93" fill="#671411" mask="url(#mask-2)" cx="155" cy="140" r="5"></circle>
                    <circle id="Oval-2-Copy-92" fill="#671411" mask="url(#mask-2)" cx="135" cy="140" r="5"></circle>
                    <circle id="Oval-2-Copy-91" fill="#671411" mask="url(#mask-2)" cx="115" cy="140" r="5"></circle>
                    <circle id="Oval-2-Copy-90" fill="#671411" mask="url(#mask-2)" cx="95" cy="140" r="5"></circle>
                    <circle id="Oval-2-Copy-89" fill="#671411" mask="url(#mask-2)" cx="75" cy="140" r="5"></circle>
                    <circle id="Oval-2-Copy-88" fill="#671411" mask="url(#mask-2)" cx="55" cy="140" r="5"></circle>
                    <circle id="Oval-2-Copy-87" fill="#671411" mask="url(#mask-2)" cx="35" cy="140" r="5"></circle>
                    <circle id="Oval-2-Copy-86" fill="#671411" mask="url(#mask-2)" cx="15" cy="140" r="5"></circle>
                    <circle id="Oval-2-Copy-85" fill="#671411" mask="url(#mask-2)" cx="185" cy="125" r="5"></circle>
                    <circle id="Oval-2-Copy-84" fill="#671411" mask="url(#mask-2)" cx="165" cy="125" r="5"></circle>
                    <circle id="Oval-2-Copy-83" fill="#671411" mask="url(#mask-2)" cx="145" cy="125" r="5"></circle>
                    <circle id="Oval-2-Copy-82" fill="#671411" mask="url(#mask-2)" cx="125" cy="125" r="5"></circle>
                    <circle id="Oval-2-Copy-81" fill="#671411" mask="url(#mask-2)" cx="105" cy="125" r="5"></circle>
                    <circle id="Oval-2-Copy-80" fill="#671411" mask="url(#mask-2)" cx="85" cy="125" r="5"></circle>
                    <circle id="Oval-2-Copy-79" fill="#671411" mask="url(#mask-2)" cx="65" cy="125" r="5"></circle>
                    <circle id="Oval-2-Copy-78" fill="#671411" mask="url(#mask-2)" cx="45" cy="125" r="5"></circle>
                    <circle id="Oval-2-Copy-77" fill="#671411" mask="url(#mask-2)" cx="25" cy="125" r="5"></circle>
                    <circle id="Oval-2-Copy-76" fill="#671411" mask="url(#mask-2)" cx="5" cy="125" r="5"></circle>
                    <circle id="Oval-2-Copy-113" fill="#671411" mask="url(#mask-2)" cx="175" cy="170" r="5"></circle>
                    <circle id="Oval-2-Copy-112" fill="#671411" mask="url(#mask-2)" cx="155" cy="170" r="5"></circle>
                    <circle id="Oval-2-Copy-111" fill="#671411" mask="url(#mask-2)" cx="135" cy="170" r="5"></circle>
                    <circle id="Oval-2-Copy-110" fill="#671411" mask="url(#mask-2)" cx="115" cy="170" r="5"></circle>
                    <circle id="Oval-2-Copy-109" fill="#671411" mask="url(#mask-2)" cx="95" cy="170" r="5"></circle>
                    <circle id="Oval-2-Copy-108" fill="#671411" mask="url(#mask-2)" cx="75" cy="170" r="5"></circle>
                    <circle id="Oval-2-Copy-107" fill="#671411" mask="url(#mask-2)" cx="55" cy="170" r="5"></circle>
                    <circle id="Oval-2-Copy-106" fill="#671411" mask="url(#mask-2)" cx="35" cy="170" r="5"></circle>
                    <circle id="Oval-2-Copy-105" fill="#671411" mask="url(#mask-2)" cx="15" cy="170" r="5"></circle>
                    <circle id="Oval-2-Copy-104" fill="#671411" mask="url(#mask-2)" cx="185" cy="155" r="5"></circle>
                    <circle id="Oval-2-Copy-103" fill="#671411" mask="url(#mask-2)" cx="165" cy="155" r="5"></circle>
                    <circle id="Oval-2-Copy-102" fill="#671411" mask="url(#mask-2)" cx="145" cy="155" r="5"></circle>
                    <circle id="Oval-2-Copy-101" fill="#671411" mask="url(#mask-2)" cx="125" cy="155" r="5"></circle>
                    <circle id="Oval-2-Copy-100" fill="#671411" mask="url(#mask-2)" cx="105" cy="155" r="5"></circle>
                    <circle id="Oval-2-Copy-99" fill="#671411" mask="url(#mask-2)" cx="85" cy="155" r="5"></circle>
                    <circle id="Oval-2-Copy-98" fill="#671411" mask="url(#mask-2)" cx="65" cy="155" r="5"></circle>
                    <circle id="Oval-2-Copy-97" fill="#671411" mask="url(#mask-2)" cx="45" cy="155" r="5"></circle>
                    <circle id="Oval-2-Copy-96" fill="#671411" mask="url(#mask-2)" cx="25" cy="155" r="5"></circle>
                    <circle id="Oval-2-Copy-95" fill="#671411" mask="url(#mask-2)" cx="5" cy="155" r="5"></circle>
                    <circle id="Oval-2-Copy-123" fill="#671411" mask="url(#mask-2)" cx="185" cy="185" r="5"></circle>
                    <circle id="Oval-2-Copy-122" fill="#671411" mask="url(#mask-2)" cx="165" cy="185" r="5"></circle>
                    <circle id="Oval-2-Copy-121" fill="#671411" mask="url(#mask-2)" cx="145" cy="185" r="5"></circle>
                    <circle id="Oval-2-Copy-120" fill="#671411" mask="url(#mask-2)" cx="125" cy="185" r="5"></circle>
                    <circle id="Oval-2-Copy-119" fill="#671411" mask="url(#mask-2)" cx="105" cy="185" r="5"></circle>
                    <circle id="Oval-2-Copy-118" fill="#671411" mask="url(#mask-2)" cx="85" cy="185" r="5"></circle>
                    <circle id="Oval-2-Copy-117" fill="#671411" mask="url(#mask-2)" cx="65" cy="185" r="5"></circle>
                    <circle id="Oval-2-Copy-116" fill="#671411" mask="url(#mask-2)" cx="45" cy="185" r="5"></circle>
                    <circle id="Oval-2-Copy-115" fill="#671411" mask="url(#mask-2)" cx="25" cy="185" r="5"></circle>
                    <circle id="Oval-2-Copy-114" fill="#671411" mask="url(#mask-2)" cx="5" cy="185" r="5"></circle>
                </g>
                <g id="iPhone" transform="translate(20.000000, 30.000000)">
                    <g id="Rectangle">
                        <use fill="#210607" fill-rule="evenodd" xlink:href="#path-3"></use>
                        <rect stroke="#EE2E31" stroke-width="2" x="1" y="1" width="68" height="138" rx="12"></rect>
                    </g>
                    <path d="M15,0 L55,0 L55,6 L55,6 C55,8.209139 53.209139,10 51,10 L19,10 L19,10 C16.790861,10 15,8.209139 15,6 L15,0 Z" id="Rectangle-3" fill="#EE2E31"></path>
                    <rect id="Rectangle-4" fill="#EE2E31" x="12" y="130" width="46" height="2" rx="1"></rect>
                    <path d="M54.1616591,79.6272695 C53.4434999,81.2693187 52.593434,82.7808162 51.60853,84.1704656 C50.266012,86.0649145 49.1667888,87.3762329 48.3196541,88.1044207 C47.0064488,89.2996933 45.5994431,89.9118352 44.0927744,89.946649 C43.0111388,89.946649 41.7067272,89.6420286 40.1883336,89.0240843 C38.6649568,88.4090412 37.2649861,88.1044207 35.984904,88.1044207 C34.642386,88.1044207 33.2025502,88.4090412 31.6624652,89.0240843 C30.1200352,89.6420286 28.8774733,89.9640559 27.9274513,89.9959685 C26.4826323,90.0568926 25.0425033,89.4273437 23.6050125,88.1044207 C22.6875275,87.3124076 21.5399384,85.9546709 20.1651766,84.0312105 C18.6901656,81.9771985 17.4775026,79.5953569 16.5274806,76.8798834 C15.5100396,73.9468239 15,71.1066011 15,68.3568941 C15,65.2071189 15.687674,62.490485 17.065074,60.213955 C18.147589,58.3853622 19.587718,56.9429119 21.390151,55.8839933 C23.1925839,54.8250747 25.1401143,54.2854614 27.2374322,54.2509377 C28.3850213,54.2509377 29.8899311,54.6022666 31.7600762,55.2927396 C33.624945,55.9855335 34.8223655,56.3368623 35.3473545,56.3368623 C35.7398505,56.3368623 37.0700572,55.9260599 39.3250769,55.1070662 C41.45757,54.3475459 43.2573648,54.0330616 44.7317895,54.1569406 C48.7270995,54.4760667 51.7287117,56.034853 53.7249011,58.8431631 C50.1516928,60.9859502 48.3841419,63.9871867 48.419317,67.8372987 C48.4515609,70.8362142 49.5507841,73.3317808 51.7111241,75.3132641 C52.6901656,76.2329277 53.7835263,76.9437087 55,77.4485082 C54.7361864,78.2057076 54.4577165,78.9309943 54.1616591,79.6272695 L54.1616591,79.6272695 Z M44.9985344,43.9402617 C44.9985344,46.2907999 44.1308808,48.4854885 42.4014363,50.5168716 C40.3143778,52.9317862 37.7899751,54.3272379 35.0524696,54.1070409 C35.0175876,53.8250494 34.9973619,53.528262 34.9973619,53.2163888 C34.9973619,50.9598767 35.9898871,48.544962 37.7524549,46.5704415 C38.6324198,45.5707063 39.7515756,44.7394406 41.1087498,44.0763255 C42.4629928,43.4231033 43.7439543,43.0618525 44.9487029,43 C44.9838781,43.3142232 44.9985344,43.6284754 44.9985344,43.9402327 L44.9985344,43.9402617 Z" id="Shape" fill="#EE2E31" fill-rule="nonzero"></path>
                </g>
                <g id="Samsung" transform="translate(110.000000, 30.000000)">
                    <g id="Rectangle">
                        <use fill="#210607" fill-rule="evenodd" xlink:href="#path-4"></use>
                        <rect stroke="#EE2E31" stroke-width="2" x="1" y="1" width="68" height="138" rx="12"></rect>
                    </g>
                    <path d="M69,105 L1,105 L1,119.085714 C1,124.768553 5.91214073,129.4 12,129.4 L58,129.4 C64.0878593,129.4 69,124.768553 69,119.085714 L69,105 Z" id="Rectangle" stroke="#EE2E31" stroke-width="2"></path>
                    <path d="M69,11 L1,11 L1,25.0857143 C1,30.768553 5.91214073,35.4 12,35.4 L58,35.4 C64.0878593,35.4 69,30.768553 69,25.0857143 L69,11 Z" id="Rectangle" stroke="#EE2E31" stroke-width="2" transform="translate(35.000000, 23.200000) scale(1, -1) translate(-35.000000, -23.200000) "></path>
                    <g id="Android_robot" transform="translate(15.000000, 44.000000)">
                        <g id="Group" fill-rule="nonzero" fill="#EE2E31">
                            <g id="b-link" transform="translate(7.272727, 3.670588)" stroke-width="2.01398601" stroke="#210607">
                                <g id="b">
                                    <ellipse id="Oval" cx="12.7272727" cy="11.8588235" rx="12.7272727" ry="11.8588235"></ellipse>
                                    <rect id="Rectangle-path" x="0" y="8.89411765" width="25.4545455" height="25.6941176" rx="3.07692308"></rect>
                                </g>
                            </g>
                            <g id="a-link" transform="translate(25.000000, 24.500000) scale(-1, 1) translate(-25.000000, -24.500000) translate(10.000000, 0.000000)" stroke="#210607">
                                <g id="a">
                                    <rect id="Rectangle-path" stroke-width="1.00699301" transform="translate(25.423289, 5.834816) rotate(29.000000) translate(-25.423289, -5.834816) " x="24.5141983" y="-0.235771792" width="1.81818182" height="12.1411765" rx="0.909090909"></rect>
                                    <rect id="c" x="0" y="15.5294118" width="6.71328671" height="18.7764706" rx="3.35664336"></rect>
                                    <g id="c-link" transform="translate(11.888112, 29.223529)">
                                        <rect id="c" x="0" y="0" width="6.71328671" height="18.7764706" rx="3.35664336"></rect>
                                    </g>
                                </g>
                            </g>
                            <g id="a" stroke="#210607">
                                <rect id="Rectangle-path" stroke-width="1.00699301" transform="translate(25.423289, 5.834816) rotate(29.000000) translate(-25.423289, -5.834816) " x="24.5141983" y="-0.235771792" width="1.81818182" height="12.1411765" rx="0.909090909"></rect>
                                <rect id="c" x="0" y="15.5294118" width="6.71328671" height="18.7764706" rx="3.35664336"></rect>
                                <g id="c-link" transform="translate(11.888112, 29.223529)">
                                    <rect id="c" x="0" y="0" width="6.71328671" height="18.7764706" rx="3.35664336"></rect>
                                </g>
                            </g>
                            <g id="b" transform="translate(7.272727, 3.670588)">
                                <ellipse id="Oval" cx="12.7272727" cy="11.8588235" rx="12.7272727" ry="11.8588235"></ellipse>
                                <rect id="Rectangle-path" x="0" y="8.89411765" width="25.4545455" height="25.6941176" rx="3.07692308"></rect>
                            </g>
                        </g>
                        <g id="Group" transform="translate(6.713287, 9.176471)" stroke="#210607" fill-rule="nonzero" fill="#210607">
                            <ellipse id="Oval" cx="7.41258741" cy="0.564705882" rx="1" ry="1"></ellipse>
                            <ellipse id="Oval" cx="19.1608392" cy="0.564705882" rx="1" ry="1"></ellipse>
                        </g>
                        <rect id="Rectangle-13" fill="#210607" x="7" y="15" width="26" height="1"></rect>
                    </g>
                </g>
            </g>
        </g>
    </g>
</svg>