<?xml version="1.0" encoding="UTF-8"?>
<svg width="480px" height="280px" viewBox="0 0 480 280" version="1.1" xmlns="http://www.w3.org/2000/svg" xmlns:xlink="http://www.w3.org/1999/xlink">
    <!-- Generator: Sketch 47.1 (45422) - http://www.bohemiancoding.com/sketch -->
    <title>Popunder</title>
    <desc>Created with Sketch.</desc>
    <defs>
        <rect id="path-1" x="0" y="0" width="420" height="240"></rect>
        <path d="M11.8668728,39.0588235 C12.2360148,39.624 12.9547963,39.9995529 13.6291678,39.9995529 L27.4925558,39.9995529 L13.6291678,20 L27.4925558,0.00190588235 L13.6291678,0 C12.9533864,0 12.2355449,0.373882353 11.8668728,0.941176471 L0.705670579,18 C-0.0147556501,19.1082353 -0.0171053769,20.8934118 0.705670579,22 L11.8668728,39.0588235 Z" id="path-2"></path>
        <path d="M0.352459016,39.0588235 C-0.0166830601,39.624 -0.735464481,39.9995529 -1.40983607,39.9995529 L-15.273224,39.9995529 L-1.40983607,20 L-15.273224,0.00190588235 L-1.40983607,0 C-0.734054645,0 -0.0162131148,0.373882353 0.352459016,0.941176471 L11.5136612,18 C12.2340874,19.1082353 12.2364372,20.8934118 11.5136612,22 L0.352459016,39.0588235 Z" id="path-4"></path>
        <filter x="-18.3%" y="-17.5%" width="151.2%" height="135.0%" filterUnits="objectBoundingBox" id="filter-5">
            <feOffset dx="2" dy="0" in="SourceAlpha" result="shadowOffsetOuter1"></feOffset>
            <feGaussianBlur stdDeviation="2" in="shadowOffsetOuter1" result="shadowBlurOuter1"></feGaussianBlur>
            <feColorMatrix values="0 0 0 0 0.933333333   0 0 0 0 0.180392157   0 0 0 0 0.192156863  0 0 0 0.7 0" type="matrix" in="shadowBlurOuter1"></feColorMatrix>
        </filter>
        <rect id="path-6" x="0" y="0" width="420" height="240"></rect>
    </defs>
    <g id="Illustrations" stroke="none" stroke-width="1" fill="none" fill-rule="evenodd">
        <g id="Popunder">
            <g>
                <g>
                    <g id="Base-Copy" transform="translate(0.000000, 40.000000)">
                        <g id="Rectangle-2">
                            <use fill="#EE2E31" fill-rule="evenodd" xlink:href="#path-1"></use>
                            <rect stroke="#210607" stroke-width="2" x="1" y="1" width="418" height="238"></rect>
                        </g>
                        <g id="X_logo" transform="translate(8.000000, 192.000000)">
                            <g id="Group" transform="translate(15.273224, 0.000000)">
                                <mask id="mask-3" fill="white">
                                    <use xlink:href="#path-2"></use>
                                </mask>
                                <use id="right" fill="#671411" xlink:href="#path-2"></use>
                                <g id="shadow" mask="url(#mask-3)">
                                    <use fill="black" fill-opacity="1" filter="url(#filter-5)" xlink:href="#path-4"></use>
                                    <use fill="#EE2E31" fill-rule="evenodd" xlink:href="#path-4"></use>
                                </g>
                            </g>
                            <path d="M15.6256831,39.0588235 C15.256541,39.624 14.5377596,39.9995529 13.863388,39.9995529 L0,39.9995529 L13.863388,20 L1.42024496e-16,0.00190588235 L13.863388,0 C14.5391694,0 15.2570109,0.373882353 15.6256831,0.941176471 L26.7868852,18 C27.5073115,19.1082353 27.5096612,20.8934118 26.7868852,22 L15.6256831,39.0588235 Z" id="left" fill="#671411"></path>
                        </g>
                        <rect id="Rectangle" fill="#210607" x="0" y="28" width="420" height="2"></rect>
                        <circle id="Oval" stroke="#210607" stroke-width="2" cx="15" cy="15" r="6"></circle>
                        <circle id="Oval-Copy" stroke="#210607" stroke-width="2" cx="35" cy="15" r="6"></circle>
                        <circle id="Oval-Copy-2" stroke="#210607" stroke-width="2" cx="55" cy="15" r="6"></circle>
                    </g>
                    <g id="Base" transform="translate(60.000000, 0.000000)">
                        <g id="Rectangle-2">
                            <use fill="#3B0B0C" fill-rule="evenodd" xlink:href="#path-6"></use>
                            <rect stroke="#EE2E31" stroke-width="2" x="1" y="1" width="418" height="238"></rect>
                        </g>
                        <g id="text" transform="translate(60.000000, 134.000000)" fill="#FFFFFF" opacity="0.699999988">
                            <rect id="Rectangle-3" x="160" y="0" width="40" height="6" rx="2"></rect>
                            <rect id="Rectangle-3-Copy" x="0" y="90" width="48" height="6" rx="2"></rect>
                            <rect id="Rectangle-3-Copy" x="58" y="90" width="82" height="6" rx="2"></rect>
                            <rect id="Rectangle-3-Copy-2" x="0" y="72" width="140" height="6" rx="2"></rect>
                            <rect id="Rectangle-3-Copy-3" x="0" y="54" width="68" height="6" rx="2"></rect>
                            <rect id="Rectangle-3-Copy-3" x="78" y="54" width="62" height="6" rx="2"></rect>
                            <rect id="Rectangle-3-Copy-4" x="0" y="36" width="44" height="6" rx="2"></rect>
                            <rect id="Rectangle-3-Copy-4" x="54" y="36" width="24" height="6" rx="2"></rect>
                            <rect id="Rectangle-3-Copy-4" x="88" y="36" width="52" height="6" rx="2"></rect>
                            <rect id="Rectangle-3-Copy-5" x="0" y="18" width="28" height="6" rx="2"></rect>
                            <rect id="Rectangle-3-Copy-5" x="38" y="18" width="102" height="6" rx="2"></rect>
                            <rect id="Rectangle-3-Copy-6" x="0" y="0" width="58" height="6" rx="2"></rect>
                            <rect id="Rectangle-3-Copy-6" x="68" y="0" width="72" height="6" rx="2"></rect>
                            <rect id="Rectangle-3" x="210" y="0" width="60" height="6" rx="2"></rect>
                            <rect id="Rectangle-3" x="280" y="0" width="20" height="6" rx="2"></rect>
                            <rect id="Rectangle-3" x="160" y="18" width="80" height="6" rx="2"></rect>
                            <rect id="Rectangle-3" x="250" y="18" width="50" height="6" rx="2"></rect>
                            <rect id="Rectangle-3" x="160" y="36" width="60" height="6" rx="2"></rect>
                            <rect id="Rectangle-3" x="230" y="36" width="70" height="6" rx="2"></rect>
                            <rect id="Rectangle-3-Copy-4" x="160" y="90" width="60" height="6" rx="2"></rect>
                            <rect id="Rectangle-3-Copy-4" x="230" y="90" width="30" height="6" rx="2"></rect>
                            <rect id="Rectangle-3-Copy-4" x="270" y="90" width="30" height="6" rx="2"></rect>
                            <rect id="Rectangle-3-Copy-5" x="160" y="72" width="100" height="6" rx="2"></rect>
                            <rect id="Rectangle-3-Copy-5" x="270" y="72" width="30" height="6" rx="2"></rect>
                            <rect id="Rectangle-3-Copy-6" x="160" y="54" width="40" height="6" rx="2"></rect>
                            <rect id="Rectangle-3-Copy-6" x="210" y="54" width="60" height="6" rx="2"></rect>
                            <rect id="Rectangle-3-Copy-6" x="280" y="54" width="20" height="6" rx="2"></rect>
                        </g>
                        <path d="M104,38 L316,38 L316,38 C318.209139,38 320,39.790861 320,42 L320,120 C320,122.209139 318.209139,124 316,124 L104,124 C101.790861,124 100,122.209139 100,120 L100,42 L100,42 C100,39.790861 101.790861,38 104,38 L104,38 Z M106,40 L106,40 C103.790861,40 102,41.790861 102,44 L102,44 L102,108 L128.930495,81.8615779 C132.851826,78.0555808 139.102223,78.1022229 142.966317,81.966317 L169,108 L171,106 L163,98 L189.708498,72.0770464 C189.746754,72.0399155 189.785306,72.003091 189.824151,71.9665767 C193.848251,68.1839231 200.176875,68.3796538 203.959528,72.4037533 L244,115 L246,113 L234,100 L273.055553,66.0386499 C276.980617,62.6255506 282.866797,62.7913552 286.593507,66.4199933 L286.593507,66.4199933 L318,97 L318,44 C318,41.790861 316.209139,40 314,40 L314,40 L106,40 Z M185,80 C187.666667,82.6666667 191.678556,84 197.035669,84 C202.392781,84 206.047558,82.6666667 208,80 L202.672391,74.1691555 C202.59399,74.0833492 202.513729,73.9992617 202.431664,73.9169529 C199.312109,70.7881257 194.246795,70.7806088 191.117968,73.9001634 L185,80 Z M229.5,64 C225.357864,64 222,60.6421356 222,56.5 C222,52.3578644 225.357864,49 229.5,49 C233.642136,49 237,52.3578644 237,56.5 C237,60.6421356 233.642136,64 229.5,64 Z" id="Combined-Shape" fill="#FFFFFF" opacity="0.699999988"></path>
                        <rect id="Rectangle" fill="#EE2E31" x="0" y="28" width="420" height="2"></rect>
                        <circle id="Oval" stroke="#EE2E31" stroke-width="2" cx="15" cy="15" r="6"></circle>
                        <circle id="Oval-Copy" stroke="#EE2E31" stroke-width="2" cx="35" cy="15" r="6"></circle>
                        <circle id="Oval-Copy-2" stroke="#EE2E31" stroke-width="2" cx="55" cy="15" r="6"></circle>
                    </g>
                </g>
            </g>
        </g>
    </g>
</svg>