<?xml version="1.0" encoding="UTF-8"?>
<svg width="480px" height="280px" viewBox="0 0 480 280" version="1.1" xmlns="http://www.w3.org/2000/svg" xmlns:xlink="http://www.w3.org/1999/xlink">
    <!-- Generator: Sketch 47.1 (45422) - http://www.bohemiancoding.com/sketch -->
    <title>Banners</title>
    <desc>Created with Sketch.</desc>
    <defs>
        <rect id="path-1" x="0" y="0" width="480" height="280"></rect>
        <path d="M5.79544949,19.5294118 C5.97572818,19.812 6.32676097,19.9997765 6.65610523,19.9997765 L13.426597,19.9997765 L6.65610523,10 L13.426597,0.000952941176 L6.65610523,0 C6.32607244,0 5.97549867,0.186941176 5.79544949,0.470588235 L0.344629818,9 C-0.00720624774,9.55411765 -0.00835378873,10.4467059 0.344629818,11 L5.79544949,19.5294118 Z" id="path-2"></path>
        <path d="M0.172131148,19.5294118 C-0.00814754098,19.812 -0.359180328,19.9997765 -0.68852459,19.9997765 L-7.45901639,19.9997765 L-0.68852459,10 L-7.45901639,0.000952941176 L-0.68852459,0 C-0.358491803,0 -0.00791803279,0.186941176 0.172131148,0.470588235 L5.62295082,9 C5.97478689,9.55411765 5.97593443,10.4467059 5.62295082,11 L0.172131148,19.5294118 Z" id="path-4"></path>
        <filter x="-18.7%" y="-17.5%" width="152.4%" height="135.0%" filterUnits="objectBoundingBox" id="filter-5">
            <feOffset dx="1" dy="0" in="SourceAlpha" result="shadowOffsetOuter1"></feOffset>
            <feGaussianBlur stdDeviation="1" in="shadowOffsetOuter1" result="shadowBlurOuter1"></feGaussianBlur>
            <feColorMatrix values="0 0 0 0 0.933333333   0 0 0 0 0.180392157   0 0 0 0 0.192156863  0 0 0 0.7 0" type="matrix" in="shadowBlurOuter1"></feColorMatrix>
        </filter>
        <path d="M8.83116113,29.2941176 C9.10587151,29.718 9.64077861,29.9996647 10.1426365,29.9996647 L20.4595764,29.9996647 L10.1426365,15 L20.4595764,0.00142941176 L10.1426365,0 C9.63972943,0 9.10552178,0.280411765 8.83116113,0.705882353 L0.525150199,13.5 C-0.0109809489,14.3311765 -0.0127295828,15.6700588 0.525150199,16.5 L8.83116113,29.2941176 Z" id="path-6"></path>
        <path d="M0.262295082,29.2941176 C-0.0124153005,29.718 -0.547322404,29.9996647 -1.04918033,29.9996647 L-11.3661202,29.9996647 L-1.04918033,15 L-11.3661202,0.00142941176 L-1.04918033,0 C-0.546273224,0 -0.0120655738,0.280411765 0.262295082,0.705882353 L8.56830601,13.5 C9.10443716,14.3311765 9.10618579,15.6700588 8.56830601,16.5 L0.262295082,29.2941176 Z" id="path-8"></path>
        <filter x="-17.2%" y="-18.3%" width="154.1%" height="136.7%" filterUnits="objectBoundingBox" id="filter-9">
            <feOffset dx="2" dy="0" in="SourceAlpha" result="shadowOffsetOuter1"></feOffset>
            <feGaussianBlur stdDeviation="1.5" in="shadowOffsetOuter1" result="shadowBlurOuter1"></feGaussianBlur>
            <feColorMatrix values="0 0 0 0 0.933333333   0 0 0 0 0.180392157   0 0 0 0 0.192156863  0 0 0 0.7 0" type="matrix" in="shadowBlurOuter1"></feColorMatrix>
        </filter>
    </defs>
    <g id="Illustrations" stroke="none" stroke-width="1" fill="none" fill-rule="evenodd">
        <g id="Banners">
            <g>
                <g>
                    <g id="Base">
                        <g id="Rectangle-2">
                            <use fill="#3B0B0C" fill-rule="evenodd" xlink:href="#path-1"></use>
                            <rect stroke="#EE2E31" stroke-width="2" x="1" y="1" width="478" height="278"></rect>
                        </g>
                        <rect id="Rectangle" fill="#EE2E31" x="0" y="28" width="480" height="2"></rect>
                        <circle id="Oval" stroke="#EE2E31" stroke-width="2" cx="15" cy="15" r="6"></circle>
                        <circle id="Oval-Copy" stroke="#EE2E31" stroke-width="2" cx="35" cy="15" r="6"></circle>
                        <circle id="Oval-Copy-2" stroke="#EE2E31" stroke-width="2" cx="55" cy="15" r="6"></circle>
                    </g>
                    <rect id="Rectangle-4" fill="#EE2E31" x="400" y="115" width="69" height="114" rx="4"></rect>
                    <rect id="Rectangle-5" fill="#EE2E31" x="90" y="42" width="300" height="42" rx="4"></rect>
                    <g id="X_logo" transform="translate(230.000000, 53.000000)">
                        <g id="Group" transform="translate(7.459016, 0.000000)">
                            <mask id="mask-3" fill="white">
                                <use xlink:href="#path-2"></use>
                            </mask>
                            <use id="right" fill="#671411" xlink:href="#path-2"></use>
                            <g id="shadow" mask="url(#mask-3)">
                                <use fill="black" fill-opacity="1" filter="url(#filter-5)" xlink:href="#path-4"></use>
                                <use fill="#EE2E31" fill-rule="evenodd" xlink:href="#path-4"></use>
                            </g>
                        </g>
                        <path d="M7.63114754,19.5294118 C7.45086885,19.812 7.09983607,19.9997765 6.7704918,19.9997765 L0,19.9997765 L6.7704918,10 L6.93608005e-17,0.000952941176 L6.7704918,0 C7.10052459,0 7.45109836,0.186941176 7.63114754,0.470588235 L13.0819672,9 C13.4338033,9.55411765 13.4349508,10.4467059 13.0819672,11 L7.63114754,19.5294118 Z" id="left" fill="#671411"></path>
                    </g>
                    <g id="X_logo" transform="translate(419.000000, 157.000000)">
                        <g id="Group" transform="translate(11.366120, 0.000000)">
                            <mask id="mask-7" fill="white">
                                <use xlink:href="#path-6"></use>
                            </mask>
                            <use id="right" fill="#671411" xlink:href="#path-6"></use>
                            <g id="shadow" mask="url(#mask-7)">
                                <use fill="black" fill-opacity="1" filter="url(#filter-9)" xlink:href="#path-8"></use>
                                <use fill="#EE2E31" fill-rule="evenodd" xlink:href="#path-8"></use>
                            </g>
                        </g>
                        <path d="M11.6284153,29.2941176 C11.3537049,29.718 10.8187978,29.9996647 10.3169399,29.9996647 L0,29.9996647 L10.3169399,15 L1.05692648e-16,0.00142941176 L10.3169399,0 C10.819847,0 11.3540546,0.280411765 11.6284153,0.705882353 L19.9344262,13.5 C20.4705574,14.3311765 20.472306,15.6700588 19.9344262,16.5 L11.6284153,29.2941176 Z" id="left" fill="#671411"></path>
                    </g>
                    <g id="text" transform="translate(90.000000, 97.000000)" fill="#FFFFFF" opacity="0.699999988">
                        <rect id="Rectangle-3" x="160" y="36" width="40" height="6" rx="2"></rect>
                        <rect id="Rectangle-3" x="210" y="36" width="90" height="6" rx="2"></rect>
                        <rect id="Rectangle-3" x="160" y="54" width="80" height="6" rx="2"></rect>
                        <rect id="Rectangle-3" x="250" y="54" width="50" height="6" rx="2"></rect>
                        <rect id="Rectangle-3" x="160" y="72" width="60" height="6" rx="2"></rect>
                        <rect id="Rectangle-3" x="230" y="72" width="70" height="6" rx="2"></rect>
                        <rect id="Rectangle-3" x="0" y="162" width="130" height="6" rx="2"></rect>
                        <rect id="Rectangle-3" x="140" y="162" width="40" height="6" rx="2"></rect>
                        <rect id="Rectangle-3" x="190" y="162" width="110" height="6" rx="2"></rect>
                        <rect id="Rectangle-3" x="0" y="144" width="60" height="6" rx="2"></rect>
                        <rect id="Rectangle-3" x="70" y="144" width="130" height="6" rx="2"></rect>
                        <rect id="Rectangle-3" x="210" y="144" width="90" height="6" rx="2"></rect>
                        <rect id="Rectangle-3" x="0" y="18" width="30" height="6" rx="2"></rect>
                        <rect id="Rectangle-3" x="40" y="18" width="110" height="6" rx="2"></rect>
                        <rect id="Rectangle-3" x="160" y="18" width="140" height="6" rx="2"></rect>
                        <rect id="Rectangle-3" x="0" y="0" width="90" height="6" rx="2"></rect>
                        <rect id="Rectangle-3" x="100" y="0" width="130" height="6" rx="2"></rect>
                        <rect id="Rectangle-3" x="240" y="0" width="60" height="6" rx="2"></rect>
                        <rect id="Rectangle-3-Copy-4" x="160" y="126" width="60" height="6" rx="2"></rect>
                        <rect id="Rectangle-3-Copy-4" x="230" y="126" width="30" height="6" rx="2"></rect>
                        <rect id="Rectangle-3-Copy-4" x="270" y="126" width="30" height="6" rx="2"></rect>
                        <rect id="Rectangle-3-Copy-5" x="160" y="108" width="80" height="6" rx="2"></rect>
                        <rect id="Rectangle-3-Copy-5" x="250" y="108" width="50" height="6" rx="2"></rect>
                        <rect id="Rectangle-3-Copy-6" x="160" y="90" width="40" height="6" rx="2"></rect>
                        <rect id="Rectangle-3-Copy-6" x="210" y="90" width="60" height="6" rx="2"></rect>
                        <rect id="Rectangle-3-Copy-6" x="280" y="90" width="20" height="6" rx="2"></rect>
                    </g>
                    <path d="M231,138 C233.209139,138 235,139.790861 235,142 L235,220 C235,222.209139 233.209139,224 231,224 L100,224 C97.790861,224 96,222.209139 96,220 L96,142 C96,139.790861 97.790861,138 100,138 L231,138 Z M229,140 L102,140 C99.790861,140 98,141.790861 98,144 L98,209 L131.049918,172.64509 C134.764987,168.558514 141.08947,168.257348 145.176047,171.972418 C145.2566,172.045648 145.335953,172.120189 145.414072,172.196011 L172,198 L164,206 L166,208 L192.033683,181.966317 C195.897777,178.102223 202.148174,178.055581 206.069505,181.861578 L233,208 L233,144 C233,141.790861 231.209139,140 229,140 Z M150,180 L143.882032,173.900163 C140.753205,170.780609 135.687891,170.788126 132.568336,173.916953 C132.486271,173.999262 132.40601,174.083349 132.327609,174.169155 L127,180 C128.952442,182.666667 132.607219,184 137.964331,184 C143.321444,184 147.333333,182.666667 150,180 Z M175.5,164 C171.357864,164 168,160.642136 168,156.5 C168,152.357864 171.357864,149 175.5,149 C179.642136,149 183,152.357864 183,156.5 C183,160.642136 179.642136,164 175.5,164 Z" id="Combined-Shape" fill="#FFFFFF" opacity="0.699999988"></path>
                </g>
            </g>
        </g>
    </g>
</svg>