<?xml version="1.0" encoding="UTF-8"?>
<svg width="80px" height="80px" viewBox="0 0 80 80" version="1.1" xmlns="http://www.w3.org/2000/svg" xmlns:xlink="http://www.w3.org/1999/xlink">
    <!-- Generator: Sketch 47.1 (45422) - http://www.bohemiancoding.com/sketch -->
    <title>Country</title>
    <desc>Created with Sketch.</desc>
    <defs></defs>
    <g id="Setup-Icons" stroke="none" stroke-width="1" fill="none" fill-rule="evenodd">
        <g id="Country">
            <g id="Icons/Country">
                <path d="M66,44 C66,58.336 54.336,70 40,70 C39.811,70 39.626,69.946 39.466,69.846 C36.828,68.181 30.65,64.283 33.046,58.692 C35.159,53.761 33.522,52.23 32.643,51.408 C32.552,51.323 32.469,51.245 32.396,51.172 C32.268,51.044 32.058,50.918 31.835,50.785 C30.973,50.268 29.531,49.402 30.43,46.701 C30.831,45.498 31.413,44.883 31.88,44.388 C32.51,43.722 32.965,43.24 32.965,40.983 C32.965,40.117 32.605,39.537 31.865,39.21 C30.862,38.766 29.524,38.968 28.998,39.446 C28.814,39.613 28.846,39.706 28.878,39.805 C29.891,42.837 28.063,46.66 24.221,49.541 C22.783,50.62 21.326,50.571 20.32,49.414 C18.918,47.798 18.792,44.277 19.939,42.486 C19.207,42.262 17.766,42.064 16.079,42.07 C16.026,42.694 16,43.307 16,44 C16,55.067 23.493,64.649 34.222,67.3 C34.758,67.432 35.086,67.974 34.953,68.51 C34.841,68.966 34.432,69.271 33.983,69.271 C33.904,69.271 33.823,69.261 33.743,69.241 C22.119,66.369 14,55.99 14,44 C14,42.909 14.054,42.002 14.181,40.968 C14.186,40.929 14.208,40.898 14.217,40.861 C14.234,40.792 14.253,40.728 14.283,40.666 C14.309,40.612 14.339,40.564 14.374,40.517 C14.416,40.459 14.459,40.407 14.513,40.358 C14.553,40.322 14.596,40.292 14.642,40.263 C14.703,40.223 14.765,40.19 14.835,40.165 C14.891,40.144 14.947,40.132 15.007,40.122 C15.049,40.114 15.084,40.093 15.128,40.091 C16.152,40.042 21.32,39.9 22.13,41.738 C22.377,42.297 22.231,42.924 21.74,43.415 C21.007,44.147 20.938,47.074 21.831,48.103 C21.974,48.269 22.215,48.546 23.021,47.941 C26.065,45.658 27.694,42.572 26.981,40.437 C26.679,39.53 26.924,38.629 27.652,37.967 C28.818,36.909 31.023,36.651 32.674,37.381 C34.13,38.024 34.965,39.337 34.965,40.983 C34.965,43.811 34.258,44.784 33.333,45.762 C32.934,46.185 32.588,46.55 32.328,47.333 C31.935,48.512 32.132,48.63 32.864,49.069 C33.166,49.25 33.507,49.456 33.81,49.758 L34.009,49.947 C35.069,50.938 37.55,53.258 34.884,59.48 C33.399,62.945 36.732,65.727 40.288,67.999 C53.39,67.843 64,57.138 64,44 C64,42.894 63.923,41.775 63.771,40.676 C63.695,40.129 64.078,39.624 64.625,39.548 C65.164,39.472 65.676,39.854 65.752,40.402 C65.917,41.592 66,42.802 66,44 L66,44 Z M37.98,19.061 C37.958,18.509 38.387,18.043 38.939,18.021 C41.432,17.922 43.962,18.179 46.374,18.787 C46.897,18.919 47.221,19.443 47.106,19.97 C46.847,21.156 47.284,21.851 47.708,22.522 C47.996,22.981 48.295,23.455 48.295,24.037 C48.295,28.133 47.378,30.209 45.57,30.209 C44.8,30.209 42.739,31.186 42.052,32.468 C41.785,32.966 41.797,33.386 42.092,33.828 C42.636,34.643 43.097,35.536 43.504,36.324 C43.944,37.176 44.681,38.603 45.052,38.69 C45.697,38.374 46.506,36.768 47.042,35.706 C47.955,33.896 48.651,32.454 49.925,32.521 C52.363,32.629 53.318,34.697 54.015,36.207 C54.348,36.928 54.726,37.745 55.102,37.933 C55.812,38.284 59.798,37.953 62.909,36.857 C60.794,30.082 55.689,24.484 49.09,21.781 C48.579,21.572 48.334,20.988 48.543,20.477 C48.752,19.966 49.335,19.721 49.848,19.931 C57.3,22.982 63.001,29.437 65.1,37.197 C65.112,37.241 65.103,37.283 65.108,37.327 C65.118,37.395 65.126,37.459 65.122,37.526 C65.117,37.59 65.102,37.649 65.085,37.711 C65.069,37.773 65.053,37.833 65.024,37.891 C64.996,37.948 64.96,37.998 64.921,38.049 C64.883,38.1 64.846,38.148 64.798,38.192 C64.748,38.237 64.692,38.27 64.633,38.305 C64.595,38.327 64.567,38.361 64.526,38.378 C61.455,39.682 55.898,40.567 54.208,39.722 C53.204,39.22 52.693,38.115 52.199,37.045 C51.528,35.591 51.032,34.673 50.017,34.535 C49.707,34.864 49.184,35.9 48.828,36.606 C48.02,38.208 47.184,39.866 46.018,40.449 C45.652,40.632 45.314,40.714 45,40.714 C43.521,40.714 42.577,38.888 41.727,37.242 C41.325,36.464 40.91,35.66 40.428,34.937 C39.725,33.881 39.675,32.669 40.289,31.524 C41.289,29.657 43.949,28.209 45.57,28.209 C45.562,28.207 46.295,27.624 46.295,24.037 C46.277,24.004 46.125,23.764 46.015,23.588 C45.615,22.954 44.994,21.967 45.03,20.528 C43.068,20.109 41.028,19.938 39.02,20.02 C38.433,20.038 38.002,19.612 37.98,19.061 L37.98,19.061 Z M14.758,37.748 C15.552,34.187 18.244,29.109 20.52,26.88 C20.913,26.494 21.546,26.5 21.934,26.895 C22.32,27.29 22.313,27.923 21.919,28.309 C19.905,30.282 17.422,34.988 16.71,38.183 C16.606,38.648 16.193,38.965 15.735,38.965 C15.663,38.965 15.59,38.958 15.517,38.941 C14.978,38.821 14.638,38.287 14.758,37.748 L14.758,37.748 Z M39.531,61.688 C39.876,61.118 40.363,60.716 40.627,60.573 C40.911,60.91 41.157,61.332 41.282,61.707 C41.393,62.038 41.403,62.313 41.309,62.407 C40.865,62.851 39.711,62.839 39.279,62.418 C39.265,62.375 39.266,62.125 39.531,61.688 L39.531,61.688 Z M40.291,64.762 C41.239,64.762 42.125,64.419 42.723,63.822 C43.387,63.158 43.549,62.182 43.179,61.075 C42.93,60.327 42.437,59.536 41.86,58.959 C41.574,58.674 41.186,58.517 40.765,58.517 C39.517,58.517 38.053,59.953 37.519,61.242 C37.102,62.249 37.226,63.188 37.86,63.822 C38.457,64.419 39.343,64.762 40.291,64.762 L40.291,64.762 Z M56.716,46.649 C56.669,46.846 56.171,47.323 55.84,47.64 C55.085,48.362 54.146,49.261 53.706,50.581 C53.212,52.062 51.544,52.136 51.215,52.136 C50.632,52.136 50.266,51.982 50.19,51.914 C49.212,50.936 47.467,50.063 45.619,49.14 C45.615,49.138 45.612,49.137 45.608,49.135 C45.796,49.059 46.144,49.052 46.45,49.205 C46.773,49.367 47.104,49.449 47.435,49.449 C48.542,49.449 49.241,48.595 49.857,47.842 C50.308,47.292 50.772,46.724 51.207,46.724 C51.562,46.724 51.975,46.606 52.545,46.443 C53.302,46.227 54.244,45.958 55.102,45.958 C55.747,45.958 56.215,46.113 56.533,46.431 C56.672,46.571 56.709,46.649 56.716,46.649 L56.716,46.649 Z M51.996,44.52 C51.707,44.603 51.312,44.716 51.207,44.724 C49.825,44.724 48.949,45.794 48.31,46.575 C48.066,46.874 47.63,47.434 47.344,47.416 C46.892,47.19 46.417,47.076 45.932,47.076 C44.753,47.076 43.732,47.777 43.504,48.745 C43.343,49.425 43.58,50.356 44.725,50.929 C46.349,51.741 48.028,52.58 48.775,53.327 C49.289,53.841 50.178,54.136 51.215,54.136 C52.79,54.136 54.884,53.371 55.603,51.213 C55.887,50.363 56.566,49.713 57.223,49.084 C57.985,48.354 58.706,47.666 58.716,46.676 C58.723,46.092 58.464,45.534 57.948,45.017 C57.245,44.314 56.288,43.958 55.102,43.958 C53.964,43.958 52.826,44.283 51.996,44.52 L51.996,44.52 Z" id="location-globe" fill="#671411"></path>
                <rect id="Rectangle-16" fill="#D8D8D8" opacity="0" x="0" y="0" width="80" height="80"></rect>
                <path d="M37.219,40.625 C37.409,40.862 37.696,41 38,41 C38.304,41 38.591,40.862 38.781,40.625 L42.752,35.659 C43.85,34.405 46,30.755 46,28 C46,23.589 42.411,20 38,20 C33.589,20 30,23.589 30,28 C30,31.221 32.871,35.16 33.219,35.625 L37.219,40.625 Z" id="Path" fill="#EE2E31"></path>
                <path d="M37.219,40.625 L33.219,35.625 C32.871,35.16 30,31.221 30,28 C30,23.589 33.589,20 38,20 C42.411,20 46,23.589 46,28 C46,30.755 43.85,34.405 42.752,35.659 L38.781,40.625 C38.591,40.862 38.304,41 38,41 C37.696,41 37.409,40.862 37.219,40.625 Z M38,22 C34.691,22 32,24.691 32,28 C32,30.096 33.833,33.104 34.801,34.402 L38,38.399 L41.219,34.375 C42.182,33.274 44,30.068 44,28 C44,24.691 41.309,22 38,22 Z M36,28 C36,26.897 36.897,26 38,26 C39.103,26 40,26.897 40,28 C40,29.103 39.103,30 38,30 C36.897,30 36,29.103 36,28 Z" id="Combined-Shape" fill="#671411"></path>
            </g>
        </g>
    </g>
</svg>