<?xml version="1.0" encoding="UTF-8"?>
<svg width="80px" height="80px" viewBox="0 0 80 80" version="1.1" xmlns="http://www.w3.org/2000/svg" xmlns:xlink="http://www.w3.org/1999/xlink">
    <!-- Generator: Sketch 47.1 (45422) - http://www.bohemiancoding.com/sketch -->
    <title>Device format</title>
    <desc>Created with Sketch.</desc>
    <defs></defs>
    <g id="Setup-Icons" stroke="none" stroke-width="1" fill="none" fill-rule="evenodd">
        <g id="Device-format">
            <g id="Icons/Device-Format">
                <rect id="Rectangle-16" fill="#D8D8D8" opacity="0" x="0" y="0" width="80" height="80"></rect>
                <rect id="Rectangle-2" fill="#EE2E31" x="57" y="45" width="12" height="24" rx="1"></rect>
                <path d="M70,15 L70,41 C70,41.552 69.553,42 69,42 C68.447,42 68,41.552 68,41 L68,15 C68,13.346 66.654,12 65,12 L15,12 C13.346,12 12,13.346 12,15 L12,33 C12,33.552 11.553,34 11,34 C10.447,34 10,33.552 10,33 L10,15 C10,12.243 12.243,10 15,10 L65,10 C67.757,10 70,12.243 70,15 L70,15 Z M53,44 L39,44 C38.447,44 38,44.448 38,45 C38,45.552 38.447,46 39,46 L53,46 C53.553,46 54,45.552 54,45 C54,44.448 53.553,44 53,44 L53,44 Z M53,54 L39,54 C38.447,54 38,54.448 38,55 C38,55.552 38.447,56 39,56 L53,56 C53.553,56 54,55.552 54,55 C54,54.448 53.553,54 53,54 L53,54 Z M40,52 C41.103,52 42,51.103 42,50 C42,48.897 41.103,48 40,48 C38.898,48 38,48.897 38,50 C38,51.103 38.898,52 40,52 L40,52 Z M63.03,64 L63.019,64 C62.468,64 62.025,64.448 62.025,65 C62.025,65.552 62.477,66 63.03,66 C63.582,66 64.03,65.552 64.03,65 C64.03,64.448 63.582,64 63.03,64 L63.03,64 Z M23.03,64 L23.019,64 C22.468,64 22.025,64.448 22.025,65 C22.025,65.552 22.477,66 23.03,66 C23.582,66 24.03,65.552 24.03,65 C24.03,64.448 23.582,64 23.03,64 L23.03,64 Z M49,64 L46,64 L46,59 C46,58.448 45.553,58 45,58 C44.447,58 44,58.448 44,59 L44,65 C44,65.552 44.447,66 45,66 L49,66 C50.881,66 51.585,67.111 51.847,68 L39,68 C38.447,68 38,68.448 38,69 C38,69.552 38.447,70 39,70 L53,70 C53.553,70 54,69.552 54,69 C54,67.271 52.955,64 49,64 L49,64 Z M39,66 L41,66 C41.553,66 42,65.552 42,65 C42,64.448 41.553,64 41,64 L39,64 C38.447,64 38,64.448 38,65 C38,65.552 38.447,66 39,66 L39,66 Z M36,39 L36,67 C36,68.654 34.654,70 33,70 L13,70 C11.346,70 10,68.654 10,67 L10,39 C10,37.346 11.346,36 13,36 L33,36 C34.654,36 36,37.346 36,39 L36,39 Z M34,39 C34,38.449 33.552,38 33,38 L13,38 C12.448,38 12,38.449 12,39 L12,67 C12,67.551 12.448,68 13,68 L33,68 C33.552,68 34,67.551 34,67 L34,39 L34,39 Z M70,47 L70,67 C70,68.654 68.654,70 67,70 L59,70 C57.346,70 56,68.654 56,67 L56,47 C56,45.346 57.346,44 59,44 L67,44 C68.654,44 70,45.346 70,47 L70,47 Z M68,47 C68,46.449 67.552,46 67,46 L59,46 C58.448,46 58,46.449 58,47 L58,67 C58,67.551 58.448,68 59,68 L67,68 C67.552,68 68,67.551 68,67 L68,47 L68,47 Z M63,20 C63.256,20 63.512,19.902 63.707,19.707 C64.098,19.316 64.098,18.684 63.707,18.293 L61.707,16.293 C61.316,15.902 60.684,15.902 60.293,16.293 C59.902,16.684 59.902,17.316 60.293,17.707 L62.293,19.707 C62.488,19.902 62.744,20 63,20 L63,20 Z M63,26 C63.256,26 63.512,25.902 63.707,25.707 C64.098,25.316 64.098,24.684 63.707,24.293 L55.707,16.293 C55.316,15.902 54.684,15.902 54.293,16.293 C53.902,16.684 53.902,17.316 54.293,17.707 L62.293,25.707 C62.488,25.902 62.744,26 63,26 L63,26 Z" id="imac-iphone-ipad" fill="#671411"></path>
            </g>
        </g>
    </g>
</svg>