<?xml version="1.0" encoding="UTF-8"?>
<svg width="80px" height="80px" viewBox="0 0 80 80" version="1.1" xmlns="http://www.w3.org/2000/svg" xmlns:xlink="http://www.w3.org/1999/xlink">
    <!-- Generator: Sketch 47.1 (45422) - http://www.bohemiancoding.com/sketch -->
    <title>Device vendor</title>
    <desc>Created with Sketch.</desc>
    <defs></defs>
    <g id="Setup-Icons" stroke="none" stroke-width="1" fill="none" fill-rule="evenodd">
        <g id="Device-vendor">
            <g id="Icons/Device-Vendor">
                <rect id="Rectangle-7" fill="#D8D8D8" opacity="0" x="0" y="0" width="80" height="80"></rect>
                <path d="M24,55 L24,15 C24,12.43 26.43,10 29,10 L51,10 C53.57,10 56,12.43 56,15 C56,15.552 55.552,16 55,16 C54.448,16 54,15.552 54,15 C54,13.542 52.458,12 51,12 L29,12 C27.542,12 26,13.542 26,15 L26,55 C26,55.552 25.552,56 25,56 C24.448,56 24,55.552 24,55 L24,55 Z M55,18 L29,18 C28.448,18 28,18.448 28,19 C28,19.552 28.448,20 29,20 L54,20 L54,65 C54,66.458 52.458,68 51,68 L29,68 C27.542,68 26,66.458 26,65 L26,60 L51,60 C51.552,60 52,59.552 52,59 C52,58.448 51.552,58 51,58 L25,58 C24.448,58 24,58.448 24,59 L24,65 C24,67.57 26.43,70 29,70 L51,70 C53.57,70 56,67.57 56,65 L56,19 C56,18.448 55.552,18 55,18 L55,18 Z M38,64 C38,65.103 38.897,66 40,66 C41.103,66 42,65.103 42,64 C42,62.897 41.103,62 40,62 C38.897,62 38,62.897 38,64 L38,64 Z M37.02,14 C36.468,14 36.025,14.448 36.025,15 C36.025,15.552 36.477,16 37.03,16 C37.583,16 38.03,15.552 38.03,15 C38.03,14.448 37.583,14 37.03,14 L37.02,14 L37.02,14 Z M41,14 C40.448,14 40,14.448 40,15 C40,15.552 40.448,16 41,16 L45,16 C45.552,16 46,15.552 46,15 C46,14.448 45.552,14 45,14 L41,14 L41,14 Z M49,28 C49.256,28 49.512,27.902 49.707,27.707 C50.098,27.316 50.098,26.684 49.707,26.293 L47.707,24.293 C47.316,23.902 46.684,23.902 46.293,24.293 C45.902,24.684 45.902,25.316 46.293,25.707 L48.293,27.707 C48.488,27.902 48.744,28 49,28 L49,28 Z M40.293,24.293 C39.902,24.684 39.902,25.316 40.293,25.707 L48.293,33.707 C48.488,33.902 48.744,34 49,34 C49.256,34 49.512,33.902 49.707,33.707 C50.098,33.316 50.098,32.684 49.707,32.293 L41.707,24.293 C41.316,23.902 40.684,23.902 40.293,24.293 L40.293,24.293 Z" id="iphone" fill="#671411"></path>
                <path d="M43.5004914,38.0628823 C42.8182654,36.8326874 41.506375,36 40,36 C37.790861,36 36,37.790861 36,40 C36,42.209139 37.790861,44 40,44 C41.506375,44 42.8182654,43.1673126 43.5004914,41.9371177 C42.6376285,41.7152673 42,40.9320967 42,40 C42,39.0679033 42.6376285,38.2847327 43.5004914,38.0628823 Z" id="Combined-Shape" fill="#EE2E31"></path>
                <path d="M50,43 C50.3068747,43.3070742 50.5,43.7533221 50.5,44.25 C50.5,44.7466779 50.3068747,45.1929258 50,45.5 C49.6931253,45.1929258 49.5,44.7466779 49.5,44.25 C49.5,43.7533221 49.6931253,43.3070742 50,43 L50,43 Z" id="Combined-Shape" fill="#EE2E31"></path>
            </g>
        </g>
    </g>
</svg>