<?xml version="1.0" encoding="UTF-8"?>
<svg width="80px" height="80px" viewBox="0 0 80 80" version="1.1" xmlns="http://www.w3.org/2000/svg" xmlns:xlink="http://www.w3.org/1999/xlink">
    <!-- Generator: Sketch 47.1 (45422) - http://www.bohemiancoding.com/sketch -->
    <title>Language</title>
    <desc>Created with Sketch.</desc>
    <defs></defs>
    <g id="Setup-Icons" stroke="none" stroke-width="1" fill="none" fill-rule="evenodd">
        <g id="Language">
            <g id="Icons/Language">
                <rect id="Rectangle-7" fill="#D8D8D8" opacity="0" x="0" y="0" width="80" height="80"></rect>
                <g id="Group" stroke-width="1" transform="translate(10.000000, 10.000000)">
                    <path d="M22,4.57227557 C24.9942773,2.84987573 27.6631322,2 30,2 C32.2979891,2 34.3480788,2.72356108 39.0809418,4.90795938 C44.0980788,7.22356108 46.2979891,8 49,8 C51.5073495,8 54.5015942,7.1913432 58,5.58839126 L58,26.4610086 C54.3501346,28.8314247 51.3379468,30 49,30 C47.6580469,30 46.1617527,29.6670062 44.3690931,29.0087694 C43.8506529,28.8184062 43.2760541,29.0843652 43.0856909,29.6028054 C42.8953277,30.1212457 43.1612867,30.6958444 43.6797269,30.8862076 C45.6745555,31.6186777 47.3880116,32 49,32 C51.9009722,32 55.4054808,30.5981966 59.5547002,27.8320503 C59.8328989,27.6465845 60,27.3343532 60,27 L60,4 C60,3.25661798 59.2176875,2.77312226 58.5527864,3.10557281 C54.6795417,5.04219518 51.4868589,6 49,6 C46.7020109,6 44.6519212,5.27643892 39.9190582,3.09204062 C34.9019212,0.776438915 32.7020109,0 30,0 C27.1338157,0 23.9649654,1.05628345 20.4857676,3.1423491 C20.1844128,3.32303613 20,3.64862766 20,4 L20,19 C20,19.5522847 20.4477153,20 21,20 C21.5522847,20 22,19.5522847 22,19 L22,4.57227557 Z" id="Path-3-Copy" fill="#671411" fill-rule="nonzero"></path>
                    <path d="M20,50 L20,59 C20,59.5522847 20.4477153,60 21,60 C21.5522847,60 22,59.5522847 22,59 L22,50 C22,49.4477153 21.5522847,49 21,49 C20.4477153,49 20,49.4477153 20,50 Z" id="Line" fill="#671411" fill-rule="nonzero"></path>
                    <path d="M20,39.8985788 C23.3137085,40.4492339 26,38.7024597 26,35.9970494 C26,33.291639 23.3137085,30.6520764 20,30.1014212 C16.6862915,29.5507661 14,31.2975403 14,34.0029506 C14,36.708361 16.6862915,39.3479236 20,39.8985788 Z" id="Oval-6" fill="#EE2E31"></path>
                    <path d="M2,22.5722756 C4.99427731,20.8498757 7.66313217,20 10,20 C12.2979891,20 14.3480788,20.7235611 19.0809418,22.9079594 C24.0980788,25.2235611 26.2979891,26 29,26 C31.5073495,26 34.5015942,25.1913432 38,23.5883913 L38,44.4610086 C34.3501346,46.8314247 31.3379468,48 29,48 C26.7020109,48 24.6519212,47.2764389 19.9190582,45.0920406 C14.9019212,42.7764389 12.7020109,42 10,42 C8.67016147,42 7.269159,42.1560288 5.79703783,42.4666314 C5.25665026,42.5806477 4.91100804,43.1111468 5.02502434,43.6515344 C5.13904063,44.191922 5.66953978,44.5375642 6.20992735,44.4235479 C7.55051434,44.1406977 8.81385681,44 10,44 C12.2979891,44 14.3480788,44.7235611 19.0809418,46.9079594 C24.0980788,49.2235611 26.2979891,50 29,50 C31.9009722,50 35.4054808,48.5981966 39.5547002,45.8320503 C39.8328989,45.6465845 40,45.3343532 40,45 L40,22 C40,21.256618 39.2176875,20.7731223 38.5527864,21.1055728 C34.6795417,23.0421952 31.4868589,24 29,24 C26.7020109,24 24.6519212,23.2764389 19.9190582,21.0920406 C14.9019212,18.7764389 12.7020109,18 10,18 C7.13381569,18 3.96496535,19.0562834 0.485767631,21.1423491 C0.184412829,21.3230361 0,21.6486277 0,22 L0,59 C0,59.5522847 0.44771525,60 1,60 C1.55228475,60 2,59.5522847 2,59 L2,22.5722756 Z" id="Path-3" fill="#671411" fill-rule="nonzero"></path>
                </g>
            </g>
        </g>
    </g>
</svg>