<?xml version="1.0" encoding="UTF-8"?>
<svg width="80px" height="80px" viewBox="0 0 80 80" version="1.1" xmlns="http://www.w3.org/2000/svg" xmlns:xlink="http://www.w3.org/1999/xlink">
    <!-- Generator: Sketch 47.1 (45422) - http://www.bohemiancoding.com/sketch -->
    <title>Mobile Carrier</title>
    <desc>Created with Sketch.</desc>
    <defs></defs>
    <g id="Setup-Icons" stroke="none" stroke-width="1" fill="none" fill-rule="evenodd">
        <g id="Mobile-Carrier">
            <g id="Icons/Carrier">
                <rect id="Rectangle-16" fill="#D8D8D8" opacity="0" x="0" y="0" width="80" height="80"></rect>
                <rect id="Rectangle" fill="#EE2E31" x="29" y="27" width="22" height="12"></rect>
                <path d="M56,11 L56,65 C56,67.57 53.57,70 51,70 L29,70 C26.43,70 24,67.57 24,65 L24,22 C24,19.517 26.258,17.268 28.51,16.127 C29.011,15.821 32.318,14 40,14 C48.208,14 51.422,16.08 51.555,16.168 C52.015,16.474 52.139,17.095 51.832,17.555 C51.525,18.014 50.905,18.138 50.445,17.832 C50.424,17.818 47.502,16 40,16 C32.498,16 29.576,17.818 29.547,17.837 C29.518,17.856 29.48,17.878 29.447,17.894 C27.776,18.73 26,20.453 26,22 L26,65 C26,66.458 27.542,68 29,68 L51,68 C52.458,68 54,66.458 54,65 L54,11 C54,10.448 54.447,10 55,10 C55.553,10 56,10.448 56,11 L56,11 Z M52,39 C52,39.552 51.553,40 51,40 L29,40 C28.447,40 28,39.552 28,39 L28,27 C28,26.448 28.447,26 29,26 L51,26 C51.553,26 52,26.448 52,27 L52,39 L52,39 Z M30,38 L50,38 L50,28 L30,28 L30,38 Z M50,22 C50,20.897 49.103,20 48,20 C46.898,20 46,20.897 46,22 C46,23.103 46.898,24 48,24 C49.103,24 50,23.103 50,22 L50,22 Z M34,43 C34,42.448 33.553,42 33,42 C32.447,42 32,42.448 32,43 L32,44 L30,44 L30,43 C30,42.448 29.553,42 29,42 C28.447,42 28,42.448 28,43 L28,45 C28,45.552 28.447,46 29,46 L33,46 C33.553,46 34,45.552 34,45 L34,43 L34,43 Z M43,43 C43,42.448 42.553,42 42,42 C41.447,42 41,42.448 41,43 L41,44 L39,44 L39,43 C39,42.448 38.553,42 38,42 C37.447,42 37,42.448 37,43 L37,45 C37,45.552 37.447,46 38,46 L42,46 C42.553,46 43,45.552 43,45 L43,43 L43,43 Z M52,43 C52,42.448 51.553,42 51,42 C50.447,42 50,42.448 50,43 L50,44 L48,44 L48,43 C48,42.448 47.553,42 47,42 C46.447,42 46,42.448 46,43 L46,45 C46,45.552 46.447,46 47,46 L51,46 C51.553,46 52,45.552 52,45 L52,43 L52,43 Z M34,49 C34,48.448 33.553,48 33,48 C32.447,48 32,48.448 32,49 L32,50 L30,50 L30,49 C30,48.448 29.553,48 29,48 C28.447,48 28,48.448 28,49 L28,51 C28,51.552 28.447,52 29,52 L33,52 C33.553,52 34,51.552 34,51 L34,49 L34,49 Z M43,49 C43,48.448 42.553,48 42,48 C41.447,48 41,48.448 41,49 L41,50 L39,50 L39,49 C39,48.448 38.553,48 38,48 C37.447,48 37,48.448 37,49 L37,51 C37,51.552 37.447,52 38,52 L42,52 C42.553,52 43,51.552 43,51 L43,49 L43,49 Z M52,49 C52,48.448 51.553,48 51,48 C50.447,48 50,48.448 50,49 L50,50 L48,50 L48,49 C48,48.448 47.553,48 47,48 C46.447,48 46,48.448 46,49 L46,51 C46,51.552 46.447,52 47,52 L51,52 C51.553,52 52,51.552 52,51 L52,49 L52,49 Z M34,55 C34,54.448 33.553,54 33,54 C32.447,54 32,54.448 32,55 L32,56 L30,56 L30,55 C30,54.448 29.553,54 29,54 C28.447,54 28,54.448 28,55 L28,57 C28,57.552 28.447,58 29,58 L33,58 C33.553,58 34,57.552 34,57 L34,55 L34,55 Z M43,55 C43,54.448 42.553,54 42,54 C41.447,54 41,54.448 41,55 L41,56 L39,56 L39,55 C39,54.448 38.553,54 38,54 C37.447,54 37,54.448 37,55 L37,57 C37,57.552 37.447,58 38,58 L42,58 C42.553,58 43,57.552 43,57 L43,55 L43,55 Z M52,55 C52,54.448 51.553,54 51,54 C50.447,54 50,54.448 50,55 L50,56 L48,56 L48,55 C48,54.448 47.553,54 47,54 C46.447,54 46,54.448 46,55 L46,57 C46,57.552 46.447,58 47,58 L51,58 C51.553,58 52,57.552 52,57 L52,55 L52,55 Z M29,60 C28.447,60 28,60.448 28,61 L28,63 C28,63.552 28.447,64 29,64 L33,64 C33.553,64 34,63.552 34,63 L34,61 C34,60.448 33.553,60 33,60 C32.447,60 32,60.448 32,61 L32,62 L30,62 L30,61 C30,60.448 29.553,60 29,60 L29,60 Z M38,60 C37.447,60 37,60.448 37,61 L37,63 C37,63.552 37.447,64 38,64 L42,64 C42.553,64 43,63.552 43,63 L43,61 C43,60.448 42.553,60 42,60 C41.447,60 41,60.448 41,61 L41,62 L39,62 L39,61 C39,60.448 38.553,60 38,60 L38,60 Z M47,60 C46.447,60 46,60.448 46,61 L46,63 C46,63.552 46.447,64 47,64 L51,64 C51.553,64 52,63.552 52,63 L52,61 C52,60.448 51.553,60 51,60 C50.447,60 50,60.448 50,61 L50,62 L48,62 L48,61 C48,60.448 47.553,60 47,60 L47,60 Z" id="old-mobile" fill="#671411"></path>
            </g>
        </g>
    </g>
</svg>