<?xml version="1.0" encoding="UTF-8"?>
<svg width="80px" height="80px" viewBox="0 0 80 80" version="1.1" xmlns="http://www.w3.org/2000/svg" xmlns:xlink="http://www.w3.org/1999/xlink">
    <!-- Generator: Sketch 47.1 (45422) - http://www.bohemiancoding.com/sketch -->
    <title>Operating system</title>
    <desc>Created with Sketch.</desc>
    <defs></defs>
    <g id="Setup-Icons" stroke="none" stroke-width="1" fill="none" fill-rule="evenodd">
        <g id="Operating-system">
            <g id="Icons/Operating-System">
                <rect id="Rectangle-16" fill="#D8D8D8" opacity="0" x="0" y="0" width="80" height="80"></rect>
                <path d="M70,15 L70,51 C70,53.57 67.57,56 65,56 L15,56 C12.43,56 10,53.57 10,51 L10,45 C10,44.448 10.448,44 11,44 L65,44 C65.552,44 66,44.448 66,45 C66,45.552 65.552,46 65,46 L12,46 L12,51 C12,52.458 13.542,54 15,54 L65,54 C66.458,54 68,52.458 68,51 L68,15 C68,13.542 66.458,12 65,12 L15,12 C13.542,12 12,13.542 12,15 L12,41 C12,41.552 11.552,42 11,42 C10.448,42 10,41.552 10,41 L10,15 C10,12.43 12.43,10 15,10 L65,10 C67.57,10 70,12.43 70,15 L70,15 Z M38,50 C38,51.103 38.897,52 40,52 C41.103,52 42,51.103 42,50 C42,48.897 41.103,48 40,48 C38.897,48 38,48.897 38,50 L38,50 Z M36.03,41 C36.03,40.448 35.583,40 35.03,40 L35.02,40 C34.468,40 34.025,40.448 34.025,41 C34.025,41.552 34.478,42 35.03,42 C35.583,42 36.03,41.552 36.03,41 L36.03,41 Z M40.03,41 C40.03,40.448 39.583,40 39.03,40 L39.02,40 C38.468,40 38.025,40.448 38.025,41 C38.025,41.552 38.478,42 39.03,42 C39.583,42 40.03,41.552 40.03,41 L40.03,41 Z M44.03,41 C44.03,40.448 43.583,40 43.03,40 L43.02,40 C42.468,40 42.025,40.448 42.025,41 C42.025,41.552 42.478,42 43.03,42 C43.583,42 44.03,41.552 44.03,41 L44.03,41 Z M32.03,41 C32.03,40.448 31.583,40 31.03,40 L31.02,40 C30.468,40 30.025,40.448 30.025,41 C30.025,41.552 30.478,42 31.03,42 C31.583,42 32.03,41.552 32.03,41 L32.03,41 Z M28.03,41 C28.03,40.448 27.583,40 27.03,40 L27.02,40 C26.468,40 26.025,40.448 26.025,41 C26.025,41.552 26.478,42 27.03,42 C27.583,42 28.03,41.552 28.03,41 L28.03,41 Z M54.03,41 C54.03,40.448 53.583,40 53.03,40 L53.02,40 C52.468,40 52.025,40.448 52.025,41 C52.025,41.552 52.478,42 53.03,42 C53.583,42 54.03,41.552 54.03,41 L54.03,41 Z M50.03,41 C50.03,40.448 49.583,40 49.03,40 L49.02,40 C48.468,40 48.025,40.448 48.025,41 C48.025,41.552 48.478,42 49.03,42 C49.583,42 50.03,41.552 50.03,41 L50.03,41 Z M51,68 L50,68 L50,67 C50,66.448 49.552,66 49,66 C48.448,66 48,66.448 48,67 L48,68 L46,68 L46,67 C46,66.448 45.552,66 45,66 C44.448,66 44,66.448 44,67 L44,68 L42,68 L42,67 C42,66.448 41.552,66 41,66 C40.448,66 40,66.448 40,67 L40,68 L38,68 L38,67 C38,66.448 37.552,66 37,66 C36.448,66 36,66.448 36,67 L36,68 L34,68 L34,67 C34,66.448 33.552,66 33,66 C32.448,66 32,66.448 32,67 L32,68 L30,68 L30,67 C30,66.448 29.552,66 29,66 C28.448,66 28,66.448 28,67 L28,68 L26,68 L26,67 C26,66.448 25.552,66 25,66 C24.448,66 24,66.448 24,67 L24,68 L22,68 L22,67 C22,66.448 21.552,66 21,66 C20.448,66 20,66.448 20,67 L20,68 L18,68 L18,67 C18,66.448 17.552,66 17,66 C16.448,66 16,66.448 16,67 L16,68 L15,68 C14.448,68 14,68.448 14,69 C14,69.552 14.448,70 15,70 L51,70 C51.552,70 52,69.552 52,69 C52,68.448 51.552,68 51,68 L51,68 Z M36,63 L36,59 C36,58.448 35.552,58 35,58 C34.448,58 34,58.448 34,59 L34,63 C34,63.552 34.448,64 35,64 C35.552,64 36,63.552 36,63 L36,63 Z M45,64 C45.552,64 46,63.552 46,63 L46,59 C46,58.448 45.552,58 45,58 C44.448,58 44,58.448 44,59 L44,63 C44,63.552 44.448,64 45,64 L45,64 Z M66,68 L66,69 C66,69.552 65.552,70 65,70 L57,70 C56.448,70 56,69.552 56,69 L56,68 C56,65.794 57.794,64 60,64 L62,64 C64.206,64 66,65.794 66,68 L66,68 Z M64,68 C64,66.897 63.103,66 62,66 L60,66 C58.897,66 58,66.897 58,68 L64,68 L64,68 Z" id="imac" fill="#671411"></path>
                <g id="Group" stroke-width="1" transform="translate(41.000000, 30.000000)">
                    <ellipse id="Oval" stroke="#EE2E31" stroke-width="2" cx="5" cy="6.5" rx="4" ry="5.5"></ellipse>
                    <path d="M15,5 C14.1715729,5 13.5,4.32842712 13.5,3.5 C13.5,2.67157288 14.1715729,2 15,2 C15.4813722,2 15.9230845,2.22709824 16.2052342,2.60675798 C16.5346627,3.05003591 17.161065,3.14232913 17.6043429,2.81290065 C18.0476209,2.48347218 18.1399141,1.85706987 17.8104856,1.41379194 C17.1549263,0.531673425 16.1208068,0 15,0 C13.0670034,0 11.5,1.56700338 11.5,3.5 C11.5,5.43299662 13.0670034,7 15,7 C16.1045695,7 17,7.8954305 17,9 C17,10.1045695 16.1045695,11 15,11 C14.2687396,11 13.6076324,10.6049958 13.2551882,9.97865531 C12.9843499,9.49733937 12.3746083,9.32671356 11.8932924,9.59755191 C11.4119765,9.86839025 11.2413507,10.4781318 11.512189,10.9594477 C12.2154311,12.2092029 13.5389655,13 15,13 C17.209139,13 19,11.209139 19,9 C19,6.790861 17.209139,5 15,5 Z" id="Combined-Shape" fill="#EE2E31" fill-rule="nonzero"></path>
                </g>
            </g>
        </g>
    </g>
</svg>