<?xml version="1.0" encoding="UTF-8"?>
<svg width="80px" height="80px" viewBox="0 0 80 80" version="1.1" xmlns="http://www.w3.org/2000/svg" xmlns:xlink="http://www.w3.org/1999/xlink">
    <!-- Generator: Sketch 47.1 (45422) - http://www.bohemiancoding.com/sketch -->
    <title>Resolution</title>
    <desc>Created with Sketch.</desc>
    <defs></defs>
    <g id="Setup-Icons" stroke="none" stroke-width="1" fill="none" fill-rule="evenodd">
        <g id="Resolution">
            <g id="Icons/Resolution">
                <rect id="Rectangle-16" fill="#D8D8D8" fill-rule="evenodd" opacity="0" x="0" y="0" width="80" height="80"></rect>
                <path d="M9,31 L9,21 C9,18.7520343 10.4375666,17 12.1025641,17 L67.8974359,17 C69.5624334,17 71,18.7520343 71,21 L71,59 C71,61.2479657 69.5624334,63 67.8974359,63 L51,63 C50.4477153,63 50,63.4477153 50,64 C50,64.5522847 50.4477153,65 51,65 L67.8974359,65 C70.7640056,65 73,62.2748818 73,59 L73,21 C73,17.7251182 70.7640056,15 67.8974359,15 L12.1025641,15 C9.23599443,15 7,17.7251182 7,21 L7,31 C7,31.5522847 7.44771525,32 8,32 C8.55228475,32 9,31.5522847 9,31 Z" id="Rectangle-15" fill="#671411" fill-rule="nonzero"></path>
                <path d="M13.0625,59.1748047 L16.3925781,53.2080078 L13.5458984,53.2080078 C13.3994133,53.2080078 13.278158,53.159994 13.1821289,53.0639648 C13.0860998,52.9679357 13.0380859,52.8466804 13.0380859,52.7001953 C13.0380859,52.5569654 13.0860998,52.4357101 13.1821289,52.3364258 C13.278158,52.2371414 13.3994133,52.1875 13.5458984,52.1875 L17.2519531,52.1875 C17.3235681,52.1875 17.3902992,52.2013345 17.4521484,52.2290039 C17.5139977,52.2566733 17.5677081,52.293294 17.6132812,52.3388672 C17.6588544,52.3844403 17.6954751,52.4381507 17.7231445,52.5 C17.7508139,52.5618493 17.7646484,52.6285804 17.7646484,52.7001953 C17.7646484,52.7880864 17.7402346,52.8792313 17.6914062,52.9736328 L13.9414062,59.7167969 C13.9153645,59.7656252 13.8828127,59.8095701 13.84375,59.8486328 C13.742838,59.9495448 13.6207689,60 13.4775391,60 C13.3375644,60 13.2179367,59.9503586 13.1186523,59.8510742 C13.019368,59.7517899 12.9697266,59.6321622 12.9697266,59.4921875 C12.9697266,59.3880203 13.0006507,59.2822271 13.0625,59.1748047 Z M18.4433594,54.5556641 C18.4433594,54.2301416 18.5060215,53.9241551 18.6313477,53.6376953 C18.7566738,53.3512355 18.9267567,53.100587 19.1416016,52.8857422 C19.3564464,52.6708974 19.6070949,52.5016282 19.8935547,52.3779297 C20.1800145,52.2542312 20.4843734,52.1923828 20.8066406,52.1923828 C21.1289079,52.1923828 21.4332668,52.2558587 21.7197266,52.3828125 C22.0061863,52.5097663 22.2568349,52.680663 22.4716797,52.8955078 C22.6865245,53.1103526 22.8566074,53.3610012 22.9819336,53.6474609 C23.1072597,53.9339207 23.1699219,54.2366521 23.1699219,54.5556641 C23.1699219,54.8811865 23.1105149,55.1839179 22.9916992,55.4638672 C22.8728835,55.7438165 22.701173,55.9977202 22.4765625,56.2255859 L20.1035156,58.9794922 L22.6572266,58.9794922 C22.8004564,58.9794922 22.9217117,59.0299474 23.0209961,59.1308594 C23.1202804,59.2317713 23.1699219,59.3522128 23.1699219,59.4921875 C23.1699219,59.6321622 23.1202804,59.7517899 23.0209961,59.8510742 C22.9217117,59.9503586 22.8004564,60 22.6572266,60 L18.9511719,60 C18.8795569,60 18.8128258,59.9869793 18.7509766,59.9609375 C18.6891273,59.9348957 18.6354169,59.898275 18.5898438,59.8510742 C18.5442706,59.8038735 18.5084637,59.7493493 18.4824219,59.6875 C18.4563801,59.6256507 18.4433594,59.5605472 18.4433594,59.4921875 C18.4433594,59.3457024 18.4905594,59.2252609 18.5849609,59.1308594 L21.7490234,55.5175781 C22.0159519,55.2506497 22.1494141,54.9300149 22.1494141,54.5556641 C22.1494141,54.3733715 22.1136071,54.2008472 22.0419922,54.0380859 C21.9703772,53.8753247 21.8735358,53.7329108 21.7514648,53.6108398 C21.6293939,53.4887689 21.48698,53.3919274 21.3242188,53.3203125 C21.1614575,53.2486976 20.9889332,53.2128906 20.8066406,53.2128906 C20.6210928,53.2128906 20.4469409,53.2478838 20.2841797,53.3178711 C20.1214185,53.3878584 19.9790045,53.4830723 19.8569336,53.6035156 C19.7348627,53.7239589 19.638835,53.8655591 19.5688477,54.0283203 C19.4988603,54.1910815 19.4638672,54.366861 19.4638672,54.5556641 C19.4638672,54.6956387 19.4142258,54.8152664 19.3149414,54.9145508 C19.2156571,55.0138351 19.0944018,55.0634766 18.9511719,55.0634766 C18.8111972,55.0634766 18.6915695,55.0138351 18.5922852,54.9145508 C18.4930008,54.8152664 18.4433594,54.6956387 18.4433594,54.5556641 Z M23.9121094,56.0888672 C23.9121094,55.4736297 23.9658198,54.9243188 24.0732422,54.440918 C24.1806646,53.9575171 24.3352854,53.5481788 24.5371094,53.2128906 C24.7389333,52.8776025 24.9879542,52.6212574 25.2841797,52.4438477 C25.5804051,52.2664379 25.9189434,52.1777344 26.2998047,52.1777344 C26.680666,52.1777344 27.0192042,52.2680655 27.3154297,52.4487305 C27.6116551,52.6293954 27.8614899,52.8881819 28.0649414,53.2250977 C28.2683929,53.5620134 28.4230138,53.9721656 28.5288086,54.4555664 C28.6346034,54.9389673 28.6875,55.4833954 28.6875,56.0888672 C28.6875,56.694339 28.6346034,57.2387671 28.5288086,57.722168 C28.4230138,58.2055688 28.2683929,58.615721 28.0649414,58.9526367 C27.8614899,59.2895525 27.6116551,59.5483389 27.3154297,59.7290039 C27.0192042,59.9096689 26.680666,60 26.2998047,60 C25.9189434,60 25.5804051,59.9112965 25.2841797,59.7338867 C24.9879542,59.556477 24.7389333,59.3009457 24.5371094,58.9672852 C24.3352854,58.6336246 24.1806646,58.2242863 24.0732422,57.7392578 C23.9658198,57.2542293 23.9121094,56.7041046 23.9121094,56.0888672 Z M26.2998047,53.2128906 C26.071939,53.2128906 25.8725594,53.2861321 25.7016602,53.4326172 C25.5307609,53.5791023 25.3891607,53.7792956 25.2768555,54.0332031 C25.1645502,54.2871106 25.0807294,54.5906558 25.0253906,54.9438477 C24.9700518,55.2970395 24.9423828,55.6787089 24.9423828,56.0888672 C24.9423828,56.5055359 24.9700518,56.8904605 25.0253906,57.2436523 C25.0807294,57.5968442 25.165364,57.9003894 25.2792969,58.1542969 C25.3932297,58.4082044 25.5348299,58.6067701 25.7041016,58.75 C25.8733732,58.8932299 26.071939,58.9648438 26.2998047,58.9648438 C26.5309256,58.9648438 26.7319327,58.8916023 26.902832,58.7451172 C27.0737313,58.5986321 27.2145177,58.397625 27.3251953,58.1420898 C27.4358729,57.8865547 27.5188799,57.5830096 27.5742188,57.2314453 C27.6295576,56.8798811 27.6572266,56.4990255 27.6572266,56.0888672 C27.6572266,55.6819641 27.6287438,55.3027361 27.5717773,54.9511719 C27.5148109,54.5996076 27.4309901,54.2952487 27.3203125,54.0380859 C27.2096349,53.7809232 27.0688485,53.5791023 26.8979492,53.4326172 C26.7270499,53.2861321 26.5276704,53.2128906 26.2998047,53.2128906 Z" id="720" fill="#EE2E31" fill-rule="evenodd"></path>
                <path d="M9,37 L9,63 L45,63 L45,37 L9,37 Z M8,35 L46,35 C46.5522847,35 47,35.4477153 47,36 L47,64 C47,64.5522847 46.5522847,65 46,65 L8,65 C7.44771525,65 7,64.5522847 7,64 L7,36 C7,35.4477153 7.44771525,35 8,35 Z" id="Rectangle-15" fill="#EE2E31" fill-rule="nonzero"></path>
                <path d="M59.5646839,43.8253073 L78.5646839,30.8253073 C79.0204885,30.5134409 79.1371736,29.8911207 78.8253073,29.4353161 C78.5134409,28.9795115 77.8911207,28.8628264 77.4353161,29.1746927 L58.4353161,42.1746927 C57.9795115,42.4865591 57.8628264,43.1088793 58.1746927,43.5646839 C58.4865591,44.0204885 59.1088793,44.1371736 59.5646839,43.8253073 Z" id="Line" fill="#671411" fill-rule="nonzero"></path>
                <path d="M77.851425,29.0110989 L74.2023299,29.5593479 C73.6561749,29.6414036 73.2799481,30.150669 73.3620037,30.696824 C73.4440594,31.2429791 73.9533248,31.6192059 74.4994799,31.5371502 L78.148575,30.9889011 C78.69473,30.9068455 79.0709568,30.3975801 78.9889011,29.851425 C78.9068455,29.30527 78.3975801,28.9290432 77.851425,29.0110989 Z" id="Line-2" fill="#671411" fill-rule="nonzero"></path>
                <path d="M77.1679497,29.4452998 L75.1679497,32.4452998 C74.8615972,32.9048285 74.9857711,33.5256978 75.4452998,33.8320503 C75.9048285,34.1384028 76.5256978,34.0142289 76.8320503,33.5547002 L78.8320503,30.5547002 C79.1384028,30.0951715 79.0142289,29.4743022 78.5547002,29.1679497 C78.0951715,28.8615972 77.4743022,28.9857711 77.1679497,29.4452998 Z" id="Line-2" fill="#671411" fill-rule="nonzero"></path>
            </g>
        </g>
    </g>
</svg>