<?xml version="1.0" encoding="UTF-8"?>
<svg width="80px" height="80px" viewBox="0 0 80 80" version="1.1" xmlns="http://www.w3.org/2000/svg" xmlns:xlink="http://www.w3.org/1999/xlink">
    <!-- Generator: Sketch 47.1 (45422) - http://www.bohemiancoding.com/sketch -->
    <title>Retargeting</title>
    <desc>Created with Sketch.</desc>
    <defs></defs>
    <g id="Setup-Icons" stroke="none" stroke-width="1" fill="none" fill-rule="evenodd">
        <g id="Retargeting">
            <g id="Icons/Retargeting">
                <polygon id="Path-5" fill="#EE2E31" points="17 35 20 40 17.5 44.5 26 45 30 40 26 35"></polygon>
                <rect id="Rectangle-16" fill="#D8D8D8" opacity="0" x="0" y="0" width="80" height="80"></rect>
                <path d="M13,44 L11,44 C10.448,44 10,44.448 10,45 C10,45.552 10.448,46 11,46 L13,46 C13.552,46 14,45.552 14,45 C14,44.448 13.552,44 13,44 L13,44 Z M11,36 L13,36 C13.552,36 14,35.552 14,35 C14,34.448 13.552,34 13,34 L11,34 C10.448,34 10,34.448 10,35 C10,35.552 10.448,36 11,36 L11,36 Z M20.566,39 L25,39 C25.552,39 26,39.448 26,40 C26,40.552 25.552,41 25,41 L20.566,41 L18.766,44 L25.52,44 L28.719,40 L25.52,36 L18.766,36 L20.566,39 Z M13,39 L18.234,39 L16.143,35.515 C15.957,35.206 15.952,34.821 16.13,34.507 C16.307,34.194 16.64,34 17,34 L20.843,34 C21.862,30.401 23.78,27.108 26.444,24.444 C30.599,20.289 36.124,18 42,18 C47.876,18 53.401,20.289 57.556,24.444 C66.134,33.021 66.134,46.979 57.557,55.557 C53.402,59.711 47.877,62 42.001,62 C36.125,62 30.6,59.711 26.444,55.556 C24.641,53.753 23.179,51.679 22.1,49.393 C21.864,48.893 22.078,48.297 22.578,48.062 C23.077,47.827 23.673,48.04 23.909,48.539 C24.889,50.617 26.218,52.502 27.858,54.142 C31.636,57.919 36.659,60 42.001,60 C47.343,60 52.365,57.92 56.143,54.143 C63.94,46.344 63.939,33.656 56.142,25.858 C52.364,22.081 47.342,20 42,20 C36.658,20 31.636,22.081 27.858,25.858 C25.57,28.146 23.88,30.94 22.919,34 L26,34 C26.304,34 26.591,34.138 26.781,34.375 L26.949,34.585 C27.742,32.379 29.009,30.365 30.687,28.687 C33.708,25.665 37.726,24 42,24 L42,24 C46.274,24 50.292,25.665 53.313,28.687 C59.552,34.925 59.552,45.076 53.313,51.314 C50.292,54.336 46.274,56 42,56 L42,56 C37.726,56 33.708,54.335 30.687,51.313 C29.65,50.277 28.764,49.11 28.051,47.846 C27.781,47.365 27.951,46.755 28.432,46.484 C28.915,46.213 29.523,46.384 29.794,46.865 C30.417,47.971 31.193,48.992 32.101,49.899 C34.745,52.543 38.26,54 42,54 C45.74,54 49.255,52.544 51.899,49.9 C57.358,44.441 57.358,35.56 51.899,30.101 C49.255,27.457 45.74,26 42,26 C38.26,26 34.745,27.457 32.101,30.101 C30.33,31.871 29.083,34.068 28.458,36.473 L30.48,39 L32.051,39 C32.276,36.708 33.277,34.582 34.929,32.929 C38.828,29.031 45.172,29.031 49.071,32.929 C52.97,36.829 52.97,43.173 49.071,47.071 C47.122,49.021 44.561,49.995 42,49.995 C39.439,49.995 36.879,49.021 34.929,47.071 C34.121,46.263 33.464,45.336 32.977,44.316 C32.738,43.818 32.949,43.221 33.447,42.982 C33.943,42.745 34.542,42.955 34.781,43.453 C35.171,44.269 35.696,45.01 36.343,45.657 C39.462,48.776 44.538,48.776 47.657,45.657 C50.776,42.538 50.776,37.463 47.657,34.343 C44.538,31.225 39.463,31.226 36.343,34.343 C35.07,35.617 34.287,37.243 34.07,39 L38.143,39 C38.318,38.316 38.659,37.685 39.171,37.172 C39.927,36.417 40.932,36 42,36 L42,36 C43.069,36 44.073,36.417 44.828,37.172 C46.388,38.731 46.389,41.27 44.829,42.829 C44.074,43.583 43.069,44 42,44 L42,44 C41.448,44 41,43.553 41,43 C41,42.448 41.447,42 42,42 C42.535,42 43.038,41.792 43.415,41.414 C43.792,41.037 44,40.535 44,40 C44,39.466 43.792,38.964 43.414,38.586 C43.036,38.208 42.534,38 42,38 L42,38 C41.466,38 40.964,38.208 40.586,38.586 C40.462,38.71 40.363,38.852 40.277,39 L42,39 C42.552,39 43,39.448 43,40 C43,40.552 42.552,41 42,41 L39.003,41 L39.001,41 L38.999,41 L33.135,41 C33.09,41.006 33.051,41.027 33.004,41.027 L33.001,41.027 C32.954,41.027 32.913,41.006 32.868,41 L30.481,41 L26.781,45.625 C26.591,45.862 26.304,46 26,46 L17,46 C16.64,46 16.307,45.806 16.13,45.493 C15.952,45.179 15.957,44.794 16.143,44.485 L18.234,41 L13,41 C12.448,41 12,40.552 12,40 C12,39.448 12.448,39 13,39 L13,39 Z M61.8,59.799 C60.423,61.176 58.925,62.388 57.335,63.434 L59.895,68.553 C60.142,69.047 59.941,69.647 59.447,69.895 C59.304,69.966 59.151,70 59.001,70 C58.634,70 58.281,69.798 58.105,69.447 L55.618,64.472 C51.5,66.771 46.846,68 42,68 L42,68 C37.154,68 32.5,66.771 28.383,64.471 L25.895,69.447 C25.719,69.798 25.366,70 24.999,70 C24.849,70 24.696,69.966 24.553,69.895 C24.059,69.647 23.858,69.047 24.105,68.553 L26.666,63.433 C25.075,62.388 23.578,61.176 22.201,59.799 C19.212,56.81 16.988,53.288 15.593,49.33 C15.409,48.809 15.682,48.238 16.203,48.054 C16.724,47.87 17.295,48.144 17.479,48.665 C18.774,52.338 20.839,55.609 23.615,58.385 C25.02,59.79 26.562,61.007 28.203,62.04 C28.285,62.057 28.369,62.066 28.447,62.105 C28.59,62.177 28.7,62.283 28.79,62.403 C32.75,64.747 37.278,66 42,66 C46.722,66 51.25,64.748 55.209,62.404 C55.299,62.284 55.409,62.177 55.553,62.105 C55.632,62.066 55.716,62.056 55.799,62.039 C57.44,61.007 58.981,59.79 60.386,58.385 C70.522,48.248 70.522,31.753 60.385,21.615 C55.474,16.705 48.945,14 42,14 C35.055,14 28.526,16.705 23.615,21.615 C20.841,24.39 18.777,27.659 17.481,31.333 C17.298,31.854 16.725,32.128 16.206,31.943 C15.685,31.759 15.411,31.188 15.595,30.667 C16.991,26.71 19.213,23.189 22.201,20.201 C27.253,15.149 33.896,12.272 41,12.024 L41,11 C41,10.448 41.448,10 42,10 C42.552,10 43,10.448 43,11 L43,12.024 C50.104,12.272 56.747,15.149 61.799,20.201 C72.716,31.119 72.716,48.882 61.8,59.799 L61.8,59.799 Z" id="target-arrow" fill="#671411"></path>
            </g>
        </g>
    </g>
</svg>