<?xml version="1.0" encoding="UTF-8"?>
<svg width="80px" height="80px" viewBox="0 0 80 80" version="1.1" xmlns="http://www.w3.org/2000/svg" xmlns:xlink="http://www.w3.org/1999/xlink">
    <!-- Generator: Sketch 47.1 (45422) - http://www.bohemiancoding.com/sketch -->
    <title>Wi-Fi Traffic</title>
    <desc>Created with Sketch.</desc>
    <defs></defs>
    <g id="Setup-Icons" stroke="none" stroke-width="1" fill="none" fill-rule="evenodd">
        <g id="Wi-Fi-Traffic">
            <g id="Icons/Wi-Fi-Traffic">
                <rect id="Rectangle-16" fill="#D8D8D8" opacity="0" x="0" y="0" width="80" height="80"></rect>
                <path d="M41,58 C41.553,58 42,58.448 42,59 C42,59.552 41.553,60 41,60 L21,60 C20.448,60 20,59.552 20,59 C20,58.448 20.448,58 21,58 L41,58 Z M40,38 C40.551,38 41,38.449 41,39 C41,39.551 40.551,40 40,40 C39.449,40 39,39.551 39,39 C39,38.449 39.449,38 40,38 L40,38 Z M65,48 L44,48 C43.447,48 43,48.448 43,49 C43,49.552 43.447,50 44,50 L65,50 C66.654,50 68,51.346 68,53 L68,65 C68,66.654 66.654,68 65,68 L15,68 C13.346,68 12,66.654 12,65 L12,53 C12,51.346 13.346,50 15,50 L40,50 C40.552,50 41,49.552 41,49 L41,41.816 C42.161,41.401 43,40.302 43,39 C43,37.346 41.654,36 40,36 C38.346,36 37,37.346 37,39 C37,40.302 37.838,41.401 39,41.815 L39,48 L15,48 C12.243,48 10,50.243 10,53 L10,65 C10,67.757 12.243,70 15,70 L65,70 C67.757,70 70,67.757 70,65 L70,53 C70,50.243 67.757,48 65,48 L65,48 Z M50,59 C50,58.449 50.448,58 51,58 C51.552,58 52,58.449 52,59 C52,59.551 51.552,60 51,60 C50.448,60 50,59.551 50,59 L50,59 Z M54,59 C54,57.346 52.654,56 51,56 C49.346,56 48,57.346 48,59 C48,60.654 49.346,62 51,62 C52.654,62 54,60.654 54,59 L54,59 Z M58,59 C58,58.449 58.448,58 59,58 C59.552,58 60,58.449 60,59 C60,59.551 59.552,60 59,60 C58.448,60 58,59.551 58,59 L58,59 Z M62,59 C62,57.346 60.654,56 59,56 C57.346,56 56,57.346 56,59 C56,60.654 57.346,62 59,62 C60.654,62 62,60.654 62,59 L62,59 Z" id="modem" fill="#671411"></path>
                <path d="M50,40 C52.404,40 54.664,40.936 56.363,42.636 C56.754,43.026 56.754,43.659 56.363,44.05 C56.168,44.245 55.912,44.343 55.656,44.343 C55.4,44.343 55.145,44.245 54.949,44.05 C53.627,42.728 51.869,42 50,42 C48.13,42 46.373,42.728 45.051,44.05 C44.66,44.44 44.027,44.44 43.637,44.05 C43.246,43.659 43.246,43.026 43.637,42.636 C45.336,40.936 47.596,40 50,40 Z M59.193,39.808 C56.738,37.352 53.473,36 50,36 C46.528,36 43.263,37.352 40.808,39.808 C40.417,40.198 39.784,40.198 39.394,39.808 C39.003,39.417 39.003,38.784 39.394,38.394 C42.227,35.561 45.994,34 50,34 C54.007,34 57.774,35.561 60.607,38.394 C60.998,38.784 60.998,39.417 60.607,39.808 C60.412,40.003 60.156,40.101 59.9,40.101 C59.645,40.101 59.389,40.003 59.193,39.808 Z M35.304,35.718 C34.907,35.333 34.897,34.7 35.282,34.304 C39.225,30.239 44.452,28 50,28 C55.664,28 60.895,30.243 64.729,34.314 C65.106,34.717 65.088,35.35 64.686,35.728 C64.283,36.105 63.651,36.088 63.271,35.686 C59.82,32.019 55.107,30 50,30 C44.998,30 40.281,32.023 36.718,35.696 C36.521,35.898 36.261,36 36,36 C35.749,36 35.498,35.906 35.304,35.718 Z" id="Combined-Shape" fill="#EE2E31"></path>
            </g>
        </g>
    </g>
</svg>