<?xml version="1.0" encoding="UTF-8"?>
<svg width="80px" height="80px" viewBox="0 0 80 80" version="1.1" xmlns="http://www.w3.org/2000/svg" xmlns:xlink="http://www.w3.org/1999/xlink">
    <!-- Generator: Sketch 47.1 (45422) - http://www.bohemiancoding.com/sketch -->
    <title>Day of week</title>
    <desc>Created with Sketch.</desc>
    <defs></defs>
    <g id="Setup-Icons" stroke="none" stroke-width="1" fill="none" fill-rule="evenodd">
        <g id="Day-of-week">
            <g id="Icons/Day-Week">
                <rect id="Rectangle-16" fill="#D8D8D8" opacity="0" x="0" y="0" width="80" height="80"></rect>
                <g id="Group" stroke-width="1" transform="translate(11.000000, 11.000000)">
                    <path d="M50,2 L53,2 L53,2 C55.7614237,2 58,4.23857625 58,7 L58,53 L58,53 C58,55.7614237 55.7614237,58 53,58 L5,58 L5,58 C2.23857625,58 -2.11861473e-16,55.7614237 -1.77635684e-15,53 L0,12 L54,12" id="Rectangle-7" stroke="#671411" stroke-width="2" stroke-linecap="round" stroke-linejoin="round"></path>
                    <rect id="Rectangle" stroke="#671411" stroke-width="2" x="12" y="0" width="4" height="8" rx="2"></rect>
                    <rect id="Rectangle-Copy" stroke="#671411" stroke-width="2" x="22" y="0" width="4" height="8" rx="2"></rect>
                    <rect id="Rectangle-Copy-2" stroke="#671411" stroke-width="2" x="32" y="0" width="4" height="8" rx="2"></rect>
                    <rect id="Rectangle-Copy-3" stroke="#671411" stroke-width="2" x="42" y="0" width="4" height="8" rx="2"></rect>
                    <path d="M0,8 L0,7 L0,7 C-3.38176876e-16,4.23857625 2.23857625,2 5,2 L8,2" id="Rectangle-8" stroke="#671411" stroke-width="2" stroke-linecap="round"></path>
                    <rect id="Rectangle-9" stroke="#671411" stroke-width="2" stroke-linejoin="round" x="12" y="22" width="4" height="4"></rect>
                    <rect id="Rectangle-9-Copy-4" stroke="#671411" stroke-width="2" stroke-linejoin="round" x="12" y="32" width="4" height="4"></rect>
                    <rect id="Rectangle-9-Copy" stroke="#671411" stroke-width="2" stroke-linejoin="round" x="22" y="22" width="4" height="4"></rect>
                    <rect id="Rectangle-9-Copy-5" stroke="#671411" stroke-width="2" stroke-linejoin="round" x="22" y="32" width="4" height="4"></rect>
                    <rect id="Rectangle-9-Copy-2" stroke="#671411" stroke-width="2" stroke-linejoin="round" x="32" y="22" width="4" height="4"></rect>
                    <rect id="Rectangle-9-Copy-6" stroke="#EE2E31" stroke-width="2" fill="#EE2E31" stroke-linejoin="round" x="32" y="32" width="4" height="4"></rect>
                    <rect id="Rectangle-9-Copy-3" stroke="#671411" stroke-width="2" stroke-linejoin="round" x="42" y="22" width="4" height="4"></rect>
                    <rect id="Rectangle-9-Copy-7" stroke="#671411" stroke-width="2" stroke-linejoin="round" x="42" y="32" width="4" height="4"></rect>
                    <rect id="Rectangle-9-Copy-11" stroke="#671411" stroke-width="2" stroke-linejoin="round" x="12" y="42" width="4" height="4"></rect>
                    <rect id="Rectangle-9-Copy-10" stroke="#671411" stroke-width="2" stroke-linejoin="round" x="22" y="42" width="4" height="4"></rect>
                    <rect id="Rectangle-9-Copy-9" stroke="#671411" stroke-width="2" stroke-linejoin="round" x="32" y="42" width="4" height="4"></rect>
                    <rect id="Rectangle-9-Copy-8" stroke="#671411" stroke-width="2" stroke-linejoin="round" x="42" y="42" width="4" height="4"></rect>
                    <path d="M54,22 L54,51 L54,51 C54,52.6568542 52.6568542,54 51,54 L7,54 L7,54 C5.34314575,54 4,52.6568542 4,51 L4,16 L4,16 L54,16" id="Rectangle-14" stroke="#671411" stroke-width="2" stroke-linecap="round" stroke-linejoin="round"></path>
                </g>
            </g>
        </g>
    </g>
</svg>