<?xml version="1.0" encoding="UTF-8"?>
<svg width="80px" height="80px" viewBox="0 0 80 80" version="1.1" xmlns="http://www.w3.org/2000/svg" xmlns:xlink="http://www.w3.org/1999/xlink">
    <!-- Generator: Sketch 47.1 (45422) - http://www.bohemiancoding.com/sketch -->
    <title>Location</title>
    <desc>Created with Sketch.</desc>
    <defs></defs>
    <g id="Setup-Icons" stroke="none" stroke-width="1" fill="none" fill-rule="evenodd">
        <g id="Location">
            <g id="Icons/Location">
                <rect id="Rectangle-16" fill="#D8D8D8" opacity="0" x="0" y="0" width="80" height="80"></rect>
                <g id="Group" stroke-width="1" transform="translate(11.000000, 2.000000)" stroke="#671411">
                    <path d="M29,43 C19,29.8561808 14,20.5228475 14,15 C14,6.71572875 20.7157288,0 29,0 C37.2842712,0 44,6.71572875 44,15 C44,20.5228475 39,29.8561808 29,43 Z M29,20 C31.7614237,20 34,17.7614237 34,15 C34,12.2385763 31.7614237,10 29,10 C26.2385763,10 24,12.2385763 24,15 C24,17.7614237 26.2385763,20 29,20 Z" id="Combined-Shape" stroke-width="2" fill="#EE2E31"></path>
                    <polyline id="Path-3" stroke-width="2" stroke-linecap="round" stroke-linejoin="round" points="11.0108453 22.3048792 0 27 0 67 19 58 39 67 58 59 58 16 47.0633948 21.0476639"></polyline>
                    <path d="M39,66 L39,35" id="Path-4-Copy" stroke-width="2" stroke-linecap="round"></path>
                    <path d="M19,58 L19,35" id="Path-4" stroke-width="2" stroke-linecap="round"></path>
                </g>
            </g>
        </g>
    </g>
</svg>