<?xml version="1.0" encoding="UTF-8"?>
<svg width="80px" height="80px" viewBox="0 0 80 80" version="1.1" xmlns="http://www.w3.org/2000/svg" xmlns:xlink="http://www.w3.org/1999/xlink">
    <!-- Generator: Sketch 47.1 (45422) - http://www.bohemiancoding.com/sketch -->
    <title>Time Range</title>
    <desc>Created with Sketch.</desc>
    <defs></defs>
    <g id="Setup-Icons" stroke="none" stroke-width="1" fill="none" fill-rule="evenodd">
        <g id="Time-Range">
            <g id="Icons/Time-Range">
                <rect id="Rectangle-16" fill="#D8D8D8" opacity="0" x="0" y="0" width="80" height="80"></rect>
                <g id="Group" stroke-width="1" transform="translate(10.000000, 10.000000)">
                    <path d="M28.5,32.1268657 L27.2238806,30 C13.3283582,30 4.25373134,30 0,30 C0,41.0528201 5.98941544,50.6993535 14.9152175,55.836976 C16.0314407,53.9257582 20.5597015,46.0223881 28.5,32.1268657 Z" id="Oval-6" fill="#EE2E31"></path>
                    <path d="M30,2 C30.5522847,2 31,2.44771525 31,3 L31,7 C31,7.55228475 30.5522847,8 30,8 C29.4477153,8 29,7.55228475 29,7 L29,3 L29,3 C29,2.44771525 29.4477153,2 30,2 Z M58,30 C58,30.5522847 57.5522847,31 57,31 L53,31 C52.4477153,31 52,30.5522847 52,30 C52,29.4477153 52.4477153,29 53,29 L57,29 C57.5522847,29 58,29.4477153 58,30 Z M30,58 C29.4477153,58 29,57.5522847 29,57 L29,53 C29,52.4477153 29.4477153,52 30,52 C30.5522847,52 31,52.4477153 31,53 L31,57 C31,57.5522847 30.5522847,58 30,58 Z M2,30 L2,30 C2,29.4477153 2.44771525,29 3,29 L7,29 C7.55228475,29 8,29.4477153 8,30 C8,30.5522847 7.55228475,31 7,31 L3,31 L3,31 C2.44771525,31 2,30.5522847 2,30 L2,30 Z" id="Path" fill="#671411"></path>
                    <path d="M30,2 C30.5522847,2 31,2.44771525 31,3 L31,5 C31,5.55228475 30.5522847,6 30,6 C29.4477153,6 29,5.55228475 29,5 L29,3 L29,3 C29,2.44771525 29.4477153,2 30,2 Z M44,5.75128869 C44.4782926,6.02743107 44.6421678,6.63902147 44.3660254,7.1173141 L43.3660254,8.84936491 C43.089883,9.32765753 42.4782926,9.49153268 42,9.21539031 C41.5217074,8.93924793 41.3578322,8.32765753 41.6339746,7.84936491 L42.6339746,6.1173141 C42.910117,5.63902147 43.5217074,5.47514632 44,5.75128869 Z M54.2487113,16 C54.5248537,16.4782926 54.3609785,17.089883 53.8826859,17.3660254 L52.1506351,18.3660254 C51.6723425,18.6421678 51.0607521,18.4782926 50.7846097,18 C50.5084673,17.5217074 50.6723425,16.910117 51.1506351,16.6339746 L52.8826859,15.6339746 C53.3609785,15.3578322 53.9725689,15.5217074 54.2487113,16 Z M58,30 C58,30.5522847 57.5522847,31 57,31 L55,31 C54.4477153,31 54,30.5522847 54,30 C54,29.4477153 54.4477153,29 55,29 L57,29 C57.5522847,29 58,29.4477153 58,30 Z M54.2487113,44 C53.9725689,44.4782926 53.3609785,44.6421678 52.8826859,44.3660254 L51.1506351,43.3660254 C50.6723425,43.089883 50.5084673,42.4782926 50.7846097,42 C51.0607521,41.5217074 51.6723425,41.3578322 52.1506351,41.6339746 L53.8826859,42.6339746 C54.3609785,42.910117 54.5248537,43.5217074 54.2487113,44 Z M44,54.2487113 C43.5217074,54.5248537 42.910117,54.3609785 42.6339746,53.8826859 L41.6339746,52.1506351 C41.3578322,51.6723425 41.5217074,51.0607521 42,50.7846097 C42.4782926,50.5084673 43.089883,50.6723425 43.3660254,51.1506351 L44.3660254,52.8826859 C44.6421678,53.3609785 44.4782926,53.9725689 44,54.2487113 Z M30,58 C29.4477153,58 29,57.5522847 29,57 L29,55 C29,54.4477153 29.4477153,54 30,54 C30.5522847,54 31,54.4477153 31,55 L31,57 C31,57.5522847 30.5522847,58 30,58 Z M16,54.2487113 L16,54.2487113 C15.5217074,53.9725689 15.3578322,53.3609785 15.6339746,52.8826859 L16.6339746,51.1506351 C16.910117,50.6723425 17.5217074,50.5084673 18,50.7846097 C18.4782926,51.0607521 18.6421678,51.6723425 18.3660254,52.1506351 L17.3660254,53.8826859 C17.089883,54.3609785 16.4782926,54.5248537 16,54.2487113 L16,54.2487113 Z M5.75128869,44 C5.47514632,43.5217074 5.63902147,42.910117 6.1173141,42.6339746 L7.84936491,41.6339746 C8.32765753,41.3578322 8.93924793,41.5217074 9.21539031,42 C9.49153268,42.4782926 9.32765753,43.089883 8.84936491,43.3660254 L7.1173141,44.3660254 C6.63902147,44.6421678 6.02743107,44.4782926 5.75128869,44 Z M2,30 L2,30 C2,29.4477153 2.44771525,29 3,29 L5,29 C5.55228475,29 6,29.4477153 6,30 C6,30.5522847 5.55228475,31 5,31 L3,31 L3,31 C2.44771525,31 2,30.5522847 2,30 L2,30 Z M5.75128869,16 C6.02743107,15.5217074 6.63902147,15.3578322 7.1173141,15.6339746 L8.84936491,16.6339746 C9.32765753,16.910117 9.49153268,17.5217074 9.21539031,18 C8.93924793,18.4782926 8.32765753,18.6421678 7.84936491,18.3660254 L6.1173141,17.3660254 C5.63902147,17.089883 5.47514632,16.4782926 5.75128869,16 Z M16,5.75128869 L16,5.75128869 C16.4782926,5.47514632 17.089883,5.63902147 17.3660254,6.1173141 L18.3660254,7.84936491 C18.6421678,8.32765753 18.4782926,8.93924793 18,9.21539031 C17.5217074,9.49153268 16.910117,9.32765753 16.6339746,8.84936491 L15.6339746,7.1173141 C15.3578322,6.63902147 15.5217074,6.02743107 16,5.75128869 L16,5.75128869 Z" id="Path" fill="#671411"></path>
                    <path d="M20.2601649,0.561255898 C7.6706371,4.72434775 -1,16.5290397 -1,30 C-1,47.1208272 12.8791728,61 30,61 C47.1208272,61 61,47.1208272 61,30 C61,12.8791728 47.1208272,-1 30,-1 C28.2090897,-1 26.4370114,-0.848030914 24.6970156,-0.548032819 C24.152761,-0.454196178 23.787625,0.0630790222 23.8814617,0.607333677 C23.9752983,1.15158833 24.4925735,1.51672428 25.0368282,1.42288764 C26.6647068,1.14222001 28.3231032,1 30,1 C46.0162577,1 59,13.9837423 59,30 C59,46.0162577 46.0162577,59 30,59 C13.9837423,59 1,46.0162577 1,30 C1,17.398014 9.11166066,6.35434394 20.8880823,2.46012917 C21.4124417,2.28673456 21.6969548,1.7210932 21.5235602,1.19673382 C21.3501656,0.672374447 20.7845242,0.387861289 20.2601649,0.561255898 Z" id="Oval-Copy" fill="#671411" fill-rule="nonzero"></path>
                    <path d="M30,34 C27.790861,34 26,32.209139 26,30 C26,27.790861 27.790861,26 30,26 C32.209139,26 34,27.790861 34,30 C34,32.209139 32.209139,34 30,34 Z M30,32 C31.1045695,32 32,31.1045695 32,30 C32,28.8954305 31.1045695,28 30,28 C28.8954305,28 28,28.8954305 28,30 C28,31.1045695 28.8954305,32 30,32 Z" id="Oval" fill="#671411" fill-rule="nonzero"></path>
                    <rect id="Rectangle" fill="#671411" transform="translate(24.250000, 39.959292) rotate(30.000000) translate(-24.250000, -39.959292) " x="23.25" y="31.4592921" width="2" height="17" rx="1"></rect>
                    <rect id="Rectangle" fill="#671411" transform="translate(18.500000, 30.000000) rotate(90.000000) translate(-18.500000, -30.000000) " x="17.5" y="21.5" width="2" height="17" rx="1"></rect>
                </g>
            </g>
        </g>
    </g>
</svg>